  0
SECTION
  2
HEADER
  9
$ACADVER
  1
AC1014
  9
$ACADMAINTVER
 70
     9
  9
$DWGCODEPAGE
  3
ANSI_1252
  9
$INSBASE
 10
0.0
 20
0.0
 30
0.0
  9
$EXTMIN
 10
1.000000000000000E+20
 20
1.000000000000000E+20
 30
1.000000000000000E+20
  9
$EXTMAX
 10
-1.000000000000000E+20
 20
-1.000000000000000E+20
 30
-1.000000000000000E+20
  9
$LIMMIN
 10
0.0
 20
0.0
  9
$LIMMAX
 10
12.0
 20
9.0
  9
$ORTHOMODE
 70
     0
  9
$REGENMODE
 70
     1
  9
$FILLMODE
 70
     1
  9
$QTEXTMODE
 70
     0
  9
$MIRRTEXT
 70
     1
  9
$DRAGMODE
 70
     2
  9
$LTSCALE
 40
1.0
  9
$OSMODE
 70
    37
  9
$ATTMODE
 70
     1
  9
$TEXTSIZE
 40
0.2
  9
$TRACEWID
 40
0.05
  9
$TEXTSTYLE
  7
STANDARD
  9
$CLAYER
  8
0
  9
$CELTYPE
  6
BYLAYER
  9
$CECOLOR
 62
   256
  9
$CELTSCALE
 40
1.0
  9
$DELOBJ
 70
     1
  9
$DISPSILH
 70
     0
  9
$DIMSCALE
 40
1.0
  9
$DIMASZ
 40
0.18
  9
$DIMEXO
 40
0.0625
  9
$DIMDLI
 40
0.38
  9
$DIMRND
 40
0.0
  9
$DIMDLE
 40
0.0
  9
$DIMEXE
 40
0.18
  9
$DIMTP
 40
0.0
  9
$DIMTM
 40
0.0
  9
$DIMTXT
 40
0.18
  9
$DIMCEN
 40
0.09
  9
$DIMTSZ
 40
0.0
  9
$DIMTOL
 70
     0
  9
$DIMLIM
 70
     0
  9
$DIMTIH
 70
     1
  9
$DIMTOH
 70
     1
  9
$DIMSE1
 70
     0
  9
$DIMSE2
 70
     0
  9
$DIMTAD
 70
     0
  9
$DIMZIN
 70
     0
  9
$DIMBLK
  1

  9
$DIMASO
 70
     1
  9
$DIMSHO
 70
     1
  9
$DIMPOST
  1

  9
$DIMAPOST
  1

  9
$DIMALT
 70
     0
  9
$DIMALTD
 70
     2
  9
$DIMALTF
 40
25.4
  9
$DIMLFAC
 40
1.0
  9
$DIMTOFL
 70
     0
  9
$DIMTVP
 40
0.0
  9
$DIMTIX
 70
     0
  9
$DIMSOXD
 70
     0
  9
$DIMSAH
 70
     0
  9
$DIMBLK1
  1

  9
$DIMBLK2
  1

  9
$DIMSTYLE
  2
STANDARD
  9
$DIMCLRD
 70
     0
  9
$DIMCLRE
 70
     0
  9
$DIMCLRT
 70
     0
  9
$DIMTFAC
 40
1.0
  9
$DIMGAP
 40
0.09
  9
$DIMJUST
 70
     0
  9
$DIMSD1
 70
     0
  9
$DIMSD2
 70
     0
  9
$DIMTOLJ
 70
     1
  9
$DIMTZIN
 70
     0
  9
$DIMALTZ
 70
     0
  9
$DIMALTTZ
 70
     0
  9
$DIMFIT
 70
     3
  9
$DIMUPT
 70
     0
  9
$DIMUNIT
 70
     2
  9
$DIMDEC
 70
     4
  9
$DIMTDEC
 70
     4
  9
$DIMALTU
 70
     2
  9
$DIMALTTD
 70
     2
  9
$DIMTXSTY
  7
STANDARD
  9
$DIMAUNIT
 70
     0
  9
$LUNITS
 70
     2
  9
$LUPREC
 70
     4
  9
$SKETCHINC
 40
0.1
  9
$FILLETRAD
 40
0.0
  9
$AUNITS
 70
     0
  9
$AUPREC
 70
     0
  9
$MENU
  1
.
  9
$ELEVATION
 40
0.0
  9
$PELEVATION
 40
0.0
  9
$THICKNESS
 40
0.0
  9
$LIMCHECK
 70
     0
  9
$CHAMFERA
 40
0.0
  9
$CHAMFERB
 40
0.0
  9
$CHAMFERC
 40
0.0
  9
$CHAMFERD
 40
0.0
  9
$SKPOLY
 70
     0
  9
$TDCREATE
 40
2460029.51742934
  9
$TDUPDATE
 40
2460029.51742956
  9
$TDINDWG
 40
0.0000000116
  9
$TDUSRTIMER
 40
0.0000000116
  9
$USRTIMER
 70
     1
  9
$ANGBASE
 50
0.0
  9
$ANGDIR
 70
     0
  9
$PDMODE
 70
     0
  9
$PDSIZE
 40
0.0
  9
$PLINEWID
 40
0.0
  9
$COORDS
 70
     1
  9
$SPLFRAME
 70
     0
  9
$SPLINETYPE
 70
     6
  9
$SPLINESEGS
 70
     8
  9
$ATTDIA
 70
     0
  9
$ATTREQ
 70
     1
  9
$HANDLING
 70
     1
  9
$HANDSEED
  5
3BF
  9
$SURFTAB1
 70
     6
  9
$SURFTAB2
 70
     6
  9
$SURFTYPE
 70
     6
  9
$SURFU
 70
     6
  9
$SURFV
 70
     6
  9
$UCSNAME
  2

  9
$UCSORG
 10
0.0
 20
0.0
 30
0.0
  9
$UCSXDIR
 10
1.0
 20
0.0
 30
0.0
  9
$UCSYDIR
 10
0.0
 20
1.0
 30
0.0
  9
$PUCSNAME
  2

  9
$PUCSORG
 10
0.0
 20
0.0
 30
0.0
  9
$PUCSXDIR
 10
1.0
 20
0.0
 30
0.0
  9
$PUCSYDIR
 10
0.0
 20
1.0
 30
0.0
  9
$USERI1
 70
     0
  9
$USERI2
 70
     0
  9
$USERI3
 70
     0
  9
$USERI4
 70
     0
  9
$USERI5
 70
     0
  9
$USERR1
 40
0.0
  9
$USERR2
 40
0.0
  9
$USERR3
 40
0.0
  9
$USERR4
 40
0.0
  9
$USERR5
 40
0.0
  9
$WORLDVIEW
 70
     1
  9
$SHADEDGE
 70
     3
  9
$SHADEDIF
 70
    70
  9
$TILEMODE
 70
     1
  9
$MAXACTVP
 70
    64
  9
$PINSBASE
 10
0.0
 20
0.0
 30
0.0
  9
$PLIMCHECK
 70
     0
  9
$PEXTMIN
 10
1.000000000000000E+20
 20
1.000000000000000E+20
 30
1.000000000000000E+20
  9
$PEXTMAX
 10
-1.000000000000000E+20
 20
-1.000000000000000E+20
 30
-1.000000000000000E+20
  9
$PLIMMIN
 10
0.0
 20
0.0
  9
$PLIMMAX
 10
12.0
 20
9.0
  9
$UNITMODE
 70
     0
  9
$VISRETAIN
 70
     1
  9
$PLINEGEN
 70
     0
  9
$PSLTSCALE
 70
     1
  9
$TREEDEPTH
 70
  3020
  9
$PICKSTYLE
 70
     1
  9
$CMLSTYLE
  2
STANDARD
  9
$CMLJUST
 70
     0
  9
$CMLSCALE
 40
1.0
  9
$PROXYGRAPHICS
 70
     1
  9
$MEASUREMENT
 70
     0
  0
ENDSEC
  0
SECTION
  2
CLASSES
  0
CLASS
  1
ACDBDICTIONARYWDFLT
  2
AcDbDictionaryWithDefault
  3
ObjectDBX Classes
 90
        0
280
     0
281
     0
  0
CLASS
  1
VISUALSTYLE
  2
AcDbVisualStyle
  3
ObjectDBX Classes
 90
     4095
280
     0
281
     0
  0
CLASS
  1
MATERIAL
  2
AcDbMaterial
  3
ObjectDBX Classes
 90
     1153
280
     0
281
     0
  0
CLASS
  1
SCALE
  2
AcDbScale
  3
ObjectDBX Classes
 90
     1153
280
     0
281
     0
  0
CLASS
  1
TABLESTYLE
  2
AcDbTableStyle
  3
ObjectDBX Classes
 90
     4095
280
     0
281
     0
  0
CLASS
  1
MLEADERSTYLE
  2
AcDbMLeaderStyle
  3
ACDB_MLEADERSTYLE_CLASS
 90
     4095
280
     0
281
     0
  0
CLASS
  1
SUN
  2
AcDbSun
  3
SCENEOE
 90
     1153
280
     0
281
     0
  0
CLASS
  1
DICTIONARYVAR
  2
AcDbDictionaryVar
  3
ObjectDBX Classes
 90
        0
280
     0
281
     0
  0
CLASS
  1
XRECORD
  2
AcDbXrecord
  3
ObjectDBX Classes
 90
        0
280
     0
281
     0
  0
CLASS
  1
LWPOLYLINE
  2
AcDbPolyline
  3
ObjectDBX Classes
 90
        0
280
     0
281
     1
  0
CLASS
  1
HATCH
  2
AcDbHatch
  3
ObjectDBX Classes
 90
        0
280
     0
281
     1
  0
CLASS
  1
ACDBPLACEHOLDER
  2
AcDbPlaceHolder
  3
ObjectDBX Classes
 90
        0
280
     0
281
     0
  0
CLASS
  1
LAYOUT
  2
AcDbLayout
  3
ObjectDBX Classes
 90
        0
280
     0
281
     0
  0
ENDSEC
  0
SECTION
  2
TABLES
  0
TABLE
  2
VPORT
  5
8
102
{ACAD_XDICTIONARY
360
3B4
102
}
330
0
100
AcDbSymbolTable
 70
     1
  0
VPORT
  5
29
330
8
100
AcDbSymbolTableRecord
100
AcDbViewportTableRecord
  2
*ACTIVE
 70
     0
 10
0.0
 20
0.0
 11
1.0
 21
1.0
 12
0.0
 22
0.0
 13
0.0
 23
0.0
 14
0.5
 24
0.5
 15
0.5
 25
0.5
 16
0.0
 26
0.0
 36
1.0
 17
0.0
 27
0.0
 37
-1000.0
 40
99.59153215517324
 41
1.566346153846154
 42
50.0
 43
141.9409405396978
 44
250.9409405396978
 50
0.0
 51
0.0
 71
     0
 72
   100
 73
     1
 74
     3
 75
     0
 76
     0
 77
     0
 78
     0
  0
ENDTAB
  0
TABLE
  2
LTYPE
  5
5
330
0
100
AcDbSymbolTable
 70
     1
  0
LTYPE
  5
14
330
5
100
AcDbSymbolTableRecord
100
AcDbLinetypeTableRecord
  2
BYBLOCK
 70
     0
  3

 72
    65
 73
     0
 40
0.0
  0
LTYPE
  5
15
330
5
100
AcDbSymbolTableRecord
100
AcDbLinetypeTableRecord
  2
BYLAYER
 70
     0
  3

 72
    65
 73
     0
 40
0.0
  0
LTYPE
  5
16
330
5
100
AcDbSymbolTableRecord
100
AcDbLinetypeTableRecord
  2
CONTINUOUS
 70
     0
  3
Solid line
 72
    65
 73
     0
 40
0.0
  0
ENDTAB
  0
TABLE
  2
LAYER
  5
2
330
0
100
AcDbSymbolTable
 70
     3
  0
LAYER
  5
10
330
2
100
AcDbSymbolTableRecord
100
AcDbLayerTableRecord
  2
0
 70
     0
 62
     7
  6
CONTINUOUS
  0
LAYER
  5
5E
330
2
100
AcDbSymbolTableRecord
100
AcDbLayerTableRecord
  2
PROFILEEDGES
 70
     0
 62
     7
  6
CONTINUOUS
  0
LAYER
  5
5F
330
2
100
AcDbSymbolTableRecord
100
AcDbLayerTableRecord
  2
SECTIONCUTEDGES
 70
     0
 62
     7
  6
CONTINUOUS
  0
ENDTAB
  0
TABLE
  2
STYLE
  5
3
330
0
100
AcDbSymbolTable
 70
     1
  0
STYLE
  5
11
330
3
100
AcDbSymbolTableRecord
100
AcDbTextStyleTableRecord
  2
STANDARD
 70
     0
 40
0.0
 41
1.0
 50
0.0
 71
     0
 42
0.2
  3
txt
  4

  0
ENDTAB
  0
TABLE
  2
VIEW
  5
6
330
0
100
AcDbSymbolTable
 70
     0
  0
ENDTAB
  0
TABLE
  2
UCS
  5
7
330
0
100
AcDbSymbolTable
 70
     0
  0
ENDTAB
  0
TABLE
  2
APPID
  5
9
330
0
100
AcDbSymbolTable
 70
     2
  0
APPID
  5
12
330
9
100
AcDbSymbolTableRecord
100
AcDbRegAppTableRecord
  2
ACAD
 70
     0
  0
APPID
  5
3BE
330
9
100
AcDbSymbolTableRecord
100
AcDbRegAppTableRecord
  2
ACAD_MLEADERVER
 70
     0
  0
ENDTAB
  0
TABLE
  2
DIMSTYLE
  5
A
330
0
100
AcDbSymbolTable
 70
     1
  0
DIMSTYLE
105
27
330
A
100
AcDbSymbolTableRecord
100
AcDbDimStyleTableRecord
  2
STANDARD
 70
     0
  3

  4

  5

  6

  7

 40
1.0
 41
0.18
 42
0.0625
 43
0.38
 44
0.18
 45
0.0
 46
0.0
 47
0.0
 48
0.0
140
0.18
141
0.09
142
0.0
143
25.4
144
1.0
145
0.0
146
1.0
147
0.09
 71
     0
 72
     0
 73
     1
 74
     1
 75
     0
 76
     0
 77
     0
 78
     0
170
     0
171
     2
172
     0
173
     0
174
     0
175
     0
176
     0
177
     0
178
     0
270
     2
271
     4
272
     4
273
     2
274
     2
340
11
275
     0
280
     0
281
     0
282
     0
283
     1
284
     0
285
     0
286
     0
287
     3
288
     0
  0
ENDTAB
  0
TABLE
  2
BLOCK_RECORD
  5
1
330
0
100
AcDbSymbolTable
 70
     0
  0
BLOCK_RECORD
  5
1F
330
1
100
AcDbSymbolTableRecord
100
AcDbBlockTableRecord
  2
*MODEL_SPACE
  0
BLOCK_RECORD
  5
1B
330
1
100
AcDbSymbolTableRecord
100
AcDbBlockTableRecord
  2
*PAPER_SPACE
  0
ENDTAB
  0
ENDSEC
  0
SECTION
  2
BLOCKS
  0
BLOCK
  5
20
330
1F
100
AcDbEntity
  8
0
100
AcDbBlockBegin
  2
*MODEL_SPACE
 70
     0
 10
0.0
 20
0.0
 30
0.0
  3
*MODEL_SPACE
  1

  0
ENDBLK
  5
21
330
1F
100
AcDbEntity
  8
0
100
AcDbBlockEnd
  0
BLOCK
  5
1C
330
1B
100
AcDbEntity
 67
     1
  8
0
100
AcDbBlockBegin
  2
*PAPER_SPACE
 70
     0
 10
0.0
 20
0.0
 30
0.0
  3
*PAPER_SPACE
  1

  0
ENDBLK
  5
1D
330
1B
100
AcDbEntity
 67
     1
  8
0
100
AcDbBlockEnd
  0
ENDSEC
  0
SECTION
  2
ENTITIES
  0
LINE
  5
60
330
1F
100
AcDbEntity
  8
0
100
AcDbLine
 10
6.487068585533862
 20
-15.46102943646548
 30
0.0
 11
6.487068585533862
 21
-3.461029436465479
 31
0.0
  0
LINE
  5
61
330
1F
100
AcDbEntity
  8
0
100
AcDbLine
 10
-45.51293146802229
 20
-15.46102943646548
 30
0.0
 11
6.487068585533862
 21
-15.46102943646548
 31
0.0
  0
LINE
  5
62
330
1F
100
AcDbEntity
  8
0
100
AcDbLine
 10
6.487068585533862
 20
-3.461029436465479
 30
0.0
 11
6.469958308281477
 21
-3.199977052025377
 31
0.0
  0
LINE
  5
63
330
1F
100
AcDbEntity
  8
0
100
AcDbLine
 10
4.681182869360754
 20
-4.185473806182282
 30
0.0
 11
4.862068585533862
 21
-4.11054848930381
 31
0.0
  0
LINE
  5
64
330
1F
100
AcDbEntity
  8
0
100
AcDbLine
 10
4.862068585533862
 20
-4.11054848930381
 30
0.0
 11
5.017398671423763
 21
-3.991359522355391
 31
0.0
  0
LINE
  5
65
330
1F
100
AcDbEntity
  8
0
100
AcDbLine
 10
5.017398671423763
 20
-3.991359522355391
 30
0.0
 11
5.136587638372191
 21
-3.83602943646548
 31
0.0
  0
LINE
  5
66
330
1F
100
AcDbEntity
  8
0
100
AcDbLine
 10
5.704591443551308
 20
-1.874322755883009
 30
0.0
 11
5.487068585533862
 21
-1.728978628896604
 31
0.0
  0
LINE
  5
67
330
1F
100
AcDbEntity
  8
0
100
AcDbLine
 10
6.469958308281477
 20
-3.199977052025377
 30
0.0
 11
6.418920238111994
 21
-2.943391346260437
 31
0.0
  0
LINE
  5
68
330
1F
100
AcDbEntity
  8
0
100
AcDbLine
 10
5.901282147906954
 20
-2.046815874092385
 30
0.0
 11
5.704591443551308
 21
-1.874322755883009
 31
0.0
  0
LINE
  5
69
330
1F
100
AcDbEntity
  8
0
100
AcDbLine
 10
4.748120969973968
 20
-1.478139713717864
 30
0.0
 11
4.487068585533862
 21
-1.461029436465482
 31
0.0
  0
LINE
  5
6A
330
1F
100
AcDbEntity
  8
0
100
AcDbLine
 10
5.004706675738902
 20
-1.529177783887347
 30
0.0
 11
4.748120969973968
 21
-1.478139713717864
 31
0.0
  0
LINE
  5
6B
330
1F
100
AcDbEntity
  8
0
100
AcDbLine
 10
6.219119393102744
 20
-2.461029436465479
 30
0.0
 11
6.073775266116328
 21
-2.243506578448038
 31
0.0
  0
LINE
  5
6C
330
1F
100
AcDbEntity
  8
0
100
AcDbLine
 10
6.334827650556434
 20
-2.6956625717353
 30
0.0
 11
6.219119393102744
 21
-2.461029436465479
 31
0.0
  0
LINE
  5
6D
330
1F
100
AcDbEntity
  8
0
100
AcDbLine
 10
6.418920238111994
 20
-2.943391346260437
 30
0.0
 11
6.334827650556434
 21
-2.6956625717353
 31
0.0
  0
LINE
  5
6E
330
1F
100
AcDbEntity
  8
0
100
AcDbLine
 10
5.487068585533862
 20
-1.728978628896604
 30
0.0
 11
5.252435450264045
 21
-1.613270371442907
 31
0.0
  0
LINE
  5
6F
330
1F
100
AcDbEntity
  8
0
100
AcDbLine
 10
6.073775266116328
 20
-2.243506578448038
 30
0.0
 11
5.901282147906954
 21
-2.046815874092385
 31
0.0
  0
LINE
  5
70
330
1F
100
AcDbEntity
  8
0
100
AcDbLine
 10
5.252435450264045
 20
-1.613270371442907
 30
0.0
 11
5.004706675738902
 21
-1.529177783887347
 31
0.0
  0
LINE
  5
71
330
1F
100
AcDbEntity
  8
0
100
AcDbLine
 10
5.017398671423763
 20
-2.930699350575569
 30
0.0
 11
4.862068585533862
 21
-2.811510383627152
 31
0.0
  0
LINE
  5
72
330
1F
100
AcDbEntity
  8
0
100
AcDbLine
 10
5.211512955250654
 20
-3.655143720292372
 30
0.0
 11
5.237068585533862
 21
-3.461029436465481
 31
0.0
  0
LINE
  5
73
330
1F
100
AcDbEntity
  8
0
100
AcDbLine
 10
5.237068585533862
 20
-3.461029436465481
 30
0.0
 11
5.211512955250654
 21
-3.266915152638591
 31
0.0
  0
LINE
  5
74
330
1F
100
AcDbEntity
  8
0
100
AcDbLine
 10
5.211512955250654
 20
-3.266915152638591
 30
0.0
 11
5.136587638372191
 21
-3.086029436465481
 31
0.0
  0
LINE
  5
75
330
1F
100
AcDbEntity
  8
0
100
AcDbLine
 10
5.136587638372191
 20
-3.086029436465481
 30
0.0
 11
5.017398671423763
 21
-2.930699350575569
 31
0.0
  0
LINE
  5
76
330
1F
100
AcDbEntity
  8
0
100
AcDbLine
 10
4.862068585533862
 20
-2.811510383627152
 30
0.0
 11
4.681182869360754
 21
-2.736585066748679
 31
0.0
  0
LINE
  5
77
330
1F
100
AcDbEntity
  8
0
100
AcDbLine
 10
4.681182869360754
 20
-2.736585066748679
 30
0.0
 11
4.487068585533862
 21
-2.711029436465481
 31
0.0
  0
LINE
  5
78
330
1F
100
AcDbEntity
  8
0
100
AcDbLine
 10
4.487068585533862
 20
-2.711029436465481
 30
0.0
 11
4.29295430170697
 21
-2.736585066748679
 31
0.0
  0
LINE
  5
79
330
1F
100
AcDbEntity
  8
0
100
AcDbLine
 10
4.29295430170697
 20
-2.736585066748679
 30
0.0
 11
4.112068585533862
 21
-2.811510383627152
 31
0.0
  0
LINE
  5
7A
330
1F
100
AcDbEntity
  8
0
100
AcDbLine
 10
5.136587638372191
 20
-3.83602943646548
 30
0.0
 11
5.211512955250654
 21
-3.655143720292372
 31
0.0
  0
LINE
  5
7B
330
1F
100
AcDbEntity
  8
0
100
AcDbLine
 10
-45.51293146802229
 20
-1.461029451612412
 30
0.0
 11
-45.51293146802229
 21
-15.46102943646548
 31
0.0
  0
LINE
  5
7C
330
1F
100
AcDbEntity
  8
0
100
AcDbLine
 10
4.487068585533862
 20
-1.461029436465482
 30
0.0
 11
-45.51293146802229
 21
-1.461029451612412
 31
0.0
  0
LINE
  5
7D
330
1F
100
AcDbEntity
  8
0
100
AcDbLine
 10
3.837549532695533
 20
-3.086029436465481
 30
0.0
 11
3.762624215817056
 21
-3.266915152638591
 31
0.0
  0
LINE
  5
7E
330
1F
100
AcDbEntity
  8
0
100
AcDbLine
 10
3.762624215817056
 20
-3.65514372029237
 30
0.0
 11
3.837549532695533
 21
-3.83602943646548
 31
0.0
  0
LINE
  5
7F
330
1F
100
AcDbEntity
  8
0
100
AcDbLine
 10
3.956738499643947
 20
-3.99135952235539
 30
0.0
 11
4.112068585533862
 21
-4.11054848930381
 31
0.0
  0
LINE
  5
80
330
1F
100
AcDbEntity
  8
0
100
AcDbLine
 10
4.112068585533862
 20
-2.811510383627152
 30
0.0
 11
3.956738499643947
 21
-2.930699350575569
 31
0.0
  0
LINE
  5
81
330
1F
100
AcDbEntity
  8
0
100
AcDbLine
 10
3.837549532695533
 20
-3.83602943646548
 30
0.0
 11
3.956738499643947
 21
-3.99135952235539
 31
0.0
  0
LINE
  5
82
330
1F
100
AcDbEntity
  8
0
100
AcDbLine
 10
3.956738499643947
 20
-2.930699350575569
 30
0.0
 11
3.837549532695533
 21
-3.086029436465481
 31
0.0
  0
LINE
  5
83
330
1F
100
AcDbEntity
  8
0
100
AcDbLine
 10
3.737068585533862
 20
-3.461029436465481
 30
0.0
 11
3.762624215817056
 21
-3.65514372029237
 31
0.0
  0
LINE
  5
84
330
1F
100
AcDbEntity
  8
0
100
AcDbLine
 10
4.112068585533862
 20
-4.11054848930381
 30
0.0
 11
4.29295430170697
 21
-4.185473806182282
 31
0.0
  0
LINE
  5
85
330
1F
100
AcDbEntity
  8
0
100
AcDbLine
 10
3.762624215817056
 20
-3.266915152638591
 30
0.0
 11
3.737068585533862
 21
-3.461029436465481
 31
0.0
  0
LINE
  5
86
330
1F
100
AcDbEntity
  8
0
100
AcDbLine
 10
4.29295430170697
 20
-4.185473806182282
 30
0.0
 11
4.487068585533862
 21
-4.211029436465481
 31
0.0
  0
LINE
  5
87
330
1F
100
AcDbEntity
  8
0
100
AcDbLine
 10
4.487068585533862
 20
-4.211029436465481
 30
0.0
 11
4.681182869360754
 21
-4.185473806182282
 31
0.0
  0
LINE
  5
88
330
1F
100
AcDbEntity
  8
0
100
AcDbLine
 10
6.487068585533862
 20
-30.46102945161242
 30
0.0
 11
6.487068585533862
 21
-18.46102945161241
 31
0.0
  0
LINE
  5
89
330
1F
100
AcDbEntity
  8
0
100
AcDbLine
 10
-45.51293146802229
 20
-16.46102945161241
 30
0.0
 11
-45.51293146802229
 21
-30.46102945161242
 31
0.0
  0
LINE
  5
8A
330
1F
100
AcDbEntity
  8
0
100
AcDbLine
 10
-45.51293146802229
 20
-30.46102945161242
 30
0.0
 11
6.487068585533862
 21
-30.46102945161242
 31
0.0
  0
LINE
  5
8B
330
1F
100
AcDbEntity
  8
0
100
AcDbLine
 10
4.487068585533862
 20
-17.17977945161257
 30
0.0
 11
3.205818585533862
 21
-17.17977945161257
 31
0.0
  0
LINE
  5
8C
330
1F
100
AcDbEntity
  8
0
100
AcDbLine
 10
-44.79418146802229
 20
-17.17977945161257
 30
0.0
 11
-44.79418146802229
 21
-29.74227945161257
 31
0.0
  0
LINE
  5
8D
330
1F
100
AcDbEntity
  8
0
100
AcDbLine
 10
-44.79418146802229
 20
-29.74227945161257
 30
0.0
 11
-33.15355646802228
 21
-29.74227945161257
 31
0.0
  0
LINE
  5
8E
330
1F
100
AcDbEntity
  8
0
100
AcDbLine
 10
5.768318585533862
 20
-29.74227945161258
 30
0.0
 11
5.768318585533862
 21
-20.46102943579564
 31
0.0
  0
LINE
  5
8F
330
1F
100
AcDbEntity
  8
0
100
AcDbLine
 10
4.487068585533862
 20
-16.4610294516125
 30
0.0
 11
-45.51293146802229
 21
-16.46102945161241
 31
0.0
  0
LINE
  5
90
330
1F
100
AcDbEntity
  8
0
100
AcDbLine
 10
6.487068585533862
 20
-18.46102945161241
 30
0.0
 11
6.469958308281477
 21
-18.19997706717231
 31
0.0
  0
LINE
  5
91
330
1F
100
AcDbEntity
  8
0
100
AcDbLine
 10
6.469958308281477
 20
-18.19997706717231
 30
0.0
 11
6.418920238111994
 21
-17.94339136140737
 31
0.0
  0
LINE
  5
92
330
1F
100
AcDbEntity
  8
0
100
AcDbLine
 10
6.418920238111994
 20
-17.94339136140737
 30
0.0
 11
6.334827650556434
 21
-17.69566258688224
 31
0.0
  0
LINE
  5
93
330
1F
100
AcDbEntity
  8
0
100
AcDbLine
 10
6.334827650556434
 20
-17.69566258688224
 30
0.0
 11
6.219119393102744
 21
-17.46102945161241
 31
0.0
  0
LINE
  5
94
330
1F
100
AcDbEntity
  8
0
100
AcDbLine
 10
6.219119393102744
 20
-17.46102945161241
 30
0.0
 11
6.073775266116328
 21
-17.24350659359497
 31
0.0
  0
LINE
  5
95
330
1F
100
AcDbEntity
  8
0
100
AcDbLine
 10
6.073775266116328
 20
-17.24350659359497
 30
0.0
 11
5.901282147906954
 21
-17.04681588923932
 31
0.0
  0
LINE
  5
96
330
1F
100
AcDbEntity
  8
0
100
AcDbLine
 10
5.901282147906954
 20
-17.04681588923932
 30
0.0
 11
5.704591443551308
 21
-16.87432277102995
 31
0.0
  0
LINE
  5
97
330
1F
100
AcDbEntity
  8
0
100
AcDbLine
 10
5.704591443551308
 20
-16.87432277102995
 30
0.0
 11
5.487068585533862
 21
-16.72897864404354
 31
0.0
  0
LINE
  5
98
330
1F
100
AcDbEntity
  8
0
100
AcDbLine
 10
5.487068585533862
 20
-16.72897864404354
 30
0.0
 11
5.252435450264045
 21
-16.61327038658984
 31
0.0
  0
LINE
  5
99
330
1F
100
AcDbEntity
  8
0
100
AcDbLine
 10
5.252435450264045
 20
-16.61327038658984
 30
0.0
 11
5.004706675738902
 21
-16.52917779903428
 31
0.0
  0
LINE
  5
9A
330
1F
100
AcDbEntity
  8
0
100
AcDbLine
 10
5.004706675738902
 20
-16.52917779903428
 30
0.0
 11
4.748120969973968
 21
-16.4781397288648
 31
0.0
  0
LINE
  5
9B
330
1F
100
AcDbEntity
  8
0
100
AcDbLine
 10
4.748120969973968
 20
-16.4781397288648
 30
0.0
 11
4.487068585533862
 21
-16.4610294516125
 31
0.0
  0
LINE
  5
9C
330
1F
100
AcDbEntity
  8
0
100
AcDbLine
 10
-33.15355646802228
 20
-17.17977945161257
 30
0.0
 11
-44.79418146802229
 21
-17.17977945161257
 31
0.0
  0
LINE
  5
9D
330
1F
100
AcDbEntity
  8
0
100
AcDbLine
 10
-33.15355646802228
 20
-29.74227945161257
 30
0.0
 11
-33.15355646802228
 21
-17.17977945161257
 31
0.0
  0
LINE
  5
9E
330
1F
100
AcDbEntity
  8
0
100
AcDbLine
 10
-32.43480646802229
 20
-29.74227945161257
 30
0.0
 11
-19.87230644124421
 21
-29.74227945161258
 31
0.0
  0
LINE
  5
9F
330
1F
100
AcDbEntity
  8
0
100
AcDbLine
 10
-32.43480646802229
 20
-17.17977945161257
 30
0.0
 11
-32.43480646802229
 21
-29.74227945161257
 31
0.0
  0
LINE
  5
A0
330
1F
100
AcDbEntity
  8
0
100
AcDbLine
 10
-19.87230644124421
 20
-17.17977945161257
 30
0.0
 11
-32.43480646802229
 21
-17.17977945161257
 31
0.0
  0
LINE
  5
A1
330
1F
100
AcDbEntity
  8
0
100
AcDbLine
 10
-19.87230644124421
 20
-29.74227945161258
 30
0.0
 11
-19.87230644124421
 21
-17.17977945161257
 31
0.0
  0
LINE
  5
A2
330
1F
100
AcDbEntity
  8
0
100
AcDbLine
 10
-19.15355644124421
 20
-29.74227945161258
 30
0.0
 11
-6.591056412711723
 21
-29.74227945161258
 31
0.0
  0
LINE
  5
A3
330
1F
100
AcDbEntity
  8
0
100
AcDbLine
 10
-19.15355644124421
 20
-17.17977945161257
 30
0.0
 11
-19.15355644124421
 21
-29.74227945161258
 31
0.0
  0
LINE
  5
A4
330
1F
100
AcDbEntity
  8
0
100
AcDbLine
 10
-6.591056412711723
 20
-17.17977945161257
 30
0.0
 11
-19.15355644124421
 21
-17.17977945161257
 31
0.0
  0
LINE
  5
A5
330
1F
100
AcDbEntity
  8
0
100
AcDbLine
 10
-6.591056412711723
 20
-29.74227945161258
 30
0.0
 11
-6.591056412711723
 21
-17.17977945161257
 31
0.0
  0
LINE
  5
A6
330
1F
100
AcDbEntity
  8
0
100
AcDbLine
 10
-5.872306412711708
 20
-29.74227945161258
 30
0.0
 11
5.768318585533862
 21
-29.74227945161258
 31
0.0
  0
LINE
  5
A7
330
1F
100
AcDbEntity
  8
0
100
AcDbLine
 10
-5.872306412711708
 20
-17.17977945161257
 30
0.0
 11
-5.872306412711708
 21
-29.74227945161258
 31
0.0
  0
LINE
  5
A8
330
1F
100
AcDbEntity
  8
0
100
AcDbLine
 10
2.487068585533862
 20
-17.17977945161257
 30
0.0
 11
-5.872306412711708
 21
-17.17977945161257
 31
0.0
  0
LINE
  5
A9
330
1F
100
AcDbEntity
  8
0
100
AcDbLine
 10
2.487068585533862
 20
-17.17977945161257
 30
0.0
 11
2.487068585533862
 21
-20.46102943579564
 31
0.0
  0
LINE
  5
AA
330
1F
100
AcDbEntity
  8
0
100
AcDbLine
 10
2.487068585533862
 20
-20.46102943579564
 30
0.0
 11
5.768318585533862
 21
-20.46102943579564
 31
0.0
  0
LINE
  5
AB
330
1F
100
AcDbEntity
  8
0
100
AcDbLine
 10
5.768318585533862
 20
-19.74227943579564
 30
0.0
 11
5.768318585533862
 21
-18.46102945161257
 31
0.0
  0
LINE
  5
AC
330
1F
100
AcDbEntity
  8
0
100
AcDbLine
 10
5.768318585533862
 20
-19.74227943579564
 30
0.0
 11
3.205818585533862
 21
-19.74227943579564
 31
0.0
  0
LINE
  5
AD
330
1F
100
AcDbEntity
  8
0
100
AcDbLine
 10
3.205818585533862
 20
-19.74227943579564
 30
0.0
 11
3.205818585533862
 21
-17.17977945161257
 31
0.0
  0
LINE
  5
AE
330
1F
100
AcDbEntity
  8
0
100
AcDbLine
 10
5.237068585533862
 20
-18.46102945161257
 30
0.0
 11
5.211512955250654
 21
-18.26691516778568
 31
0.0
  0
LINE
  5
AF
330
1F
100
AcDbEntity
  8
0
100
AcDbLine
 10
5.211512955250654
 20
-18.26691516778568
 30
0.0
 11
5.136587638372191
 21
-18.08602945161257
 31
0.0
  0
LINE
  5
B0
330
1F
100
AcDbEntity
  8
0
100
AcDbLine
 10
5.136587638372191
 20
-18.08602945161257
 30
0.0
 11
5.017398671423763
 21
-17.93069936572266
 31
0.0
  0
LINE
  5
B1
330
1F
100
AcDbEntity
  8
0
100
AcDbLine
 10
5.017398671423763
 20
-17.93069936572266
 30
0.0
 11
4.862068585533862
 21
-17.81151039877425
 31
0.0
  0
LINE
  5
B2
330
1F
100
AcDbEntity
  8
0
100
AcDbLine
 10
4.862068585533862
 20
-17.81151039877425
 30
0.0
 11
4.681182869360754
 21
-17.73658508189578
 31
0.0
  0
LINE
  5
B3
330
1F
100
AcDbEntity
  8
0
100
AcDbLine
 10
4.681182869360754
 20
-17.73658508189578
 30
0.0
 11
4.487068585533862
 21
-17.71102945161257
 31
0.0
  0
LINE
  5
B4
330
1F
100
AcDbEntity
  8
0
100
AcDbLine
 10
4.487068585533862
 20
-17.71102945161257
 30
0.0
 11
4.29295430170697
 21
-17.73658508189578
 31
0.0
  0
LINE
  5
B5
330
1F
100
AcDbEntity
  8
0
100
AcDbLine
 10
4.29295430170697
 20
-17.73658508189578
 30
0.0
 11
4.112068585533862
 21
-17.81151039877425
 31
0.0
  0
LINE
  5
B6
330
1F
100
AcDbEntity
  8
0
100
AcDbLine
 10
4.112068585533862
 20
-17.81151039877425
 30
0.0
 11
3.956738499643947
 21
-17.93069936572266
 31
0.0
  0
LINE
  5
B7
330
1F
100
AcDbEntity
  8
0
100
AcDbLine
 10
3.956738499643947
 20
-17.93069936572266
 30
0.0
 11
3.837549532695533
 21
-18.08602945161257
 31
0.0
  0
LINE
  5
B8
330
1F
100
AcDbEntity
  8
0
100
AcDbLine
 10
3.837549532695533
 20
-18.08602945161257
 30
0.0
 11
3.762624215817056
 21
-18.26691516778568
 31
0.0
  0
LINE
  5
B9
330
1F
100
AcDbEntity
  8
0
100
AcDbLine
 10
3.762624215817056
 20
-18.26691516778568
 30
0.0
 11
3.737068585533862
 21
-18.46102945161257
 31
0.0
  0
LINE
  5
BA
330
1F
100
AcDbEntity
  8
0
100
AcDbLine
 10
3.737068585533862
 20
-18.46102945161257
 30
0.0
 11
3.762624215817056
 21
-18.65514373543947
 31
0.0
  0
LINE
  5
BB
330
1F
100
AcDbEntity
  8
0
100
AcDbLine
 10
3.762624215817056
 20
-18.65514373543947
 30
0.0
 11
3.837549532695533
 21
-18.83602945161257
 31
0.0
  0
LINE
  5
BC
330
1F
100
AcDbEntity
  8
0
100
AcDbLine
 10
3.837549532695533
 20
-18.83602945161257
 30
0.0
 11
3.956738499643947
 21
-18.99135953750248
 31
0.0
  0
LINE
  5
BD
330
1F
100
AcDbEntity
  8
0
100
AcDbLine
 10
3.956738499643947
 20
-18.99135953750248
 30
0.0
 11
4.112068585533862
 21
-19.1105485044509
 31
0.0
  0
LINE
  5
BE
330
1F
100
AcDbEntity
  8
0
100
AcDbLine
 10
4.112068585533862
 20
-19.1105485044509
 30
0.0
 11
4.29295430170697
 21
-19.18547382132937
 31
0.0
  0
LINE
  5
BF
330
1F
100
AcDbEntity
  8
0
100
AcDbLine
 10
4.29295430170697
 20
-19.18547382132937
 30
0.0
 11
4.487068585533862
 21
-19.21102945161257
 31
0.0
  0
LINE
  5
C0
330
1F
100
AcDbEntity
  8
0
100
AcDbLine
 10
4.487068585533862
 20
-19.21102945161257
 30
0.0
 11
4.681182869360754
 21
-19.18547382132937
 31
0.0
  0
LINE
  5
C1
330
1F
100
AcDbEntity
  8
0
100
AcDbLine
 10
4.681182869360754
 20
-19.18547382132937
 30
0.0
 11
4.862068585533862
 21
-19.1105485044509
 31
0.0
  0
LINE
  5
C2
330
1F
100
AcDbEntity
  8
0
100
AcDbLine
 10
4.862068585533862
 20
-19.1105485044509
 30
0.0
 11
5.017398671423763
 21
-18.99135953750249
 31
0.0
  0
LINE
  5
C3
330
1F
100
AcDbEntity
  8
0
100
AcDbLine
 10
5.017398671423763
 20
-18.99135953750249
 30
0.0
 11
5.136587638372191
 21
-18.83602945161257
 31
0.0
  0
LINE
  5
C4
330
1F
100
AcDbEntity
  8
0
100
AcDbLine
 10
5.136587638372191
 20
-18.83602945161257
 30
0.0
 11
5.211512955250654
 21
-18.65514373543947
 31
0.0
  0
LINE
  5
C5
330
1F
100
AcDbEntity
  8
0
100
AcDbLine
 10
5.211512955250654
 20
-18.65514373543947
 30
0.0
 11
5.237068585533862
 21
-18.46102945161257
 31
0.0
  0
LINE
  5
C6
330
1F
100
AcDbEntity
  8
0
100
AcDbLine
 10
4.487068585533862
 20
-17.17977945161257
 30
0.0
 11
4.654305269315799
 21
-17.19074072297738
 31
0.0
  0
LINE
  5
C7
330
1F
100
AcDbEntity
  8
0
100
AcDbLine
 10
4.654305269315799
 20
-17.19074072297738
 30
0.0
 11
4.818680487071475
 21
-17.22343698667971
 31
0.0
  0
LINE
  5
C8
330
1F
100
AcDbEntity
  8
0
100
AcDbLine
 10
4.818680487071475
 20
-17.22343698667971
 30
0.0
 11
4.977381733251633
 21
-17.27730880058249
 31
0.0
  0
LINE
  5
C9
330
1F
100
AcDbEntity
  8
0
100
AcDbLine
 10
4.977381733251633
 20
-17.27730880058249
 30
0.0
 11
5.127693585533862
 21
-17.35143440301376
 31
0.0
  0
LINE
  5
CA
330
1F
100
AcDbEntity
  8
0
100
AcDbLine
 10
5.127693585533862
 20
-17.35143440301376
 30
0.0
 11
5.267044166451285
 21
-17.44454548436443
 31
0.0
  0
LINE
  5
CB
330
1F
100
AcDbEntity
  8
0
100
AcDbLine
 10
5.267044166451285
 20
-17.44454548436443
 30
0.0
 11
5.393049148929123
 21
-17.55504888821731
 31
0.0
  0
LINE
  5
CC
330
1F
100
AcDbEntity
  8
0
100
AcDbLine
 10
5.393049148929123
 20
-17.55504888821731
 30
0.0
 11
5.503552552781997
 21
-17.68105387069515
 31
0.0
  0
LINE
  5
CD
330
1F
100
AcDbEntity
  8
0
100
AcDbLine
 10
5.503552552781997
 20
-17.68105387069515
 30
0.0
 11
5.596663634132682
 21
-17.82040445161257
 31
0.0
  0
LINE
  5
CE
330
1F
100
AcDbEntity
  8
0
100
AcDbLine
 10
5.596663634132682
 20
-17.82040445161257
 30
0.0
 11
5.670789236563948
 21
-17.9707163038948
 31
0.0
  0
LINE
  5
CF
330
1F
100
AcDbEntity
  8
0
100
AcDbLine
 10
5.670789236563948
 20
-17.9707163038948
 30
0.0
 11
5.724661050466736
 21
-18.12941755007497
 31
0.0
  0
LINE
  5
D0
330
1F
100
AcDbEntity
  8
0
100
AcDbLine
 10
5.724661050466736
 20
-18.12941755007497
 30
0.0
 11
5.757357314169056
 21
-18.29379276783063
 31
0.0
  0
LINE
  5
D1
330
1F
100
AcDbEntity
  8
0
100
AcDbLine
 10
5.757357314169056
 20
-18.29379276783063
 30
0.0
 11
5.768318585533862
 21
-18.46102945161257
 31
0.0
  0
LINE
  5
D2
330
1F
100
AcDbEntity
  8
0
100
AcDbLine
 10
5.768318585533862
 20
-18.46102945161257
 30
0.0
 11
6.487068585533862
 21
-18.46102945161241
 31
0.0
  0
LINE
  5
D3
330
1F
100
AcDbEntity
  8
0
100
AcDbLine
 10
4.487068585533862
 20
-16.4610294516125
 30
0.0
 11
4.487068585533862
 21
-17.17977945161257
 31
0.0
  0
LINE
  5
D4
330
1F
100
AcDbEntity
  8
0
100
AcDbLine
 10
12.01206867823563
 20
33.62647054838754
 30
0.0
 11
12.01206867823563
 21
46.53897054838754
 31
0.0
  0
LINE
  5
D5
330
1F
100
AcDbEntity
  8
0
100
AcDbLine
 10
10.24956868894656
 20
33.62647054838754
 30
0.0
 11
12.01206867823563
 21
33.62647054838754
 31
0.0
  0
LINE
  5
D6
330
1F
100
AcDbEntity
  8
0
100
AcDbLine
 10
10.24956868894656
 20
46.53897054838754
 30
0.0
 11
10.24956868894656
 21
33.62647054838754
 31
0.0
  0
LINE
  5
D7
330
1F
100
AcDbEntity
  8
0
100
AcDbLine
 10
12.01206867823563
 20
46.53897054838754
 30
0.0
 11
10.24956868894656
 21
46.53897054838754
 31
0.0
  0
LINE
  5
D8
330
1F
100
AcDbEntity
  8
0
100
AcDbLine
 10
12.01206866752542
 20
5.801470548387494
 30
0.0
 11
12.01206866752542
 21
18.7139705483875
 31
0.0
  0
LINE
  5
D9
330
1F
100
AcDbEntity
  8
0
100
AcDbLine
 10
10.24956867823635
 20
5.801470548387494
 30
0.0
 11
12.01206866752542
 21
5.801470548387494
 31
0.0
  0
LINE
  5
DA
330
1F
100
AcDbEntity
  8
0
100
AcDbLine
 10
10.24956867823635
 20
18.7139705483875
 30
0.0
 11
10.24956867823635
 21
5.801470548387494
 31
0.0
  0
LINE
  5
DB
330
1F
100
AcDbEntity
  8
0
100
AcDbLine
 10
12.01206866752542
 20
18.7139705483875
 30
0.0
 11
10.24956867823635
 21
18.7139705483875
 31
0.0
  0
LINE
  5
DC
330
1F
100
AcDbEntity
  8
0
100
AcDbLine
 10
4.487068585533862
 20
18.25772054276808
 30
0.0
 11
3.205818585533862
 21
18.25772054276808
 31
0.0
  0
LINE
  5
DD
330
1F
100
AcDbEntity
  8
0
100
AcDbLine
 10
-44.79418146802229
 20
18.25772054276808
 30
0.0
 11
-44.79418146802229
 21
30.82022054276808
 31
0.0
  0
LINE
  5
DE
330
1F
100
AcDbEntity
  8
0
100
AcDbLine
 10
-44.79418146802229
 20
30.82022054276808
 30
0.0
 11
-33.15355646802228
 21
30.82022054276808
 31
0.0
  0
LINE
  5
DF
330
1F
100
AcDbEntity
  8
0
100
AcDbLine
 10
5.768318585533862
 20
30.82022054276809
 30
0.0
 11
5.768318585533862
 21
21.53897052695115
 31
0.0
  0
LINE
  5
E0
330
1F
100
AcDbEntity
  8
0
100
AcDbLine
 10
6.487068585533862
 20
31.53897054276808
 30
0.0
 11
6.487068585533862
 21
19.53897054276808
 31
0.0
  0
LINE
  5
E1
330
1F
100
AcDbEntity
  8
0
100
AcDbLine
 10
4.487068585533862
 20
17.53897054276808
 30
0.0
 11
-45.51293146802229
 21
17.53897054276808
 31
0.0
  0
LINE
  5
E2
330
1F
100
AcDbEntity
  8
0
100
AcDbLine
 10
-45.51293146802229
 20
17.53897054276808
 30
0.0
 11
-45.51293146802229
 21
31.53897054276808
 31
0.0
  0
LINE
  5
E3
330
1F
100
AcDbEntity
  8
0
100
AcDbLine
 10
-45.51293146802229
 20
31.53897054276808
 30
0.0
 11
6.487068585533862
 21
31.53897054276808
 31
0.0
  0
LINE
  5
E4
330
1F
100
AcDbEntity
  8
0
100
AcDbLine
 10
-33.15355646802228
 20
18.25772054276808
 30
0.0
 11
-44.79418146802229
 21
18.25772054276808
 31
0.0
  0
LINE
  5
E5
330
1F
100
AcDbEntity
  8
0
100
AcDbLine
 10
-33.15355646802228
 20
30.82022054276808
 30
0.0
 11
-33.15355646802228
 21
18.25772054276808
 31
0.0
  0
LINE
  5
E6
330
1F
100
AcDbEntity
  8
0
100
AcDbLine
 10
-32.43480646802229
 20
30.82022054276808
 30
0.0
 11
-19.87230644124421
 21
30.82022054276809
 31
0.0
  0
LINE
  5
E7
330
1F
100
AcDbEntity
  8
0
100
AcDbLine
 10
-32.43480646802229
 20
18.25772054276808
 30
0.0
 11
-32.43480646802229
 21
30.82022054276808
 31
0.0
  0
LINE
  5
E8
330
1F
100
AcDbEntity
  8
0
100
AcDbLine
 10
-19.87230644124421
 20
18.25772054276808
 30
0.0
 11
-32.43480646802229
 21
18.25772054276808
 31
0.0
  0
LINE
  5
E9
330
1F
100
AcDbEntity
  8
0
100
AcDbLine
 10
-19.87230644124421
 20
30.82022054276809
 30
0.0
 11
-19.87230644124421
 21
18.25772054276808
 31
0.0
  0
LINE
  5
EA
330
1F
100
AcDbEntity
  8
0
100
AcDbLine
 10
-19.15355644124421
 20
30.82022054276809
 30
0.0
 11
-6.591056412711723
 21
30.82022054276809
 31
0.0
  0
LINE
  5
EB
330
1F
100
AcDbEntity
  8
0
100
AcDbLine
 10
-19.15355644124421
 20
18.25772054276808
 30
0.0
 11
-19.15355644124421
 21
30.82022054276809
 31
0.0
  0
LINE
  5
EC
330
1F
100
AcDbEntity
  8
0
100
AcDbLine
 10
-6.591056412711723
 20
18.25772054276808
 30
0.0
 11
-19.15355644124421
 21
18.25772054276808
 31
0.0
  0
LINE
  5
ED
330
1F
100
AcDbEntity
  8
0
100
AcDbLine
 10
-6.591056412711723
 20
30.82022054276809
 30
0.0
 11
-6.591056412711723
 21
18.25772054276808
 31
0.0
  0
LINE
  5
EE
330
1F
100
AcDbEntity
  8
0
100
AcDbLine
 10
-5.872306412711708
 20
30.82022054276809
 30
0.0
 11
5.768318585533862
 21
30.82022054276809
 31
0.0
  0
LINE
  5
EF
330
1F
100
AcDbEntity
  8
0
100
AcDbLine
 10
-5.872306412711708
 20
18.25772054276808
 30
0.0
 11
-5.872306412711708
 21
30.82022054276809
 31
0.0
  0
LINE
  5
F0
330
1F
100
AcDbEntity
  8
0
100
AcDbLine
 10
2.487068585533862
 20
18.25772054276808
 30
0.0
 11
-5.872306412711708
 21
18.25772054276808
 31
0.0
  0
LINE
  5
F1
330
1F
100
AcDbEntity
  8
0
100
AcDbLine
 10
2.487068585533862
 20
18.25772054276808
 30
0.0
 11
2.487068585533862
 21
21.53897052695115
 31
0.0
  0
LINE
  5
F2
330
1F
100
AcDbEntity
  8
0
100
AcDbLine
 10
2.487068585533862
 20
21.53897052695115
 30
0.0
 11
5.768318585533862
 21
21.53897052695115
 31
0.0
  0
LINE
  5
F3
330
1F
100
AcDbEntity
  8
0
100
AcDbLine
 10
5.768318585533862
 20
20.82022052695115
 30
0.0
 11
5.768318585533862
 21
19.53897054276808
 31
0.0
  0
LINE
  5
F4
330
1F
100
AcDbEntity
  8
0
100
AcDbLine
 10
5.768318585533862
 20
20.82022052695115
 30
0.0
 11
3.205818585533862
 21
20.82022052695115
 31
0.0
  0
LINE
  5
F5
330
1F
100
AcDbEntity
  8
0
100
AcDbLine
 10
3.205818585533862
 20
20.82022052695115
 30
0.0
 11
3.205818585533862
 21
18.25772054276808
 31
0.0
  0
LINE
  5
F6
330
1F
100
AcDbEntity
  8
0
100
AcDbLine
 10
5.237068585533862
 20
19.53897054276808
 30
0.0
 11
5.211512955250654
 21
19.34485625894119
 31
0.0
  0
LINE
  5
F7
330
1F
100
AcDbEntity
  8
0
100
AcDbLine
 10
5.211512955250654
 20
19.34485625894119
 30
0.0
 11
5.136587638372191
 21
19.16397054276808
 31
0.0
  0
LINE
  5
F8
330
1F
100
AcDbEntity
  8
0
100
AcDbLine
 10
5.136587638372191
 20
19.16397054276808
 30
0.0
 11
5.017398671423763
 21
19.00864045687817
 31
0.0
  0
LINE
  5
F9
330
1F
100
AcDbEntity
  8
0
100
AcDbLine
 10
5.017398671423763
 20
19.00864045687817
 30
0.0
 11
4.862068585533862
 21
18.88945148992975
 31
0.0
  0
LINE
  5
FA
330
1F
100
AcDbEntity
  8
0
100
AcDbLine
 10
4.862068585533862
 20
18.88945148992975
 30
0.0
 11
4.681182869360754
 21
18.81452617305128
 31
0.0
  0
LINE
  5
FB
330
1F
100
AcDbEntity
  8
0
100
AcDbLine
 10
4.681182869360754
 20
18.81452617305128
 30
0.0
 11
4.487068585533862
 21
18.78897054276808
 31
0.0
  0
LINE
  5
FC
330
1F
100
AcDbEntity
  8
0
100
AcDbLine
 10
4.487068585533862
 20
18.78897054276808
 30
0.0
 11
4.29295430170697
 21
18.81452617305128
 31
0.0
  0
LINE
  5
FD
330
1F
100
AcDbEntity
  8
0
100
AcDbLine
 10
4.29295430170697
 20
18.81452617305128
 30
0.0
 11
4.112068585533862
 21
18.88945148992975
 31
0.0
  0
LINE
  5
FE
330
1F
100
AcDbEntity
  8
0
100
AcDbLine
 10
4.112068585533862
 20
18.88945148992975
 30
0.0
 11
3.956738499643947
 21
19.00864045687817
 31
0.0
  0
LINE
  5
FF
330
1F
100
AcDbEntity
  8
0
100
AcDbLine
 10
3.956738499643947
 20
19.00864045687817
 30
0.0
 11
3.837549532695533
 21
19.16397054276808
 31
0.0
  0
LINE
  5
100
330
1F
100
AcDbEntity
  8
0
100
AcDbLine
 10
3.837549532695533
 20
19.16397054276808
 30
0.0
 11
3.762624215817056
 21
19.34485625894119
 31
0.0
  0
LINE
  5
101
330
1F
100
AcDbEntity
  8
0
100
AcDbLine
 10
3.762624215817056
 20
19.34485625894119
 30
0.0
 11
3.737068585533862
 21
19.53897054276808
 31
0.0
  0
LINE
  5
102
330
1F
100
AcDbEntity
  8
0
100
AcDbLine
 10
3.737068585533862
 20
19.53897054276808
 30
0.0
 11
3.762624215817056
 21
19.73308482659498
 31
0.0
  0
LINE
  5
103
330
1F
100
AcDbEntity
  8
0
100
AcDbLine
 10
3.762624215817056
 20
19.73308482659498
 30
0.0
 11
3.837549532695533
 21
19.91397054276808
 31
0.0
  0
LINE
  5
104
330
1F
100
AcDbEntity
  8
0
100
AcDbLine
 10
3.837549532695533
 20
19.91397054276808
 30
0.0
 11
3.956738499643947
 21
20.06930062865799
 31
0.0
  0
LINE
  5
105
330
1F
100
AcDbEntity
  8
0
100
AcDbLine
 10
3.956738499643947
 20
20.06930062865799
 30
0.0
 11
4.112068585533862
 21
20.18848959560641
 31
0.0
  0
LINE
  5
106
330
1F
100
AcDbEntity
  8
0
100
AcDbLine
 10
4.112068585533862
 20
20.18848959560641
 30
0.0
 11
4.29295430170697
 21
20.26341491248488
 31
0.0
  0
LINE
  5
107
330
1F
100
AcDbEntity
  8
0
100
AcDbLine
 10
4.29295430170697
 20
20.26341491248488
 30
0.0
 11
4.487068585533862
 21
20.28897054276808
 31
0.0
  0
LINE
  5
108
330
1F
100
AcDbEntity
  8
0
100
AcDbLine
 10
4.487068585533862
 20
20.28897054276808
 30
0.0
 11
4.681182869360754
 21
20.26341491248488
 31
0.0
  0
LINE
  5
109
330
1F
100
AcDbEntity
  8
0
100
AcDbLine
 10
4.681182869360754
 20
20.26341491248488
 30
0.0
 11
4.862068585533862
 21
20.18848959560641
 31
0.0
  0
LINE
  5
10A
330
1F
100
AcDbEntity
  8
0
100
AcDbLine
 10
4.862068585533862
 20
20.18848959560641
 30
0.0
 11
5.017398671423763
 21
20.069300628658
 31
0.0
  0
LINE
  5
10B
330
1F
100
AcDbEntity
  8
0
100
AcDbLine
 10
5.017398671423763
 20
20.069300628658
 30
0.0
 11
5.136587638372191
 21
19.91397054276808
 31
0.0
  0
LINE
  5
10C
330
1F
100
AcDbEntity
  8
0
100
AcDbLine
 10
5.136587638372191
 20
19.91397054276808
 30
0.0
 11
5.211512955250654
 21
19.73308482659498
 31
0.0
  0
LINE
  5
10D
330
1F
100
AcDbEntity
  8
0
100
AcDbLine
 10
5.211512955250654
 20
19.73308482659498
 30
0.0
 11
5.237068585533862
 21
19.53897054276808
 31
0.0
  0
LINE
  5
10E
330
1F
100
AcDbEntity
  8
0
100
AcDbLine
 10
4.487068585533862
 20
18.25772054276808
 30
0.0
 11
4.654305269315799
 21
18.26868181413289
 31
0.0
  0
LINE
  5
10F
330
1F
100
AcDbEntity
  8
0
100
AcDbLine
 10
4.654305269315799
 20
18.26868181413289
 30
0.0
 11
4.818680487071475
 21
18.30137807783522
 31
0.0
  0
LINE
  5
110
330
1F
100
AcDbEntity
  8
0
100
AcDbLine
 10
4.818680487071475
 20
18.30137807783522
 30
0.0
 11
4.977381733251633
 21
18.355249891738
 31
0.0
  0
LINE
  5
111
330
1F
100
AcDbEntity
  8
0
100
AcDbLine
 10
4.977381733251633
 20
18.355249891738
 30
0.0
 11
5.127693585533862
 21
18.42937549416927
 31
0.0
  0
LINE
  5
112
330
1F
100
AcDbEntity
  8
0
100
AcDbLine
 10
5.127693585533862
 20
18.42937549416927
 30
0.0
 11
5.267044166451285
 21
18.52248657551994
 31
0.0
  0
LINE
  5
113
330
1F
100
AcDbEntity
  8
0
100
AcDbLine
 10
5.267044166451285
 20
18.52248657551994
 30
0.0
 11
5.393049148929123
 21
18.63298997937282
 31
0.0
  0
LINE
  5
114
330
1F
100
AcDbEntity
  8
0
100
AcDbLine
 10
5.393049148929123
 20
18.63298997937282
 30
0.0
 11
5.503552552781997
 21
18.75899496185066
 31
0.0
  0
LINE
  5
115
330
1F
100
AcDbEntity
  8
0
100
AcDbLine
 10
5.503552552781997
 20
18.75899496185066
 30
0.0
 11
5.596663634132682
 21
18.89834554276808
 31
0.0
  0
LINE
  5
116
330
1F
100
AcDbEntity
  8
0
100
AcDbLine
 10
5.596663634132682
 20
18.89834554276808
 30
0.0
 11
5.670789236563948
 21
19.04865739505031
 31
0.0
  0
LINE
  5
117
330
1F
100
AcDbEntity
  8
0
100
AcDbLine
 10
5.670789236563948
 20
19.04865739505031
 30
0.0
 11
5.724661050466736
 21
19.20735864123048
 31
0.0
  0
LINE
  5
118
330
1F
100
AcDbEntity
  8
0
100
AcDbLine
 10
5.724661050466736
 20
19.20735864123048
 30
0.0
 11
5.757357314169056
 21
19.37173385898614
 31
0.0
  0
LINE
  5
119
330
1F
100
AcDbEntity
  8
0
100
AcDbLine
 10
5.757357314169056
 20
19.37173385898614
 30
0.0
 11
5.768318585533862
 21
19.53897054276808
 31
0.0
  0
LINE
  5
11A
330
1F
100
AcDbEntity
  8
0
100
AcDbLine
 10
4.748120969973968
 20
17.55608082002047
 30
0.0
 11
4.487068585533862
 21
17.53897054276808
 31
0.0
  0
LINE
  5
11B
330
1F
100
AcDbEntity
  8
0
100
AcDbLine
 10
5.004706675738902
 20
17.60711889018995
 30
0.0
 11
4.748120969973968
 21
17.55608082002047
 31
0.0
  0
LINE
  5
11C
330
1F
100
AcDbEntity
  8
0
100
AcDbLine
 10
5.252435450264045
 20
17.69121147774551
 30
0.0
 11
5.004706675738902
 21
17.60711889018995
 31
0.0
  0
LINE
  5
11D
330
1F
100
AcDbEntity
  8
0
100
AcDbLine
 10
5.487068585533862
 20
17.80691973519921
 30
0.0
 11
5.252435450264045
 21
17.69121147774551
 31
0.0
  0
LINE
  5
11E
330
1F
100
AcDbEntity
  8
0
100
AcDbLine
 10
5.704591443551308
 20
17.95226386218561
 30
0.0
 11
5.487068585533862
 21
17.80691973519921
 31
0.0
  0
LINE
  5
11F
330
1F
100
AcDbEntity
  8
0
100
AcDbLine
 10
5.901282147906954
 20
18.12475698039499
 30
0.0
 11
5.704591443551308
 21
17.95226386218561
 31
0.0
  0
LINE
  5
120
330
1F
100
AcDbEntity
  8
0
100
AcDbLine
 10
6.073775266116328
 20
18.32144768475064
 30
0.0
 11
5.901282147906954
 21
18.12475698039499
 31
0.0
  0
LINE
  5
121
330
1F
100
AcDbEntity
  8
0
100
AcDbLine
 10
6.219119393102744
 20
18.53897054276808
 30
0.0
 11
6.073775266116328
 21
18.32144768475064
 31
0.0
  0
LINE
  5
122
330
1F
100
AcDbEntity
  8
0
100
AcDbLine
 10
6.334827650556434
 20
18.7736036780379
 30
0.0
 11
6.219119393102744
 21
18.53897054276808
 31
0.0
  0
LINE
  5
123
330
1F
100
AcDbEntity
  8
0
100
AcDbLine
 10
6.418920238111994
 20
19.02133245256304
 30
0.0
 11
6.334827650556434
 21
18.7736036780379
 31
0.0
  0
LINE
  5
124
330
1F
100
AcDbEntity
  8
0
100
AcDbLine
 10
6.469958308281477
 20
19.27791815832798
 30
0.0
 11
6.418920238111994
 21
19.02133245256304
 31
0.0
  0
LINE
  5
125
330
1F
100
AcDbEntity
  8
0
100
AcDbLine
 10
6.487068585533862
 20
19.53897054276808
 30
0.0
 11
6.469958308281477
 21
19.27791815832798
 31
0.0
  0
LINE
  5
126
330
1F
100
AcDbEntity
  8
0
100
AcDbLine
 10
5.768318585533862
 20
19.53897054276808
 30
0.0
 11
6.487068585533862
 21
19.53897054276808
 31
0.0
  0
LINE
  5
127
330
1F
100
AcDbEntity
  8
0
100
AcDbLine
 10
4.487068585533862
 20
17.53897054276808
 30
0.0
 11
4.487068585533862
 21
18.25772054276808
 31
0.0
  0
LINE
  5
128
330
1F
100
AcDbEntity
  8
0
100
AcDbLine
 10
9.249568678236344
 20
34.53897054838757
 30
0.0
 11
9.249568678236344
 21
46.5389705483876
 31
0.0
  0
LINE
  5
129
330
1F
100
AcDbEntity
  8
0
100
AcDbLine
 10
7.487068585533863
 20
34.53897054838757
 30
0.0
 11
9.249568678236344
 21
34.53897054838757
 31
0.0
  0
LINE
  5
12A
330
1F
100
AcDbEntity
  8
0
100
AcDbLine
 10
7.487068585533863
 20
46.5389705483876
 30
0.0
 11
7.487068585533863
 21
34.53897054838757
 31
0.0
  0
LINE
  5
12B
330
1F
100
AcDbEntity
  8
0
100
AcDbLine
 10
9.249568678236344
 20
46.5389705483876
 30
0.0
 11
7.487068585533863
 21
46.5389705483876
 31
0.0
  0
LINE
  5
12C
330
1F
100
AcDbEntity
  8
0
100
AcDbLine
 10
-42.95043137313454
 20
2.726470381096122
 30
0.0
 11
-45.51293137164885
 21
2.726470396913053
 31
0.0
  0
LINE
  5
12D
330
1F
100
AcDbEntity
  8
0
100
AcDbLine
 10
-42.9504313840135
 20
0.963970390015753
 30
0.0
 11
-42.95043137313454
 21
2.726470381096122
 31
0.0
  0
LINE
  5
12E
330
1F
100
AcDbEntity
  8
0
100
AcDbLine
 10
-45.51293138252781
 20
0.9639704058326832
 30
0.0
 11
-42.9504313840135
 21
0.963970390015753
 31
0.0
  0
LINE
  5
12F
330
1F
100
AcDbEntity
  8
0
100
AcDbLine
 10
-45.51293137164885
 20
2.726470396913053
 30
0.0
 11
-45.51293138252781
 21
0.9639704058326832
 31
0.0
  0
LINE
  5
130
330
1F
100
AcDbEntity
  8
0
100
AcDbLine
 10
-28.03793138401349
 20
0.9639701868953017
 30
0.0
 11
-15.12543138401349
 21
0.9639701868957271
 31
0.0
  0
LINE
  5
131
330
1F
100
AcDbEntity
  8
0
100
AcDbLine
 10
-28.03793138401355
 20
2.72647017618437
 30
0.0
 11
-28.03793138401349
 21
0.9639701868953017
 31
0.0
  0
LINE
  5
132
330
1F
100
AcDbEntity
  8
0
100
AcDbLine
 10
-15.12543138401355
 20
2.726470176184796
 30
0.0
 11
-28.03793138401355
 21
2.72647017618437
 31
0.0
  0
LINE
  5
133
330
1F
100
AcDbEntity
  8
0
100
AcDbLine
 10
-15.12543138401349
 20
0.9639701868957271
 30
0.0
 11
-15.12543138401355
 21
2.726470176184796
 31
0.0
  0
LINE
  5
134
330
1F
100
AcDbEntity
  8
0
100
AcDbLine
 10
5.76831858560395
 20
14.77647045466975
 30
0.0
 11
3.205818611717547
 21
14.77647046763639
 31
0.0
  0
LINE
  5
135
330
1F
100
AcDbEntity
  8
0
100
AcDbLine
 10
5.768318585533891
 20
16.53897053918545
 30
0.0
 11
5.76831858560395
 21
14.77647045466975
 31
0.0
  0
LINE
  5
136
330
1F
100
AcDbEntity
  8
0
100
AcDbLine
 10
-45.51293146795223
 20
14.77647045466976
 30
0.0
 11
-44.79418146795223
 21
14.77647045466976
 31
0.0
  0
LINE
  5
137
330
1F
100
AcDbEntity
  8
0
100
AcDbLine
 10
-33.15355646795221
 20
14.77647045466975
 30
0.0
 11
-44.79418146795223
 21
14.77647045466976
 31
0.0
  0
LINE
  5
138
330
1F
100
AcDbEntity
  8
0
100
AcDbLine
 10
-33.15355646795221
 20
14.77647045466975
 30
0.0
 11
-32.43480646795222
 21
14.77647045466976
 31
0.0
  0
LINE
  5
139
330
1F
100
AcDbEntity
  8
0
100
AcDbLine
 10
-19.87230644117415
 20
14.77647045466975
 30
0.0
 11
-32.43480646795222
 21
14.77647045466976
 31
0.0
  0
LINE
  5
13A
330
1F
100
AcDbEntity
  8
0
100
AcDbLine
 10
-19.87230644117415
 20
14.77647045466975
 30
0.0
 11
-19.15355644117415
 21
14.77647045466976
 31
0.0
  0
LINE
  5
13B
330
1F
100
AcDbEntity
  8
0
100
AcDbLine
 10
-6.591056414396085
 20
14.77647045199202
 30
0.0
 11
-19.15355644117415
 21
14.77647045466976
 31
0.0
  0
LINE
  5
13C
330
1F
100
AcDbEntity
  8
0
100
AcDbLine
 10
-6.591056414396085
 20
14.77647045199202
 30
0.0
 11
-5.872306414396085
 21
14.77647044931429
 31
0.0
  0
LINE
  5
13D
330
1F
100
AcDbEntity
  8
0
100
AcDbLine
 10
-6.591056412711708
 20
16.53897043895217
 30
0.0
 11
-5.872306412711708
 21
16.53897043895217
 31
0.0
  0
LINE
  5
13E
330
1F
100
AcDbEntity
  8
0
100
AcDbLine
 10
-6.591056414396085
 20
14.77647045199202
 30
0.0
 11
-6.591056412711708
 21
16.53897043895217
 31
0.0
  0
LINE
  5
13F
330
1F
100
AcDbEntity
  8
0
100
AcDbLine
 10
-5.872306414396085
 20
14.77647044931429
 30
0.0
 11
-5.872306412711708
 21
16.53897043895217
 31
0.0
  0
LINE
  5
140
330
1F
100
AcDbEntity
  8
0
100
AcDbLine
 10
-5.872306412711708
 20
16.53897043895217
 30
0.0
 11
2.487068585533855
 21
16.53897051133112
 31
0.0
  0
LINE
  5
141
330
1F
100
AcDbEntity
  8
0
100
AcDbLine
 10
-19.8723064412442
 20
16.53897047311712
 30
0.0
 11
-19.1535564412442
 21
16.53897047311712
 31
0.0
  0
LINE
  5
142
330
1F
100
AcDbEntity
  8
0
100
AcDbLine
 10
-19.87230644117415
 20
14.77647045466975
 30
0.0
 11
-19.8723064412442
 21
16.53897047311712
 31
0.0
  0
LINE
  5
143
330
1F
100
AcDbEntity
  8
0
100
AcDbLine
 10
-19.15355644117415
 20
14.77647045466976
 30
0.0
 11
-19.1535564412442
 21
16.53897047311712
 31
0.0
  0
LINE
  5
144
330
1F
100
AcDbEntity
  8
0
100
AcDbLine
 10
-19.1535564412442
 20
16.53897047311712
 30
0.0
 11
-6.591056412711708
 21
16.53897043895217
 31
0.0
  0
LINE
  5
145
330
1F
100
AcDbEntity
  8
0
100
AcDbLine
 10
-33.15355646802227
 20
16.53897050548699
 30
0.0
 11
-32.43480646802227
 21
16.53897050548699
 31
0.0
  0
LINE
  5
146
330
1F
100
AcDbEntity
  8
0
100
AcDbLine
 10
-33.15355646795221
 20
14.77647045466975
 30
0.0
 11
-33.15355646802227
 21
16.53897050548699
 31
0.0
  0
LINE
  5
147
330
1F
100
AcDbEntity
  8
0
100
AcDbLine
 10
-32.43480646795222
 20
14.77647045466976
 30
0.0
 11
-32.43480646802227
 21
16.53897050548699
 31
0.0
  0
LINE
  5
148
330
1F
100
AcDbEntity
  8
0
100
AcDbLine
 10
-32.43480646802227
 20
16.53897050548699
 30
0.0
 11
-19.8723064412442
 21
16.53897047311712
 31
0.0
  0
LINE
  5
149
330
1F
100
AcDbEntity
  8
0
100
AcDbLine
 10
-45.51293146802229
 20
16.53897053722575
 30
0.0
 11
-44.79418146802229
 21
16.53897053722575
 31
0.0
  0
LINE
  5
14A
330
1F
100
AcDbEntity
  8
0
100
AcDbLine
 10
-45.51293146795223
 20
14.77647045466976
 30
0.0
 11
-45.51293146802229
 21
16.53897053722575
 31
0.0
  0
LINE
  5
14B
330
1F
100
AcDbEntity
  8
0
100
AcDbLine
 10
-44.79418146795223
 20
14.77647045466976
 30
0.0
 11
-44.79418146802229
 21
16.53897053722575
 31
0.0
  0
LINE
  5
14C
330
1F
100
AcDbEntity
  8
0
100
AcDbLine
 10
-44.79418146802229
 20
16.53897053722575
 30
0.0
 11
-33.15355646802227
 21
16.53897050548699
 31
0.0
  0
LINE
  5
14D
330
1F
100
AcDbEntity
  8
0
100
AcDbLine
 10
2.487068585533855
 20
16.53897051133112
 30
0.0
 11
3.205818585533855
 21
16.53897054276806
 31
0.0
  0
LINE
  5
14E
330
1F
100
AcDbEntity
  8
0
100
AcDbLine
 10
3.205818585533855
 20
16.53897054276806
 30
0.0
 11
5.768318585533891
 21
16.53897053918545
 31
0.0
  0
LINE
  5
14F
330
1F
100
AcDbEntity
  8
0
100
AcDbLine
 10
2.487068611717547
 20
14.77647048030416
 30
0.0
 11
3.205818611717547
 21
14.77647046763639
 31
0.0
  0
LINE
  5
150
330
1F
100
AcDbEntity
  8
0
100
AcDbLine
 10
3.205818585533855
 20
16.53897054276806
 30
0.0
 11
3.205818611717547
 21
14.77647046763639
 31
0.0
  0
LINE
  5
151
330
1F
100
AcDbEntity
  8
0
100
AcDbLine
 10
2.487068585533855
 20
16.53897051133112
 30
0.0
 11
2.487068611717547
 21
14.77647048030416
 31
0.0
  0
LINE
  5
152
330
1F
100
AcDbEntity
  8
0
100
AcDbLine
 10
2.487068611717547
 20
14.77647048030416
 30
0.0
 11
-5.872306414396085
 21
14.77647044931429
 31
0.0
  0
LINE
  5
153
330
1F
100
AcDbEntity
  8
0
100
AcDbLine
 10
-41.95043138401348
 20
0.9639703793055658
 30
0.0
 11
-29.03793138401348
 21
0.9639701868953758
 31
0.0
  0
LINE
  5
154
330
1F
100
AcDbEntity
  8
0
100
AcDbLine
 10
-41.95043135775033
 20
2.726470368594634
 30
0.0
 11
-41.95043138401348
 21
0.9639703793055658
 31
0.0
  0
LINE
  5
155
330
1F
100
AcDbEntity
  8
0
100
AcDbLine
 10
-29.03793135775032
 20
2.726470176184444
 30
0.0
 11
-41.95043135775033
 21
2.726470368594634
 31
0.0
  0
LINE
  5
156
330
1F
100
AcDbEntity
  8
0
100
AcDbLine
 10
-29.03793138401348
 20
0.9639701868953758
 30
0.0
 11
-29.03793135775032
 21
2.726470176184444
 31
0.0
  0
LINE
  5
157
330
1F
100
AcDbEntity
  8
0
100
AcDbLine
 10
-42.95043137313453
 20
3.726470370385929
 30
0.0
 11
-45.51293137164884
 21
3.726470386202859
 31
0.0
  0
LINE
  5
158
330
1F
100
AcDbEntity
  8
0
100
AcDbLine
 10
-42.95043136225557
 20
5.488970361466298
 30
0.0
 11
-42.95043137313453
 21
3.726470370385929
 31
0.0
  0
LINE
  5
159
330
1F
100
AcDbEntity
  8
0
100
AcDbLine
 10
-45.51293136076988
 20
5.488970377283228
 30
0.0
 11
-42.95043136225557
 21
5.488970361466298
 31
0.0
  0
LINE
  5
15A
330
1F
100
AcDbEntity
  8
0
100
AcDbLine
 10
-45.51293137164884
 20
3.726470386202859
 30
0.0
 11
-45.51293136076988
 21
5.488970377283228
 31
0.0
  0
LINE
  5
15B
330
1F
100
AcDbEntity
  8
0
100
AcDbLine
 10
-28.03793138384475
 20
3.72647037039204
 30
0.0
 11
-15.12543138384475
 21
3.726470562803537
 31
0.0
  0
LINE
  5
15C
330
1F
100
AcDbEntity
  8
0
100
AcDbLine
 10
-28.03793141010808
 20
5.488970359681108
 30
0.0
 11
-28.03793138384475
 21
3.72647037039204
 31
0.0
  0
LINE
  5
15D
330
1F
100
AcDbEntity
  8
0
100
AcDbLine
 10
-15.12543141010808
 20
5.488970552092605
 30
0.0
 11
-28.03793141010808
 21
5.488970359681108
 31
0.0
  0
LINE
  5
15E
330
1F
100
AcDbEntity
  8
0
100
AcDbLine
 10
-15.12543138384475
 20
3.726470562803537
 30
0.0
 11
-15.12543141010808
 21
5.488970552092605
 31
0.0
  0
LINE
  5
15F
330
1F
100
AcDbEntity
  8
0
100
AcDbLine
 10
-14.12543138401349
 20
0.9639701868958062
 30
0.0
 11
-2.125431384013469
 21
0.9639700080818665
 31
0.0
  0
LINE
  5
160
330
1F
100
AcDbEntity
  8
0
100
AcDbLine
 10
-14.12543135775019
 20
2.726470279598288
 30
0.0
 11
-14.12543138401349
 21
0.9639701868958062
 31
0.0
  0
LINE
  5
161
330
1F
100
AcDbEntity
  8
0
100
AcDbLine
 10
-2.12543135775017
 20
2.726470100784348
 30
0.0
 11
-14.12543135775019
 21
2.726470279598288
 31
0.0
  0
LINE
  5
162
330
1F
100
AcDbEntity
  8
0
100
AcDbLine
 10
-2.125431384013469
 20
0.9639700080818665
 30
0.0
 11
-2.12543135775017
 21
2.726470100784348
 31
0.0
  0
LINE
  5
163
330
1F
100
AcDbEntity
  8
0
100
AcDbLine
 10
9.249568688946553
 20
20.62647054838754
 30
0.0
 11
9.249568688946553
 21
33.53897054838754
 31
0.0
  0
LINE
  5
164
330
1F
100
AcDbEntity
  8
0
100
AcDbLine
 10
7.487068699657485
 20
20.62647054838754
 30
0.0
 11
9.249568688946553
 21
20.62647054838754
 31
0.0
  0
LINE
  5
165
330
1F
100
AcDbEntity
  8
0
100
AcDbLine
 10
7.487068699657485
 20
33.53897054838754
 30
0.0
 11
7.487068699657485
 21
20.62647054838754
 31
0.0
  0
LINE
  5
166
330
1F
100
AcDbEntity
  8
0
100
AcDbLine
 10
9.249568688946553
 20
33.53897054838754
 30
0.0
 11
7.487068699657485
 21
33.53897054838754
 31
0.0
  0
LINE
  5
167
330
1F
100
AcDbEntity
  8
0
100
AcDbLine
 10
4.487068639230131
 20
6.488970377283216
 30
0.0
 11
-45.51293136076987
 21
6.488970377283232
 31
0.0
  0
LINE
  5
168
330
1F
100
AcDbEntity
  8
0
100
AcDbLine
 10
4.487068639230131
 20
8.251470366572285
 30
0.0
 11
4.487068639230131
 21
6.488970377283216
 31
0.0
  0
LINE
  5
169
330
1F
100
AcDbEntity
  8
0
100
AcDbLine
 10
-45.51293136076987
 20
8.251470366572303
 30
0.0
 11
4.487068639230131
 21
8.251470366572285
 31
0.0
  0
LINE
  5
16A
330
1F
100
AcDbEntity
  8
0
100
AcDbLine
 10
-45.51293136076987
 20
6.488970377283232
 30
0.0
 11
-45.51293136076987
 21
8.251470366572303
 31
0.0
  0
LINE
  5
16B
330
1F
100
AcDbEntity
  8
0
100
AcDbLine
 10
5.768318639230159
 20
12.01397036657142
 30
0.0
 11
3.205818665343756
 21
12.01397037953805
 31
0.0
  0
LINE
  5
16C
330
1F
100
AcDbEntity
  8
0
100
AcDbLine
 10
5.7683186391601
 20
13.77647045108711
 30
0.0
 11
5.768318639230159
 21
12.01397036657142
 31
0.0
  0
LINE
  5
16D
330
1F
100
AcDbEntity
  8
0
100
AcDbLine
 10
-45.51293141432602
 20
12.01397036657144
 30
0.0
 11
-44.79418141432602
 21
12.01397036657144
 31
0.0
  0
LINE
  5
16E
330
1F
100
AcDbEntity
  8
0
100
AcDbLine
 10
-33.153556414326
 20
12.01397036657141
 30
0.0
 11
-44.79418141432602
 21
12.01397036657144
 31
0.0
  0
LINE
  5
16F
330
1F
100
AcDbEntity
  8
0
100
AcDbLine
 10
-33.153556414326
 20
12.01397036657141
 30
0.0
 11
-32.43480641432601
 21
12.01397036657144
 31
0.0
  0
LINE
  5
170
330
1F
100
AcDbEntity
  8
0
100
AcDbLine
 10
-19.87230638754794
 20
12.01397036657141
 30
0.0
 11
-32.43480641432601
 21
12.01397036657144
 31
0.0
  0
LINE
  5
171
330
1F
100
AcDbEntity
  8
0
100
AcDbLine
 10
-19.87230638754794
 20
12.01397036657141
 30
0.0
 11
-19.15355638754794
 21
12.01397036657144
 31
0.0
  0
LINE
  5
172
330
1F
100
AcDbEntity
  8
0
100
AcDbLine
 10
-6.591056360769876
 20
12.01397036389368
 30
0.0
 11
-19.15355638754794
 21
12.01397036657144
 31
0.0
  0
LINE
  5
173
330
1F
100
AcDbEntity
  8
0
100
AcDbLine
 10
-6.591056360769876
 20
12.01397036389368
 30
0.0
 11
-5.872306360769876
 21
12.01397036121597
 31
0.0
  0
LINE
  5
174
330
1F
100
AcDbEntity
  8
0
100
AcDbLine
 10
-6.591056359085499
 20
13.77647035085384
 30
0.0
 11
-5.872306359085499
 21
13.77647035085384
 31
0.0
  0
LINE
  5
175
330
1F
100
AcDbEntity
  8
0
100
AcDbLine
 10
-6.591056360769876
 20
12.01397036389368
 30
0.0
 11
-6.591056359085499
 21
13.77647035085384
 31
0.0
  0
LINE
  5
176
330
1F
100
AcDbEntity
  8
0
100
AcDbLine
 10
-5.872306360769876
 20
12.01397036121597
 30
0.0
 11
-5.872306359085499
 21
13.77647035085384
 31
0.0
  0
LINE
  5
177
330
1F
100
AcDbEntity
  8
0
100
AcDbLine
 10
-5.872306359085499
 20
13.77647035085384
 30
0.0
 11
2.487068639160064
 21
13.77647042323278
 31
0.0
  0
LINE
  5
178
330
1F
100
AcDbEntity
  8
0
100
AcDbLine
 10
-19.87230638761799
 20
13.7764703850188
 30
0.0
 11
-19.15355638761799
 21
13.7764703850188
 31
0.0
  0
LINE
  5
179
330
1F
100
AcDbEntity
  8
0
100
AcDbLine
 10
-19.87230638754794
 20
12.01397036657141
 30
0.0
 11
-19.87230638761799
 21
13.7764703850188
 31
0.0
  0
LINE
  5
17A
330
1F
100
AcDbEntity
  8
0
100
AcDbLine
 10
-19.15355638754794
 20
12.01397036657144
 30
0.0
 11
-19.15355638761799
 21
13.7764703850188
 31
0.0
  0
LINE
  5
17B
330
1F
100
AcDbEntity
  8
0
100
AcDbLine
 10
-19.15355638761799
 20
13.7764703850188
 30
0.0
 11
-6.591056359085499
 21
13.77647035085384
 31
0.0
  0
LINE
  5
17C
330
1F
100
AcDbEntity
  8
0
100
AcDbLine
 10
-33.15355641439606
 20
13.77647041738867
 30
0.0
 11
-32.43480641439606
 21
13.77647041738867
 31
0.0
  0
LINE
  5
17D
330
1F
100
AcDbEntity
  8
0
100
AcDbLine
 10
-33.153556414326
 20
12.01397036657141
 30
0.0
 11
-33.15355641439606
 21
13.77647041738867
 31
0.0
  0
LINE
  5
17E
330
1F
100
AcDbEntity
  8
0
100
AcDbLine
 10
-32.43480641432601
 20
12.01397036657144
 30
0.0
 11
-32.43480641439606
 21
13.77647041738867
 31
0.0
  0
LINE
  5
17F
330
1F
100
AcDbEntity
  8
0
100
AcDbLine
 10
-32.43480641439606
 20
13.77647041738867
 30
0.0
 11
-19.87230638761799
 21
13.7764703850188
 31
0.0
  0
LINE
  5
180
330
1F
100
AcDbEntity
  8
0
100
AcDbLine
 10
-45.51293141439608
 20
13.77647044912743
 30
0.0
 11
-44.79418141439608
 21
13.77647044912743
 31
0.0
  0
LINE
  5
181
330
1F
100
AcDbEntity
  8
0
100
AcDbLine
 10
-45.51293141432602
 20
12.01397036657144
 30
0.0
 11
-45.51293141439608
 21
13.77647044912743
 31
0.0
  0
LINE
  5
182
330
1F
100
AcDbEntity
  8
0
100
AcDbLine
 10
-44.79418141432602
 20
12.01397036657144
 30
0.0
 11
-44.79418141439608
 21
13.77647044912743
 31
0.0
  0
LINE
  5
183
330
1F
100
AcDbEntity
  8
0
100
AcDbLine
 10
-44.79418141439608
 20
13.77647044912743
 30
0.0
 11
-33.15355641439606
 21
13.77647041738867
 31
0.0
  0
LINE
  5
184
330
1F
100
AcDbEntity
  8
0
100
AcDbLine
 10
2.487068639160064
 20
13.77647042323278
 30
0.0
 11
3.205818639160064
 21
13.77647045466974
 31
0.0
  0
LINE
  5
185
330
1F
100
AcDbEntity
  8
0
100
AcDbLine
 10
3.205818639160064
 20
13.77647045466974
 30
0.0
 11
5.7683186391601
 21
13.77647045108711
 31
0.0
  0
LINE
  5
186
330
1F
100
AcDbEntity
  8
0
100
AcDbLine
 10
2.487068665343756
 20
12.01397039220584
 30
0.0
 11
3.205818665343756
 21
12.01397037953805
 31
0.0
  0
LINE
  5
187
330
1F
100
AcDbEntity
  8
0
100
AcDbLine
 10
3.205818639160064
 20
13.77647045466974
 30
0.0
 11
3.205818665343756
 21
12.01397037953805
 31
0.0
  0
LINE
  5
188
330
1F
100
AcDbEntity
  8
0
100
AcDbLine
 10
2.487068639160064
 20
13.77647042323278
 30
0.0
 11
2.487068665343756
 21
12.01397039220584
 31
0.0
  0
LINE
  5
189
330
1F
100
AcDbEntity
  8
0
100
AcDbLine
 10
2.487068665343756
 20
12.01397039220584
 30
0.0
 11
-5.872306360769876
 21
12.01397036121597
 31
0.0
  0
LINE
  5
18A
330
1F
100
AcDbEntity
  8
0
100
AcDbLine
 10
4.487068639230127
 20
9.251470377282361
 30
0.0
 11
-45.51293136076987
 21
9.251470377282377
 31
0.0
  0
LINE
  5
18B
330
1F
100
AcDbEntity
  8
0
100
AcDbLine
 10
4.487068639230127
 20
11.01397036657143
 30
0.0
 11
4.487068639230127
 21
9.251470377282361
 31
0.0
  0
LINE
  5
18C
330
1F
100
AcDbEntity
  8
0
100
AcDbLine
 10
-45.51293136076987
 20
11.01397036657145
 30
0.0
 11
4.487068639230127
 21
11.01397036657143
 31
0.0
  0
LINE
  5
18D
330
1F
100
AcDbEntity
  8
0
100
AcDbLine
 10
-45.51293136076987
 20
9.251470377282377
 30
0.0
 11
-45.51293136076987
 21
11.01397036657145
 31
0.0
  0
LINE
  5
18E
330
1F
100
AcDbEntity
  8
0
100
AcDbLine
 10
12.01206866752543
 20
19.71397054838751
 30
0.0
 11
12.01206866752543
 21
32.62647054838752
 31
0.0
  0
LINE
  5
18F
330
1F
100
AcDbEntity
  8
0
100
AcDbLine
 10
10.24956867823636
 20
19.71397054838751
 30
0.0
 11
12.01206866752543
 21
19.71397054838751
 31
0.0
  0
LINE
  5
190
330
1F
100
AcDbEntity
  8
0
100
AcDbLine
 10
10.24956867823636
 20
32.62647054838752
 30
0.0
 11
10.24956867823636
 21
19.71397054838751
 31
0.0
  0
LINE
  5
191
330
1F
100
AcDbEntity
  8
0
100
AcDbLine
 10
12.01206866752543
 20
32.62647054838752
 30
0.0
 11
10.24956867823636
 21
32.62647054838752
 31
0.0
  0
LINE
  5
192
330
1F
100
AcDbEntity
  8
0
100
AcDbLine
 10
9.249568688946582
 20
6.713970548387517
 30
0.0
 11
9.249568688946582
 21
19.62647054838752
 31
0.0
  0
LINE
  5
193
330
1F
100
AcDbEntity
  8
0
100
AcDbLine
 10
7.487068699657513
 20
6.713970548387517
 30
0.0
 11
9.249568688946582
 21
6.713970548387517
 31
0.0
  0
LINE
  5
194
330
1F
100
AcDbEntity
  8
0
100
AcDbLine
 10
7.487068699657513
 20
19.62647054838752
 30
0.0
 11
7.487068699657513
 21
6.713970548387517
 31
0.0
  0
LINE
  5
195
330
1F
100
AcDbEntity
  8
0
100
AcDbLine
 10
9.249568688946582
 20
19.62647054838752
 30
0.0
 11
7.487068699657513
 21
19.62647054838752
 31
0.0
  0
LINE
  5
196
330
1F
100
AcDbEntity
  8
0
100
AcDbLine
 10
4.487068585533862
 20
-44.7422794516124
 30
0.0
 11
3.205818585533862
 21
-44.7422794516124
 31
0.0
  0
LINE
  5
197
330
1F
100
AcDbEntity
  8
0
100
AcDbLine
 10
-44.79418146802229
 20
-44.7422794516124
 30
0.0
 11
-44.79418146802229
 21
-32.1797794516124
 31
0.0
  0
LINE
  5
198
330
1F
100
AcDbEntity
  8
0
100
AcDbLine
 10
-44.79418146802229
 20
-32.1797794516124
 30
0.0
 11
-33.15355646802228
 21
-32.1797794516124
 31
0.0
  0
LINE
  5
199
330
1F
100
AcDbEntity
  8
0
100
AcDbLine
 10
5.768318585533862
 20
-32.1797794516124
 30
0.0
 11
5.768318585533862
 21
-41.46102946742934
 31
0.0
  0
LINE
  5
19A
330
1F
100
AcDbEntity
  8
0
100
AcDbLine
 10
6.487068585533862
 20
-31.4610294516124
 30
0.0
 11
6.487068585533862
 21
-43.4610294516124
 31
0.0
  0
LINE
  5
19B
330
1F
100
AcDbEntity
  8
0
100
AcDbLine
 10
4.487068585533862
 20
-45.4610294516124
 30
0.0
 11
-45.51293146802229
 21
-45.4610294516124
 31
0.0
  0
LINE
  5
19C
330
1F
100
AcDbEntity
  8
0
100
AcDbLine
 10
-45.51293146802229
 20
-45.4610294516124
 30
0.0
 11
-45.51293146802229
 21
-31.4610294516124
 31
0.0
  0
LINE
  5
19D
330
1F
100
AcDbEntity
  8
0
100
AcDbLine
 10
-45.51293146802229
 20
-31.4610294516124
 30
0.0
 11
6.487068585533862
 21
-31.4610294516124
 31
0.0
  0
LINE
  5
19E
330
1F
100
AcDbEntity
  8
0
100
AcDbLine
 10
-33.15355646802228
 20
-44.7422794516124
 30
0.0
 11
-44.79418146802229
 21
-44.7422794516124
 31
0.0
  0
LINE
  5
19F
330
1F
100
AcDbEntity
  8
0
100
AcDbLine
 10
-33.15355646802228
 20
-32.1797794516124
 30
0.0
 11
-33.15355646802228
 21
-44.7422794516124
 31
0.0
  0
LINE
  5
1A0
330
1F
100
AcDbEntity
  8
0
100
AcDbLine
 10
-32.43480646802229
 20
-32.1797794516124
 30
0.0
 11
-19.87230644124421
 21
-32.1797794516124
 31
0.0
  0
LINE
  5
1A1
330
1F
100
AcDbEntity
  8
0
100
AcDbLine
 10
-32.43480646802229
 20
-44.7422794516124
 30
0.0
 11
-32.43480646802229
 21
-32.1797794516124
 31
0.0
  0
LINE
  5
1A2
330
1F
100
AcDbEntity
  8
0
100
AcDbLine
 10
-19.87230644124421
 20
-44.7422794516124
 30
0.0
 11
-32.43480646802229
 21
-44.7422794516124
 31
0.0
  0
LINE
  5
1A3
330
1F
100
AcDbEntity
  8
0
100
AcDbLine
 10
-19.87230644124421
 20
-32.1797794516124
 30
0.0
 11
-19.87230644124421
 21
-44.7422794516124
 31
0.0
  0
LINE
  5
1A4
330
1F
100
AcDbEntity
  8
0
100
AcDbLine
 10
-19.15355644124421
 20
-32.1797794516124
 30
0.0
 11
-6.591056412711723
 21
-32.1797794516124
 31
0.0
  0
LINE
  5
1A5
330
1F
100
AcDbEntity
  8
0
100
AcDbLine
 10
-19.15355644124421
 20
-44.7422794516124
 30
0.0
 11
-19.15355644124421
 21
-32.1797794516124
 31
0.0
  0
LINE
  5
1A6
330
1F
100
AcDbEntity
  8
0
100
AcDbLine
 10
-6.591056412711723
 20
-44.7422794516124
 30
0.0
 11
-19.15355644124421
 21
-44.7422794516124
 31
0.0
  0
LINE
  5
1A7
330
1F
100
AcDbEntity
  8
0
100
AcDbLine
 10
-6.591056412711723
 20
-32.1797794516124
 30
0.0
 11
-6.591056412711723
 21
-44.7422794516124
 31
0.0
  0
LINE
  5
1A8
330
1F
100
AcDbEntity
  8
0
100
AcDbLine
 10
-5.872306412711708
 20
-32.1797794516124
 30
0.0
 11
5.768318585533862
 21
-32.1797794516124
 31
0.0
  0
LINE
  5
1A9
330
1F
100
AcDbEntity
  8
0
100
AcDbLine
 10
-5.872306412711708
 20
-44.7422794516124
 30
0.0
 11
-5.872306412711708
 21
-32.1797794516124
 31
0.0
  0
LINE
  5
1AA
330
1F
100
AcDbEntity
  8
0
100
AcDbLine
 10
2.487068585533862
 20
-44.7422794516124
 30
0.0
 11
-5.872306412711708
 21
-44.7422794516124
 31
0.0
  0
LINE
  5
1AB
330
1F
100
AcDbEntity
  8
0
100
AcDbLine
 10
2.487068585533862
 20
-44.7422794516124
 30
0.0
 11
2.487068585533862
 21
-41.46102946742934
 31
0.0
  0
LINE
  5
1AC
330
1F
100
AcDbEntity
  8
0
100
AcDbLine
 10
2.487068585533862
 20
-41.46102946742934
 30
0.0
 11
5.768318585533862
 21
-41.46102946742934
 31
0.0
  0
LINE
  5
1AD
330
1F
100
AcDbEntity
  8
0
100
AcDbLine
 10
5.768318585533862
 20
-42.17977946742934
 30
0.0
 11
5.768318585533862
 21
-43.4610294516124
 31
0.0
  0
LINE
  5
1AE
330
1F
100
AcDbEntity
  8
0
100
AcDbLine
 10
5.768318585533862
 20
-42.17977946742934
 30
0.0
 11
3.205818585533862
 21
-42.17977946742934
 31
0.0
  0
LINE
  5
1AF
330
1F
100
AcDbEntity
  8
0
100
AcDbLine
 10
3.205818585533862
 20
-42.17977946742934
 30
0.0
 11
3.205818585533862
 21
-44.7422794516124
 31
0.0
  0
LINE
  5
1B0
330
1F
100
AcDbEntity
  8
0
100
AcDbLine
 10
5.237068585533862
 20
-43.4610294516124
 30
0.0
 11
5.211512955250654
 21
-43.6551437354393
 31
0.0
  0
LINE
  5
1B1
330
1F
100
AcDbEntity
  8
0
100
AcDbLine
 10
5.211512955250654
 20
-43.6551437354393
 30
0.0
 11
5.136587638372191
 21
-43.8360294516124
 31
0.0
  0
LINE
  5
1B2
330
1F
100
AcDbEntity
  8
0
100
AcDbLine
 10
5.136587638372191
 20
-43.8360294516124
 30
0.0
 11
5.017398671423763
 21
-43.99135953750232
 31
0.0
  0
LINE
  5
1B3
330
1F
100
AcDbEntity
  8
0
100
AcDbLine
 10
5.017398671423763
 20
-43.99135953750232
 30
0.0
 11
4.862068585533862
 21
-44.11054850445073
 31
0.0
  0
LINE
  5
1B4
330
1F
100
AcDbEntity
  8
0
100
AcDbLine
 10
4.862068585533862
 20
-44.11054850445073
 30
0.0
 11
4.681182869360754
 21
-44.1854738213292
 31
0.0
  0
LINE
  5
1B5
330
1F
100
AcDbEntity
  8
0
100
AcDbLine
 10
4.681182869360754
 20
-44.1854738213292
 30
0.0
 11
4.487068585533862
 21
-44.2110294516124
 31
0.0
  0
LINE
  5
1B6
330
1F
100
AcDbEntity
  8
0
100
AcDbLine
 10
4.487068585533862
 20
-44.2110294516124
 30
0.0
 11
4.29295430170697
 21
-44.1854738213292
 31
0.0
  0
LINE
  5
1B7
330
1F
100
AcDbEntity
  8
0
100
AcDbLine
 10
4.29295430170697
 20
-44.1854738213292
 30
0.0
 11
4.112068585533862
 21
-44.11054850445073
 31
0.0
  0
LINE
  5
1B8
330
1F
100
AcDbEntity
  8
0
100
AcDbLine
 10
4.112068585533862
 20
-44.11054850445073
 30
0.0
 11
3.956738499643947
 21
-43.99135953750232
 31
0.0
  0
LINE
  5
1B9
330
1F
100
AcDbEntity
  8
0
100
AcDbLine
 10
3.956738499643947
 20
-43.99135953750232
 30
0.0
 11
3.837549532695533
 21
-43.8360294516124
 31
0.0
  0
LINE
  5
1BA
330
1F
100
AcDbEntity
  8
0
100
AcDbLine
 10
3.837549532695533
 20
-43.8360294516124
 30
0.0
 11
3.762624215817056
 21
-43.6551437354393
 31
0.0
  0
LINE
  5
1BB
330
1F
100
AcDbEntity
  8
0
100
AcDbLine
 10
3.762624215817056
 20
-43.6551437354393
 30
0.0
 11
3.737068585533862
 21
-43.4610294516124
 31
0.0
  0
LINE
  5
1BC
330
1F
100
AcDbEntity
  8
0
100
AcDbLine
 10
3.737068585533862
 20
-43.4610294516124
 30
0.0
 11
3.762624215817056
 21
-43.26691516778551
 31
0.0
  0
LINE
  5
1BD
330
1F
100
AcDbEntity
  8
0
100
AcDbLine
 10
3.762624215817056
 20
-43.26691516778551
 30
0.0
 11
3.837549532695533
 21
-43.0860294516124
 31
0.0
  0
LINE
  5
1BE
330
1F
100
AcDbEntity
  8
0
100
AcDbLine
 10
3.837549532695533
 20
-43.0860294516124
 30
0.0
 11
3.956738499643947
 21
-42.9306993657225
 31
0.0
  0
LINE
  5
1BF
330
1F
100
AcDbEntity
  8
0
100
AcDbLine
 10
3.956738499643947
 20
-42.9306993657225
 30
0.0
 11
4.112068585533862
 21
-42.81151039877408
 31
0.0
  0
LINE
  5
1C0
330
1F
100
AcDbEntity
  8
0
100
AcDbLine
 10
4.112068585533862
 20
-42.81151039877408
 30
0.0
 11
4.29295430170697
 21
-42.7365850818956
 31
0.0
  0
LINE
  5
1C1
330
1F
100
AcDbEntity
  8
0
100
AcDbLine
 10
4.29295430170697
 20
-42.7365850818956
 30
0.0
 11
4.487068585533862
 21
-42.7110294516124
 31
0.0
  0
LINE
  5
1C2
330
1F
100
AcDbEntity
  8
0
100
AcDbLine
 10
4.487068585533862
 20
-42.7110294516124
 30
0.0
 11
4.681182869360754
 21
-42.7365850818956
 31
0.0
  0
LINE
  5
1C3
330
1F
100
AcDbEntity
  8
0
100
AcDbLine
 10
4.681182869360754
 20
-42.7365850818956
 30
0.0
 11
4.862068585533862
 21
-42.81151039877408
 31
0.0
  0
LINE
  5
1C4
330
1F
100
AcDbEntity
  8
0
100
AcDbLine
 10
4.862068585533862
 20
-42.81151039877408
 30
0.0
 11
5.017398671423763
 21
-42.93069936572249
 31
0.0
  0
LINE
  5
1C5
330
1F
100
AcDbEntity
  8
0
100
AcDbLine
 10
5.017398671423763
 20
-42.93069936572249
 30
0.0
 11
5.136587638372191
 21
-43.0860294516124
 31
0.0
  0
LINE
  5
1C6
330
1F
100
AcDbEntity
  8
0
100
AcDbLine
 10
5.136587638372191
 20
-43.0860294516124
 30
0.0
 11
5.211512955250654
 21
-43.26691516778551
 31
0.0
  0
LINE
  5
1C7
330
1F
100
AcDbEntity
  8
0
100
AcDbLine
 10
5.211512955250654
 20
-43.26691516778551
 30
0.0
 11
5.237068585533862
 21
-43.4610294516124
 31
0.0
  0
LINE
  5
1C8
330
1F
100
AcDbEntity
  8
0
100
AcDbLine
 10
4.487068585533862
 20
-44.7422794516124
 30
0.0
 11
4.654305269315799
 21
-44.7313181802476
 31
0.0
  0
LINE
  5
1C9
330
1F
100
AcDbEntity
  8
0
100
AcDbLine
 10
4.654305269315799
 20
-44.7313181802476
 30
0.0
 11
4.818680487071475
 21
-44.69862191654527
 31
0.0
  0
LINE
  5
1CA
330
1F
100
AcDbEntity
  8
0
100
AcDbLine
 10
4.818680487071475
 20
-44.69862191654527
 30
0.0
 11
4.977381733251633
 21
-44.64475010264249
 31
0.0
  0
LINE
  5
1CB
330
1F
100
AcDbEntity
  8
0
100
AcDbLine
 10
4.977381733251633
 20
-44.64475010264249
 30
0.0
 11
5.127693585533862
 21
-44.57062450021122
 31
0.0
  0
LINE
  5
1CC
330
1F
100
AcDbEntity
  8
0
100
AcDbLine
 10
5.127693585533862
 20
-44.57062450021122
 30
0.0
 11
5.267044166451285
 21
-44.47751341886055
 31
0.0
  0
LINE
  5
1CD
330
1F
100
AcDbEntity
  8
0
100
AcDbLine
 10
5.267044166451285
 20
-44.47751341886055
 30
0.0
 11
5.393049148929123
 21
-44.36701001500766
 31
0.0
  0
LINE
  5
1CE
330
1F
100
AcDbEntity
  8
0
100
AcDbLine
 10
5.393049148929123
 20
-44.36701001500766
 30
0.0
 11
5.503552552781997
 21
-44.24100503252983
 31
0.0
  0
LINE
  5
1CF
330
1F
100
AcDbEntity
  8
0
100
AcDbLine
 10
5.503552552781997
 20
-44.24100503252983
 30
0.0
 11
5.596663634132682
 21
-44.1016544516124
 31
0.0
  0
LINE
  5
1D0
330
1F
100
AcDbEntity
  8
0
100
AcDbLine
 10
5.596663634132682
 20
-44.1016544516124
 30
0.0
 11
5.670789236563948
 21
-43.95134259933018
 31
0.0
  0
LINE
  5
1D1
330
1F
100
AcDbEntity
  8
0
100
AcDbLine
 10
5.670789236563948
 20
-43.95134259933018
 30
0.0
 11
5.724661050466736
 21
-43.79264135315001
 31
0.0
  0
LINE
  5
1D2
330
1F
100
AcDbEntity
  8
0
100
AcDbLine
 10
5.724661050466736
 20
-43.79264135315001
 30
0.0
 11
5.757357314169056
 21
-43.62826613539435
 31
0.0
  0
LINE
  5
1D3
330
1F
100
AcDbEntity
  8
0
100
AcDbLine
 10
5.757357314169056
 20
-43.62826613539435
 30
0.0
 11
5.768318585533862
 21
-43.4610294516124
 31
0.0
  0
LINE
  5
1D4
330
1F
100
AcDbEntity
  8
0
100
AcDbLine
 10
4.748120969973968
 20
-45.44391917436002
 30
0.0
 11
4.487068585533862
 21
-45.4610294516124
 31
0.0
  0
LINE
  5
1D5
330
1F
100
AcDbEntity
  8
0
100
AcDbLine
 10
5.004706675738902
 20
-45.39288110419054
 30
0.0
 11
4.748120969973968
 21
-45.44391917436002
 31
0.0
  0
LINE
  5
1D6
330
1F
100
AcDbEntity
  8
0
100
AcDbLine
 10
5.252435450264045
 20
-45.30878851663498
 30
0.0
 11
5.004706675738902
 21
-45.39288110419054
 31
0.0
  0
LINE
  5
1D7
330
1F
100
AcDbEntity
  8
0
100
AcDbLine
 10
5.487068585533862
 20
-45.19308025918128
 30
0.0
 11
5.252435450264045
 21
-45.30878851663498
 31
0.0
  0
LINE
  5
1D8
330
1F
100
AcDbEntity
  8
0
100
AcDbLine
 10
5.704591443551308
 20
-45.04773613219488
 30
0.0
 11
5.487068585533862
 21
-45.19308025918128
 31
0.0
  0
LINE
  5
1D9
330
1F
100
AcDbEntity
  8
0
100
AcDbLine
 10
5.901282147906954
 20
-44.8752430139855
 30
0.0
 11
5.704591443551308
 21
-45.04773613219488
 31
0.0
  0
LINE
  5
1DA
330
1F
100
AcDbEntity
  8
0
100
AcDbLine
 10
6.073775266116328
 20
-44.67855230962985
 30
0.0
 11
5.901282147906954
 21
-44.8752430139855
 31
0.0
  0
LINE
  5
1DB
330
1F
100
AcDbEntity
  8
0
100
AcDbLine
 10
6.219119393102744
 20
-44.4610294516124
 30
0.0
 11
6.073775266116328
 21
-44.67855230962985
 31
0.0
  0
LINE
  5
1DC
330
1F
100
AcDbEntity
  8
0
100
AcDbLine
 10
6.334827650556434
 20
-44.22639631634259
 30
0.0
 11
6.219119393102744
 21
-44.4610294516124
 31
0.0
  0
LINE
  5
1DD
330
1F
100
AcDbEntity
  8
0
100
AcDbLine
 10
6.418920238111994
 20
-43.97866754181744
 30
0.0
 11
6.334827650556434
 21
-44.22639631634259
 31
0.0
  0
LINE
  5
1DE
330
1F
100
AcDbEntity
  8
0
100
AcDbLine
 10
6.469958308281477
 20
-43.72208183605251
 30
0.0
 11
6.418920238111994
 21
-43.97866754181744
 31
0.0
  0
LINE
  5
1DF
330
1F
100
AcDbEntity
  8
0
100
AcDbLine
 10
6.487068585533862
 20
-43.4610294516124
 30
0.0
 11
6.469958308281477
 21
-43.72208183605251
 31
0.0
  0
LINE
  5
1E0
330
1F
100
AcDbEntity
  8
0
100
AcDbLine
 10
5.768318585533862
 20
-43.4610294516124
 30
0.0
 11
6.487068585533862
 21
-43.4610294516124
 31
0.0
  0
LINE
  5
1E1
330
1F
100
AcDbEntity
  8
0
100
AcDbLine
 10
4.487068585533862
 20
-45.4610294516124
 30
0.0
 11
4.487068585533862
 21
-44.7422794516124
 31
0.0
  0
LINE
  5
1E2
330
1F
100
AcDbEntity
  8
0
100
AcDbLine
 10
-41.95043137313453
 20
3.726470370385929
 30
0.0
 11
-29.03793137313453
 21
3.726470370392078
 31
0.0
  0
LINE
  5
1E3
330
1F
100
AcDbEntity
  8
0
100
AcDbLine
 10
-41.95043137313537
 20
5.488970359674997
 30
0.0
 11
-41.95043137313453
 21
3.726470370385929
 31
0.0
  0
LINE
  5
1E4
330
1F
100
AcDbEntity
  8
0
100
AcDbLine
 10
-29.03793137313537
 20
5.488970359681147
 30
0.0
 11
-41.95043137313537
 21
5.488970359674997
 31
0.0
  0
LINE
  5
1E5
330
1F
100
AcDbEntity
  8
0
100
AcDbLine
 10
-29.03793137313453
 20
3.726470370392078
 30
0.0
 11
-29.03793137313537
 21
5.488970359681147
 31
0.0
  0
LINE
  5
1E6
330
1F
100
AcDbEntity
  8
0
100
AcDbLine
 10
-14.12543138384475
 20
3.726470562803539
 30
0.0
 11
-1.212931383844746
 21
3.726470755222464
 31
0.0
  0
LINE
  5
1E7
330
1F
100
AcDbEntity
  8
0
100
AcDbLine
 10
-14.12543141010909
 20
5.488970552092608
 30
0.0
 11
-14.12543138384475
 21
3.726470562803539
 31
0.0
  0
LINE
  5
1E8
330
1F
100
AcDbEntity
  8
0
100
AcDbLine
 10
-1.212931410109091
 20
5.488970744511532
 30
0.0
 11
-14.12543141010909
 21
5.488970552092608
 31
0.0
  0
LINE
  5
1E9
330
1F
100
AcDbEntity
  8
0
100
AcDbLine
 10
-1.212931383844746
 20
3.726470755222464
 30
0.0
 11
-1.212931410109091
 21
5.488970744511532
 31
0.0
  0
LINE
  5
1EA
330
1F
100
AcDbEntity
  8
0
100
AcDbLine
 10
6.487068585533862
 20
32.53897054838755
 30
0.0
 11
6.487068585533862
 21
44.53897054838756
 31
0.0
  0
LINE
  5
1EB
330
1F
100
AcDbEntity
  8
0
100
AcDbLine
 10
-45.51293146802229
 20
46.53897054838755
 30
0.0
 11
-45.51293146802229
 21
32.53897054838755
 31
0.0
  0
LINE
  5
1EC
330
1F
100
AcDbEntity
  8
0
100
AcDbLine
 10
-45.51293146802229
 20
32.53897054838755
 30
0.0
 11
6.487068585533862
 21
32.53897054838755
 31
0.0
  0
LINE
  5
1ED
330
1F
100
AcDbEntity
  8
0
100
AcDbLine
 10
4.487068585533862
 20
45.8202205374343
 30
0.0
 11
3.205818585533862
 21
45.8202205374343
 31
0.0
  0
LINE
  5
1EE
330
1F
100
AcDbEntity
  8
0
100
AcDbLine
 10
-44.79418146802229
 20
45.8202205374343
 30
0.0
 11
-44.79418146802229
 21
33.2577205374343
 31
0.0
  0
LINE
  5
1EF
330
1F
100
AcDbEntity
  8
0
100
AcDbLine
 10
-44.79418146802229
 20
33.2577205374343
 30
0.0
 11
-33.15355646802228
 21
33.2577205374343
 31
0.0
  0
LINE
  5
1F0
330
1F
100
AcDbEntity
  8
0
100
AcDbLine
 10
5.768318585533862
 20
33.25772053743429
 30
0.0
 11
5.768318585533862
 21
42.53897055325123
 31
0.0
  0
LINE
  5
1F1
330
1F
100
AcDbEntity
  8
0
100
AcDbLine
 10
4.487068585533862
 20
46.53897054276806
 30
0.0
 11
-45.51293146802229
 21
46.53897054838755
 31
0.0
  0
LINE
  5
1F2
330
1F
100
AcDbEntity
  8
0
100
AcDbLine
 10
6.487068585533862
 20
44.53897054838756
 30
0.0
 11
6.469958308281477
 21
44.80002293282766
 31
0.0
  0
LINE
  5
1F3
330
1F
100
AcDbEntity
  8
0
100
AcDbLine
 10
6.469958308281477
 20
44.80002293282766
 30
0.0
 11
6.418920238111994
 21
45.0566086385926
 31
0.0
  0
LINE
  5
1F4
330
1F
100
AcDbEntity
  8
0
100
AcDbLine
 10
6.418920238111994
 20
45.0566086385926
 30
0.0
 11
6.334827650556434
 21
45.30433741311774
 31
0.0
  0
LINE
  5
1F5
330
1F
100
AcDbEntity
  8
0
100
AcDbLine
 10
6.334827650556434
 20
45.30433741311774
 30
0.0
 11
6.219119393102744
 21
45.53897054838756
 31
0.0
  0
LINE
  5
1F6
330
1F
100
AcDbEntity
  8
0
100
AcDbLine
 10
6.219119393102744
 20
45.53897054838756
 30
0.0
 11
6.073775266116328
 21
45.756493406405
 31
0.0
  0
LINE
  5
1F7
330
1F
100
AcDbEntity
  8
0
100
AcDbLine
 10
6.073775266116328
 20
45.756493406405
 30
0.0
 11
5.901282147906954
 21
45.95318411076065
 31
0.0
  0
LINE
  5
1F8
330
1F
100
AcDbEntity
  8
0
100
AcDbLine
 10
5.901282147906954
 20
45.95318411076065
 30
0.0
 11
5.704591443551308
 21
46.12567722897003
 31
0.0
  0
LINE
  5
1F9
330
1F
100
AcDbEntity
  8
0
100
AcDbLine
 10
5.704591443551308
 20
46.12567722897003
 30
0.0
 11
5.487068585533862
 21
46.27102135595644
 31
0.0
  0
LINE
  5
1FA
330
1F
100
AcDbEntity
  8
0
100
AcDbLine
 10
5.487068585533862
 20
46.27102135595644
 30
0.0
 11
5.252435450264045
 21
46.38672961341013
 31
0.0
  0
LINE
  5
1FB
330
1F
100
AcDbEntity
  8
0
100
AcDbLine
 10
5.252435450264045
 20
46.38672961341013
 30
0.0
 11
5.004706675738902
 21
46.47082220096569
 31
0.0
  0
LINE
  5
1FC
330
1F
100
AcDbEntity
  8
0
100
AcDbLine
 10
5.004706675738902
 20
46.47082220096569
 30
0.0
 11
4.748120969973968
 21
46.52186027113517
 31
0.0
  0
LINE
  5
1FD
330
1F
100
AcDbEntity
  8
0
100
AcDbLine
 10
4.748120969973968
 20
46.52186027113517
 30
0.0
 11
4.487068585533862
 21
46.53897054276806
 31
0.0
  0
LINE
  5
1FE
330
1F
100
AcDbEntity
  8
0
100
AcDbLine
 10
-33.15355646802228
 20
45.8202205374343
 30
0.0
 11
-44.79418146802229
 21
45.8202205374343
 31
0.0
  0
LINE
  5
1FF
330
1F
100
AcDbEntity
  8
0
100
AcDbLine
 10
-33.15355646802228
 20
33.2577205374343
 30
0.0
 11
-33.15355646802228
 21
45.8202205374343
 31
0.0
  0
LINE
  5
200
330
1F
100
AcDbEntity
  8
0
100
AcDbLine
 10
-32.43480646802229
 20
33.2577205374343
 30
0.0
 11
-19.87230644124421
 21
33.25772053743429
 31
0.0
  0
LINE
  5
201
330
1F
100
AcDbEntity
  8
0
100
AcDbLine
 10
-32.43480646802229
 20
45.8202205374343
 30
0.0
 11
-32.43480646802229
 21
33.2577205374343
 31
0.0
  0
LINE
  5
202
330
1F
100
AcDbEntity
  8
0
100
AcDbLine
 10
-19.87230644124421
 20
45.8202205374343
 30
0.0
 11
-32.43480646802229
 21
45.8202205374343
 31
0.0
  0
LINE
  5
203
330
1F
100
AcDbEntity
  8
0
100
AcDbLine
 10
-19.87230644124421
 20
33.25772053743429
 30
0.0
 11
-19.87230644124421
 21
45.8202205374343
 31
0.0
  0
LINE
  5
204
330
1F
100
AcDbEntity
  8
0
100
AcDbLine
 10
-19.15355644124421
 20
33.25772053743429
 30
0.0
 11
-6.591056412711723
 21
33.25772053743429
 31
0.0
  0
LINE
  5
205
330
1F
100
AcDbEntity
  8
0
100
AcDbLine
 10
-19.15355644124421
 20
45.8202205374343
 30
0.0
 11
-19.15355644124421
 21
33.25772053743429
 31
0.0
  0
LINE
  5
206
330
1F
100
AcDbEntity
  8
0
100
AcDbLine
 10
-6.591056412711723
 20
45.8202205374343
 30
0.0
 11
-19.15355644124421
 21
45.8202205374343
 31
0.0
  0
LINE
  5
207
330
1F
100
AcDbEntity
  8
0
100
AcDbLine
 10
-6.591056412711723
 20
33.25772053743429
 30
0.0
 11
-6.591056412711723
 21
45.8202205374343
 31
0.0
  0
LINE
  5
208
330
1F
100
AcDbEntity
  8
0
100
AcDbLine
 10
-5.872306412711708
 20
33.25772053743429
 30
0.0
 11
5.768318585533862
 21
33.25772053743429
 31
0.0
  0
LINE
  5
209
330
1F
100
AcDbEntity
  8
0
100
AcDbLine
 10
-5.872306412711708
 20
45.8202205374343
 30
0.0
 11
-5.872306412711708
 21
33.25772053743429
 31
0.0
  0
LINE
  5
20A
330
1F
100
AcDbEntity
  8
0
100
AcDbLine
 10
2.487068585533862
 20
45.8202205374343
 30
0.0
 11
-5.872306412711708
 21
45.8202205374343
 31
0.0
  0
LINE
  5
20B
330
1F
100
AcDbEntity
  8
0
100
AcDbLine
 10
2.487068585533862
 20
45.8202205374343
 30
0.0
 11
2.487068585533862
 21
42.53897055325123
 31
0.0
  0
LINE
  5
20C
330
1F
100
AcDbEntity
  8
0
100
AcDbLine
 10
2.487068585533862
 20
42.53897055325123
 30
0.0
 11
5.768318585533862
 21
42.53897055325123
 31
0.0
  0
LINE
  5
20D
330
1F
100
AcDbEntity
  8
0
100
AcDbLine
 10
5.768318585533862
 20
43.25772055325123
 30
0.0
 11
5.768318585533862
 21
44.5389705374343
 31
0.0
  0
LINE
  5
20E
330
1F
100
AcDbEntity
  8
0
100
AcDbLine
 10
5.768318585533862
 20
43.25772055325123
 30
0.0
 11
3.205818585533862
 21
43.25772055325123
 31
0.0
  0
LINE
  5
20F
330
1F
100
AcDbEntity
  8
0
100
AcDbLine
 10
3.205818585533862
 20
43.25772055325123
 30
0.0
 11
3.205818585533862
 21
45.8202205374343
 31
0.0
  0
LINE
  5
210
330
1F
100
AcDbEntity
  8
0
100
AcDbLine
 10
5.237068585533862
 20
44.5389705374343
 30
0.0
 11
5.211512955250654
 21
44.73308482126119
 31
0.0
  0
LINE
  5
211
330
1F
100
AcDbEntity
  8
0
100
AcDbLine
 10
5.211512955250654
 20
44.73308482126119
 30
0.0
 11
5.136587638372191
 21
44.9139705374343
 31
0.0
  0
LINE
  5
212
330
1F
100
AcDbEntity
  8
0
100
AcDbLine
 10
5.136587638372191
 20
44.9139705374343
 30
0.0
 11
5.017398671423763
 21
45.06930062332421
 31
0.0
  0
LINE
  5
213
330
1F
100
AcDbEntity
  8
0
100
AcDbLine
 10
5.017398671423763
 20
45.06930062332421
 30
0.0
 11
4.862068585533862
 21
45.18848959027262
 31
0.0
  0
LINE
  5
214
330
1F
100
AcDbEntity
  8
0
100
AcDbLine
 10
4.862068585533862
 20
45.18848959027262
 30
0.0
 11
4.681182869360754
 21
45.26341490715109
 31
0.0
  0
LINE
  5
215
330
1F
100
AcDbEntity
  8
0
100
AcDbLine
 10
4.681182869360754
 20
45.26341490715109
 30
0.0
 11
4.487068585533862
 21
45.2889705374343
 31
0.0
  0
LINE
  5
216
330
1F
100
AcDbEntity
  8
0
100
AcDbLine
 10
4.487068585533862
 20
45.2889705374343
 30
0.0
 11
4.29295430170697
 21
45.26341490715109
 31
0.0
  0
LINE
  5
217
330
1F
100
AcDbEntity
  8
0
100
AcDbLine
 10
4.29295430170697
 20
45.26341490715109
 30
0.0
 11
4.112068585533862
 21
45.18848959027262
 31
0.0
  0
LINE
  5
218
330
1F
100
AcDbEntity
  8
0
100
AcDbLine
 10
4.112068585533862
 20
45.18848959027262
 30
0.0
 11
3.956738499643947
 21
45.06930062332421
 31
0.0
  0
LINE
  5
219
330
1F
100
AcDbEntity
  8
0
100
AcDbLine
 10
3.956738499643947
 20
45.06930062332421
 30
0.0
 11
3.837549532695533
 21
44.9139705374343
 31
0.0
  0
LINE
  5
21A
330
1F
100
AcDbEntity
  8
0
100
AcDbLine
 10
3.837549532695533
 20
44.9139705374343
 30
0.0
 11
3.762624215817056
 21
44.73308482126119
 31
0.0
  0
LINE
  5
21B
330
1F
100
AcDbEntity
  8
0
100
AcDbLine
 10
3.762624215817056
 20
44.73308482126119
 30
0.0
 11
3.737068585533862
 21
44.5389705374343
 31
0.0
  0
LINE
  5
21C
330
1F
100
AcDbEntity
  8
0
100
AcDbLine
 10
3.737068585533862
 20
44.5389705374343
 30
0.0
 11
3.762624215817056
 21
44.3448562536074
 31
0.0
  0
LINE
  5
21D
330
1F
100
AcDbEntity
  8
0
100
AcDbLine
 10
3.762624215817056
 20
44.3448562536074
 30
0.0
 11
3.837549532695533
 21
44.1639705374343
 31
0.0
  0
LINE
  5
21E
330
1F
100
AcDbEntity
  8
0
100
AcDbLine
 10
3.837549532695533
 20
44.1639705374343
 30
0.0
 11
3.956738499643947
 21
44.00864045154439
 31
0.0
  0
LINE
  5
21F
330
1F
100
AcDbEntity
  8
0
100
AcDbLine
 10
3.956738499643947
 20
44.00864045154439
 30
0.0
 11
4.112068585533862
 21
43.88945148459597
 31
0.0
  0
LINE
  5
220
330
1F
100
AcDbEntity
  8
0
100
AcDbLine
 10
4.112068585533862
 20
43.88945148459597
 30
0.0
 11
4.29295430170697
 21
43.8145261677175
 31
0.0
  0
LINE
  5
221
330
1F
100
AcDbEntity
  8
0
100
AcDbLine
 10
4.29295430170697
 20
43.8145261677175
 30
0.0
 11
4.487068585533862
 21
43.7889705374343
 31
0.0
  0
LINE
  5
222
330
1F
100
AcDbEntity
  8
0
100
AcDbLine
 10
4.487068585533862
 20
43.7889705374343
 30
0.0
 11
4.681182869360754
 21
43.8145261677175
 31
0.0
  0
LINE
  5
223
330
1F
100
AcDbEntity
  8
0
100
AcDbLine
 10
4.681182869360754
 20
43.8145261677175
 30
0.0
 11
4.862068585533862
 21
43.88945148459597
 31
0.0
  0
LINE
  5
224
330
1F
100
AcDbEntity
  8
0
100
AcDbLine
 10
4.862068585533862
 20
43.88945148459597
 30
0.0
 11
5.017398671423763
 21
44.00864045154439
 31
0.0
  0
LINE
  5
225
330
1F
100
AcDbEntity
  8
0
100
AcDbLine
 10
5.017398671423763
 20
44.00864045154439
 30
0.0
 11
5.136587638372191
 21
44.1639705374343
 31
0.0
  0
LINE
  5
226
330
1F
100
AcDbEntity
  8
0
100
AcDbLine
 10
5.136587638372191
 20
44.1639705374343
 30
0.0
 11
5.211512955250654
 21
44.3448562536074
 31
0.0
  0
LINE
  5
227
330
1F
100
AcDbEntity
  8
0
100
AcDbLine
 10
5.211512955250654
 20
44.3448562536074
 30
0.0
 11
5.237068585533862
 21
44.5389705374343
 31
0.0
  0
LINE
  5
228
330
1F
100
AcDbEntity
  8
0
100
AcDbLine
 10
4.487068585533862
 20
45.8202205374343
 30
0.0
 11
4.654305269315799
 21
45.80925926606949
 31
0.0
  0
LINE
  5
229
330
1F
100
AcDbEntity
  8
0
100
AcDbLine
 10
4.654305269315799
 20
45.80925926606949
 30
0.0
 11
4.818680487071475
 21
45.77656300236716
 31
0.0
  0
LINE
  5
22A
330
1F
100
AcDbEntity
  8
0
100
AcDbLine
 10
4.818680487071475
 20
45.77656300236716
 30
0.0
 11
4.977381733251633
 21
45.72269118846438
 31
0.0
  0
LINE
  5
22B
330
1F
100
AcDbEntity
  8
0
100
AcDbLine
 10
4.977381733251633
 20
45.72269118846438
 30
0.0
 11
5.127693585533862
 21
45.64856558603311
 31
0.0
  0
LINE
  5
22C
330
1F
100
AcDbEntity
  8
0
100
AcDbLine
 10
5.127693585533862
 20
45.64856558603311
 30
0.0
 11
5.267044166451285
 21
45.55545450468244
 31
0.0
  0
LINE
  5
22D
330
1F
100
AcDbEntity
  8
0
100
AcDbLine
 10
5.267044166451285
 20
45.55545450468244
 30
0.0
 11
5.393049148929123
 21
45.44495110082956
 31
0.0
  0
LINE
  5
22E
330
1F
100
AcDbEntity
  8
0
100
AcDbLine
 10
5.393049148929123
 20
45.44495110082956
 30
0.0
 11
5.503552552781997
 21
45.31894611835172
 31
0.0
  0
LINE
  5
22F
330
1F
100
AcDbEntity
  8
0
100
AcDbLine
 10
5.503552552781997
 20
45.31894611835172
 30
0.0
 11
5.596663634132682
 21
45.1795955374343
 31
0.0
  0
LINE
  5
230
330
1F
100
AcDbEntity
  8
0
100
AcDbLine
 10
5.596663634132682
 20
45.1795955374343
 30
0.0
 11
5.670789236563948
 21
45.02928368515207
 31
0.0
  0
LINE
  5
231
330
1F
100
AcDbEntity
  8
0
100
AcDbLine
 10
5.670789236563948
 20
45.02928368515207
 30
0.0
 11
5.724661050466736
 21
44.8705824389719
 31
0.0
  0
LINE
  5
232
330
1F
100
AcDbEntity
  8
0
100
AcDbLine
 10
5.724661050466736
 20
44.8705824389719
 30
0.0
 11
5.757357314169056
 21
44.70620722121624
 31
0.0
  0
LINE
  5
233
330
1F
100
AcDbEntity
  8
0
100
AcDbLine
 10
5.757357314169056
 20
44.70620722121624
 30
0.0
 11
5.768318585533862
 21
44.5389705374343
 31
0.0
  0
LINE
  5
234
330
1F
100
AcDbEntity
  8
0
100
AcDbLine
 10
5.768318585533862
 20
44.5389705374343
 30
0.0
 11
6.487068585533862
 21
44.53897054838756
 31
0.0
  0
LINE
  5
235
330
1F
100
AcDbEntity
  8
0
100
AcDbLine
 10
4.487068585533862
 20
46.53897054276806
 30
0.0
 11
4.487068585533862
 21
45.8202205374343
 31
0.0
  0
LINE
  5
236
330
1F
100
AcDbEntity
  8
0
100
AcDbLine
 10
13.01206867825408
 20
6.538970548387553
 30
0.0
 11
23.01206867825408
 21
6.538970548392165
 31
0.0
  0
LINE
  5
237
330
1F
100
AcDbEntity
  8
0
100
AcDbLine
 10
24.29331867825316
 20
8.538970548392513
 30
0.0
 11
24.29331867824821
 21
19.25772049308194
 31
0.0
  0
LINE
  5
238
330
1F
100
AcDbEntity
  8
0
100
AcDbLine
 10
13.73081867825374
 20
7.257720548387645
 30
0.0
 11
23.01206867825375
 21
7.257720548391923
 31
0.0
  0
LINE
  5
239
330
1F
100
AcDbEntity
  8
0
100
AcDbLine
 10
25.01206867825316
 20
8.538970548392967
 30
0.0
 11
25.01206867823563
 21
46.53897054839297
 31
0.0
  0
LINE
  5
23A
330
1F
100
AcDbEntity
  8
0
100
AcDbLine
 10
23.01206867825408
 20
6.538970548392165
 30
0.0
 11
23.27312106269418
 21
6.556080825644671
 31
0.0
  0
LINE
  5
23B
330
1F
100
AcDbEntity
  8
0
100
AcDbLine
 10
23.27312106269418
 20
6.556080825644671
 30
0.0
 11
23.52970676845909
 21
6.607118895814274
 31
0.0
  0
LINE
  5
23C
330
1F
100
AcDbEntity
  8
0
100
AcDbLine
 10
23.52970676845909
 20
6.607118895814274
 30
0.0
 11
23.77743554298419
 21
6.691211483369948
 31
0.0
  0
LINE
  5
23D
330
1F
100
AcDbEntity
  8
0
100
AcDbLine
 10
23.77743554298419
 20
6.691211483369948
 30
0.0
 11
24.01206867825396
 21
6.806919740823744
 31
0.0
  0
LINE
  5
23E
330
1F
100
AcDbEntity
  8
0
100
AcDbLine
 10
24.01206867825396
 20
6.806919740823744
 30
0.0
 11
24.22959153627133
 21
6.95226386781026
 31
0.0
  0
LINE
  5
23F
330
1F
100
AcDbEntity
  8
0
100
AcDbLine
 10
24.22959153627133
 20
6.95226386781026
 30
0.0
 11
24.42628224062691
 21
7.124756986019726
 31
0.0
  0
LINE
  5
240
330
1F
100
AcDbEntity
  8
0
100
AcDbLine
 10
24.42628224062691
 20
7.124756986019726
 30
0.0
 11
24.59877535883619
 21
7.32144769037545
 31
0.0
  0
LINE
  5
241
330
1F
100
AcDbEntity
  8
0
100
AcDbLine
 10
24.59877535883619
 20
7.32144769037545
 30
0.0
 11
24.74411948582249
 21
7.538970548392967
 31
0.0
  0
LINE
  5
242
330
1F
100
AcDbEntity
  8
0
100
AcDbLine
 10
24.74411948582249
 20
7.538970548392967
 30
0.0
 11
24.85982774327609
 21
7.773603683662834
 31
0.0
  0
LINE
  5
243
330
1F
100
AcDbEntity
  8
0
100
AcDbLine
 10
24.85982774327609
 20
7.773603683662834
 30
0.0
 11
24.94392033083153
 21
8.02133245818802
 31
0.0
  0
LINE
  5
244
330
1F
100
AcDbEntity
  8
0
100
AcDbLine
 10
24.94392033083153
 20
8.02133245818802
 30
0.0
 11
24.99495840100089
 21
8.277918163952975
 31
0.0
  0
LINE
  5
245
330
1F
100
AcDbEntity
  8
0
100
AcDbLine
 10
24.99495840100089
 20
8.277918163952975
 30
0.0
 11
25.01206867825316
 21
8.538970548392967
 31
0.0
  0
LINE
  5
246
330
1F
100
AcDbEntity
  8
0
100
AcDbLine
 10
13.73081867823596
 20
45.82022054838765
 30
0.0
 11
13.73081867824175
 21
33.25772052160957
 31
0.0
  0
LINE
  5
247
330
1F
100
AcDbEntity
  8
0
100
AcDbLine
 10
24.29331867823596
 20
45.82022054839252
 30
0.0
 11
13.73081867823596
 21
45.82022054838765
 31
0.0
  0
LINE
  5
248
330
1F
100
AcDbEntity
  8
0
100
AcDbLine
 10
24.29331867824175
 20
33.25772052161444
 30
0.0
 11
24.29331867823596
 21
45.82022054839252
 31
0.0
  0
LINE
  5
249
330
1F
100
AcDbEntity
  8
0
100
AcDbLine
 10
13.73081867824175
 20
33.25772052160957
 30
0.0
 11
24.29331867824175
 21
33.25772052161444
 31
0.0
  0
LINE
  5
24A
330
1F
100
AcDbEntity
  8
0
100
AcDbLine
 10
13.73081867824208
 20
32.53897052160957
 30
0.0
 11
13.73081867824787
 21
19.97647049307709
 31
0.0
  0
LINE
  5
24B
330
1F
100
AcDbEntity
  8
0
100
AcDbLine
 10
24.29331867824209
 20
32.53897052161444
 30
0.0
 11
13.73081867824208
 21
32.53897052160957
 31
0.0
  0
LINE
  5
24C
330
1F
100
AcDbEntity
  8
0
100
AcDbLine
 10
24.29331867824788
 20
19.97647049308195
 30
0.0
 11
24.29331867824209
 21
32.53897052161444
 31
0.0
  0
LINE
  5
24D
330
1F
100
AcDbEntity
  8
0
100
AcDbLine
 10
13.73081867824787
 20
19.97647049307709
 30
0.0
 11
24.29331867824788
 21
19.97647049308195
 31
0.0
  0
LINE
  5
24E
330
1F
100
AcDbEntity
  8
0
100
AcDbLine
 10
13.7308186782482
 20
19.25772049307707
 30
0.0
 11
13.73081867825374
 21
7.257720548387645
 31
0.0
  0
LINE
  5
24F
330
1F
100
AcDbEntity
  8
0
100
AcDbLine
 10
24.29331867824821
 20
19.25772049308194
 30
0.0
 11
13.7308186782482
 21
19.25772049307707
 31
0.0
  0
LINE
  5
250
330
1F
100
AcDbEntity
  8
0
100
AcDbLine
 10
24.29331867825316
 20
8.538970548392513
 30
0.0
 11
24.28235740688843
 21
8.371733864610576
 31
0.0
  0
LINE
  5
251
330
1F
100
AcDbEntity
  8
0
100
AcDbLine
 10
24.28235740688843
 20
8.371733864610576
 30
0.0
 11
24.24966114318618
 21
8.207358646854885
 31
0.0
  0
LINE
  5
252
330
1F
100
AcDbEntity
  8
0
100
AcDbLine
 10
24.24966114318618
 20
8.207358646854885
 30
0.0
 11
24.19578932928347
 21
8.0486574006747
 31
0.0
  0
LINE
  5
253
330
1F
100
AcDbEntity
  8
0
100
AcDbLine
 10
24.19578932928347
 20
8.0486574006747
 30
0.0
 11
24.12166372685227
 21
7.898345548392435
 31
0.0
  0
LINE
  5
254
330
1F
100
AcDbEntity
  8
0
100
AcDbLine
 10
24.12166372685227
 20
7.898345548392435
 30
0.0
 11
24.02855264550166
 21
7.758994967474969
 31
0.0
  0
LINE
  5
255
330
1F
100
AcDbEntity
  8
0
100
AcDbLine
 10
24.02855264550166
 20
7.758994967474969
 30
0.0
 11
23.91804924164884
 21
7.632989984997081
 31
0.0
  0
LINE
  5
256
330
1F
100
AcDbEntity
  8
0
100
AcDbLine
 10
23.91804924164884
 20
7.632989984997081
 30
0.0
 11
23.79204425917105
 21
7.52248658114415
 31
0.0
  0
LINE
  5
257
330
1F
100
AcDbEntity
  8
0
100
AcDbLine
 10
23.79204425917105
 20
7.52248658114415
 30
0.0
 11
23.65269367825367
 21
7.429375499793402
 31
0.0
  0
LINE
  5
258
330
1F
100
AcDbEntity
  8
0
100
AcDbLine
 10
23.65269367825367
 20
7.429375499793402
 30
0.0
 11
23.50238182597148
 21
7.355249897362064
 31
0.0
  0
LINE
  5
259
330
1F
100
AcDbEntity
  8
0
100
AcDbLine
 10
23.50238182597148
 20
7.355249897362064
 30
0.0
 11
23.34368057979134
 21
7.301378083459205
 31
0.0
  0
LINE
  5
25A
330
1F
100
AcDbEntity
  8
0
100
AcDbLine
 10
23.34368057979134
 20
7.301378083459205
 30
0.0
 11
23.17930536203569
 21
7.268681819756807
 31
0.0
  0
LINE
  5
25B
330
1F
100
AcDbEntity
  8
0
100
AcDbLine
 10
23.17930536203569
 20
7.268681819756807
 30
0.0
 11
23.01206867825375
 21
7.257720548391923
 31
0.0
  0
LINE
  5
25C
330
1F
100
AcDbEntity
  8
0
100
AcDbLine
 10
23.01206867825375
 20
7.257720548391923
 30
0.0
 11
23.01206867825408
 21
6.538970548392165
 31
0.0
  0
LINE
  5
25D
330
1F
100
AcDbEntity
  8
0
100
AcDbLine
 10
25.01206867825316
 20
8.538970548392967
 30
0.0
 11
24.29331867825316
 21
8.538970548392513
 31
0.0
  0
LINE
  5
25E
330
1F
100
AcDbEntity
  8
0
100
AcDbLine
 10
13.01206867823563
 20
46.53897054838743
 30
0.0
 11
13.01206867825408
 21
6.538970548387553
 31
0.0
  0
LINE
  5
25F
330
1F
100
AcDbEntity
  8
0
100
AcDbLine
 10
25.01206867823563
 20
46.53897054839297
 30
0.0
 11
13.01206867823563
 21
46.53897054838743
 31
0.0
  0
LINE
  5
260
330
1F
100
AcDbEntity
  8
0
100
AcDbLine
 10
34.92456867825375
 20
3.135845112968347
 30
0.0
 11
24.92456867825375
 21
3.135845112969262
 31
0.0
  0
LINE
  5
261
330
1F
100
AcDbEntity
  8
0
100
AcDbLine
 10
34.92456867825359
 20
1.373345020265865
 30
0.0
 11
34.92456867825375
 21
3.135845112968347
 31
0.0
  0
LINE
  5
262
330
1F
100
AcDbEntity
  8
0
100
AcDbLine
 10
24.92456867825359
 20
1.373345020266781
 30
0.0
 11
34.92456867825359
 21
1.373345020265865
 31
0.0
  0
LINE
  5
263
330
1F
100
AcDbEntity
  8
0
100
AcDbLine
 10
24.92456867825375
 20
3.135845112969262
 30
0.0
 11
24.92456867825359
 21
1.373345020266781
 31
0.0
  0
LINE
  5
264
330
1F
100
AcDbEntity
  8
0
100
AcDbLine
 10
39.01206809824655
 20
7.257720494770609
 30
0.0
 11
39.01206827312429
 21
19.25772049477069
 31
0.0
  0
LINE
  5
265
330
1F
100
AcDbEntity
  8
0
100
AcDbLine
 10
40.77456818276224
 20
7.257720468576998
 30
0.0
 11
39.01206809824655
 21
7.257720494770609
 31
0.0
  0
LINE
  5
266
330
1F
100
AcDbEntity
  8
0
100
AcDbLine
 10
39.01206848568225
 20
33.25772052154873
 30
0.0
 11
39.01206867288075
 21
45.82022054832682
 31
0.0
  0
LINE
  5
267
330
1F
100
AcDbEntity
  8
0
100
AcDbLine
 10
39.01206848568225
 20
33.25772052154873
 30
0.0
 11
39.01206847497189
 21
32.5389705215487
 31
0.0
  0
LINE
  5
268
330
1F
100
AcDbEntity
  8
0
100
AcDbLine
 10
39.01206828509565
 20
19.97647049477069
 30
0.0
 11
39.01206847497189
 21
32.5389705215487
 31
0.0
  0
LINE
  5
269
330
1F
100
AcDbEntity
  8
0
100
AcDbLine
 10
39.01206828509565
 20
19.97647049477069
 30
0.0
 11
39.01206827312429
 21
19.25772049477069
 31
0.0
  0
LINE
  5
26A
330
1F
100
AcDbEntity
  8
0
100
AcDbLine
 10
40.77456827205579
 20
19.97647046682261
 30
0.0
 11
40.77456826134543
 21
19.25772046682264
 31
0.0
  0
LINE
  5
26B
330
1F
100
AcDbEntity
  8
0
100
AcDbLine
 10
39.01206828509565
 20
19.97647049477069
 30
0.0
 11
40.77456827205579
 21
19.97647046682261
 31
0.0
  0
LINE
  5
26C
330
1F
100
AcDbEntity
  8
0
100
AcDbLine
 10
39.01206827312429
 20
19.25772049477069
 30
0.0
 11
40.77456826134543
 21
19.25772046682264
 31
0.0
  0
LINE
  5
26D
330
1F
100
AcDbEntity
  8
0
100
AcDbLine
 10
40.7745685041296
 20
33.25772049535508
 30
0.0
 11
40.77456849341925
 21
32.53897049535512
 31
0.0
  0
LINE
  5
26E
330
1F
100
AcDbEntity
  8
0
100
AcDbLine
 10
39.01206848568225
 20
33.25772052154873
 30
0.0
 11
40.7745685041296
 21
33.25772049535508
 31
0.0
  0
LINE
  5
26F
330
1F
100
AcDbEntity
  8
0
100
AcDbLine
 10
39.01206847497189
 20
32.5389705215487
 30
0.0
 11
40.77456849341925
 21
32.53897049535512
 31
0.0
  0
LINE
  5
270
330
1F
100
AcDbEntity
  8
0
100
AcDbLine
 10
40.77456849341925
 20
32.53897049535512
 30
0.0
 11
40.77456827205579
 21
19.97647046682261
 31
0.0
  0
LINE
  5
271
330
1F
100
AcDbEntity
  8
0
100
AcDbLine
 10
40.77456873440833
 20
46.53897052213316
 30
0.0
 11
40.77456872369797
 21
45.8202205221332
 31
0.0
  0
LINE
  5
272
330
1F
100
AcDbEntity
  8
0
100
AcDbLine
 10
39.01206868359111
 20
46.53897054832677
 30
0.0
 11
40.77456873440833
 21
46.53897052213316
 31
0.0
  0
LINE
  5
273
330
1F
100
AcDbEntity
  8
0
100
AcDbLine
 10
39.01206867288075
 20
45.82022054832682
 30
0.0
 11
40.77456872369797
 21
45.8202205221332
 31
0.0
  0
LINE
  5
274
330
1F
100
AcDbEntity
  8
0
100
AcDbLine
 10
40.77456872369797
 20
45.8202205221332
 30
0.0
 11
40.7745685041296
 21
33.25772049535508
 31
0.0
  0
LINE
  5
275
330
1F
100
AcDbEntity
  8
0
100
AcDbLine
 10
40.77456826134543
 20
19.25772046682264
 30
0.0
 11
40.77456818276224
 21
7.257720468576998
 31
0.0
  0
LINE
  5
276
330
1F
100
AcDbEntity
  8
0
100
AcDbLine
 10
39.01206868359111
 20
46.53897054832677
 30
0.0
 11
39.01206867288075
 21
45.82022054832682
 31
0.0
  0
LINE
  5
277
330
1F
100
AcDbEntity
  8
0
100
AcDbLine
 10
43.5370687236974
 20
46.53897051142221
 30
0.0
 11
43.53706872368957
 21
26.53897051142224
 31
0.0
  0
LINE
  5
278
330
1F
100
AcDbEntity
  8
0
100
AcDbLine
 10
41.77456873440833
 20
46.5389705114229
 30
0.0
 11
43.5370687236974
 21
46.53897051142221
 31
0.0
  0
LINE
  5
279
330
1F
100
AcDbEntity
  8
0
100
AcDbLine
 10
41.7745687344005
 20
26.53897051142293
 30
0.0
 11
41.77456873440833
 21
46.5389705114229
 31
0.0
  0
LINE
  5
27A
330
1F
100
AcDbEntity
  8
0
100
AcDbLine
 10
43.53706872368957
 20
26.53897051142224
 30
0.0
 11
41.7745687344005
 21
26.53897051142293
 31
0.0
  0
LINE
  5
27B
330
1F
100
AcDbEntity
  8
0
100
AcDbLine
 10
38.0120686782479
 20
6.538970548396762
 30
0.0
 11
28.01206867824789
 21
6.538970548393692
 31
0.0
  0
LINE
  5
27C
330
1F
100
AcDbEntity
  8
0
100
AcDbLine
 10
26.01206867824728
 20
8.538970548393081
 30
0.0
 11
26.01206867823563
 21
46.53897054839307
 31
0.0
  0
LINE
  5
27D
330
1F
100
AcDbEntity
  8
0
100
AcDbLine
 10
37.29331867823585
 20
45.82022054839654
 30
0.0
 11
37.29331867823971
 21
33.25772052161847
 31
0.0
  0
LINE
  5
27E
330
1F
100
AcDbEntity
  8
0
100
AcDbLine
 10
26.73081867823585
 20
45.8202205483933
 30
0.0
 11
37.29331867823585
 21
45.82022054839654
 31
0.0
  0
LINE
  5
27F
330
1F
100
AcDbEntity
  8
0
100
AcDbLine
 10
26.7308186782397
 20
33.25772052161523
 30
0.0
 11
26.73081867823585
 21
45.8202205483933
 31
0.0
  0
LINE
  5
280
330
1F
100
AcDbEntity
  8
0
100
AcDbLine
 10
37.29331867823971
 20
33.25772052161847
 30
0.0
 11
26.7308186782397
 21
33.25772052161523
 31
0.0
  0
LINE
  5
281
330
1F
100
AcDbEntity
  8
0
100
AcDbLine
 10
37.29331867823993
 20
32.53897052161846
 30
0.0
 11
37.29331867824379
 21
19.97647049308598
 31
0.0
  0
LINE
  5
282
330
1F
100
AcDbEntity
  8
0
100
AcDbLine
 10
26.73081867823992
 20
32.53897052161522
 30
0.0
 11
37.29331867823993
 21
32.53897052161846
 31
0.0
  0
LINE
  5
283
330
1F
100
AcDbEntity
  8
0
100
AcDbLine
 10
26.73081867824378
 20
19.97647049308274
 30
0.0
 11
26.73081867823992
 21
32.53897052161522
 31
0.0
  0
LINE
  5
284
330
1F
100
AcDbEntity
  8
0
100
AcDbLine
 10
37.29331867824379
 20
19.97647049308598
 30
0.0
 11
26.73081867824378
 21
19.97647049308274
 31
0.0
  0
LINE
  5
285
330
1F
100
AcDbEntity
  8
0
100
AcDbLine
 10
37.29331867824401
 20
19.25772049308596
 30
0.0
 11
37.29331867824769
 21
7.257720548396541
 31
0.0
  0
LINE
  5
286
330
1F
100
AcDbEntity
  8
0
100
AcDbLine
 10
26.730818678244
 20
19.25772049308272
 30
0.0
 11
37.29331867824401
 21
19.25772049308596
 31
0.0
  0
LINE
  5
287
330
1F
100
AcDbEntity
  8
0
100
AcDbLine
 10
26.73081867824728
 20
8.538970548393301
 30
0.0
 11
26.730818678244
 21
19.25772049308272
 31
0.0
  0
LINE
  5
288
330
1F
100
AcDbEntity
  8
0
100
AcDbLine
 10
37.29331867824769
 20
7.257720548396541
 30
0.0
 11
28.01206867824767
 21
7.257720548393692
 31
0.0
  0
LINE
  5
289
330
1F
100
AcDbEntity
  8
0
100
AcDbLine
 10
26.73081867824728
 20
8.538970548393301
 30
0.0
 11
26.74177994961214
 21
8.371733864611372
 31
0.0
  0
LINE
  5
28A
330
1F
100
AcDbEntity
  8
0
100
AcDbLine
 10
26.74177994961214
 20
8.371733864611372
 30
0.0
 11
26.77447621331452
 21
8.207358646855702
 31
0.0
  0
LINE
  5
28B
330
1F
100
AcDbEntity
  8
0
100
AcDbLine
 10
26.77447621331452
 20
8.207358646855702
 30
0.0
 11
26.82834802721735
 21
8.048657400675559
 31
0.0
  0
LINE
  5
28C
330
1F
100
AcDbEntity
  8
0
100
AcDbLine
 10
26.82834802721735
 20
8.048657400675559
 30
0.0
 11
26.90247362964867
 21
7.898345548393351
 31
0.0
  0
LINE
  5
28D
330
1F
100
AcDbEntity
  8
0
100
AcDbLine
 10
26.90247362964867
 20
7.898345548393351
 30
0.0
 11
26.99558471099938
 21
7.758994967475957
 31
0.0
  0
LINE
  5
28E
330
1F
100
AcDbEntity
  8
0
100
AcDbLine
 10
26.99558471099938
 20
7.758994967475957
 30
0.0
 11
27.1060881148523
 21
7.632989984998154
 31
0.0
  0
LINE
  5
28F
330
1F
100
AcDbEntity
  8
0
100
AcDbLine
 10
27.1060881148523
 20
7.632989984998154
 30
0.0
 11
27.23209309733017
 21
7.522486581145323
 31
0.0
  0
LINE
  5
290
330
1F
100
AcDbEntity
  8
0
100
AcDbLine
 10
27.23209309733017
 20
7.522486581145323
 30
0.0
 11
27.37144367824762
 21
7.429375499794681
 31
0.0
  0
LINE
  5
291
330
1F
100
AcDbEntity
  8
0
100
AcDbLine
 10
27.37144367824762
 20
7.429375499794681
 30
0.0
 11
27.52175553052987
 21
7.355249897363457
 31
0.0
  0
LINE
  5
292
330
1F
100
AcDbEntity
  8
0
100
AcDbLine
 10
27.52175553052987
 20
7.355249897363457
 30
0.0
 11
27.68045677671005
 21
7.301378083460719
 31
0.0
  0
LINE
  5
293
330
1F
100
AcDbEntity
  8
0
100
AcDbLine
 10
27.68045677671005
 20
7.301378083460719
 30
0.0
 11
27.84483199446573
 21
7.268681819758449
 31
0.0
  0
LINE
  5
294
330
1F
100
AcDbEntity
  8
0
100
AcDbLine
 10
27.84483199446573
 20
7.268681819758449
 30
0.0
 11
28.01206867824767
 21
7.257720548393692
 31
0.0
  0
LINE
  5
295
330
1F
100
AcDbEntity
  8
0
100
AcDbLine
 10
26.02917895549975
 20
8.277918163952982
 30
0.0
 11
26.01206867824728
 21
8.538970548393081
 31
0.0
  0
LINE
  5
296
330
1F
100
AcDbEntity
  8
0
100
AcDbLine
 10
26.08021702566931
 20
8.021332458188063
 30
0.0
 11
26.02917895549975
 21
8.277918163952982
 31
0.0
  0
LINE
  5
297
330
1F
100
AcDbEntity
  8
0
100
AcDbLine
 10
26.16430961322494
 20
7.773603683662948
 30
0.0
 11
26.08021702566931
 21
8.021332458188063
 31
0.0
  0
LINE
  5
298
330
1F
100
AcDbEntity
  8
0
100
AcDbLine
 10
26.28001787067871
 20
7.538970548393166
 30
0.0
 11
26.16430961322494
 21
7.773603683662948
 31
0.0
  0
LINE
  5
299
330
1F
100
AcDbEntity
  8
0
100
AcDbLine
 10
26.42536199766518
 20
7.321447690375763
 30
0.0
 11
26.28001787067871
 21
7.538970548393166
 31
0.0
  0
LINE
  5
29A
330
1F
100
AcDbEntity
  8
0
100
AcDbLine
 10
26.59785511587462
 20
7.124756986020166
 30
0.0
 11
26.42536199766518
 21
7.321447690375763
 31
0.0
  0
LINE
  5
29B
330
1F
100
AcDbEntity
  8
0
100
AcDbLine
 10
26.79454582023033
 20
6.952263867810856
 30
0.0
 11
26.59785511587462
 21
7.124756986020166
 31
0.0
  0
LINE
  5
29C
330
1F
100
AcDbEntity
  8
0
100
AcDbLine
 10
27.01206867824781
 20
6.806919740824505
 30
0.0
 11
26.79454582023033
 21
6.952263867810856
 31
0.0
  0
LINE
  5
29D
330
1F
100
AcDbEntity
  8
0
100
AcDbLine
 10
27.24670181351767
 20
6.691211483370886
 30
0.0
 11
27.01206867824781
 21
6.806919740824505
 31
0.0
  0
LINE
  5
29E
330
1F
100
AcDbEntity
  8
0
100
AcDbLine
 10
27.49443058804283
 20
6.607118895815404
 30
0.0
 11
27.24670181351767
 21
6.691211483370886
 31
0.0
  0
LINE
  5
29F
330
1F
100
AcDbEntity
  8
0
100
AcDbLine
 10
27.75101629380779
 20
6.556080825645999
 30
0.0
 11
27.49443058804283
 21
6.607118895815404
 31
0.0
  0
LINE
  5
2A0
330
1F
100
AcDbEntity
  8
0
100
AcDbLine
 10
28.01206867824789
 20
6.538970548393692
 30
0.0
 11
27.75101629380779
 21
6.556080825645999
 31
0.0
  0
LINE
  5
2A1
330
1F
100
AcDbEntity
  8
0
100
AcDbLine
 10
28.01206867824767
 20
7.257720548393692
 30
0.0
 11
28.01206867824789
 21
6.538970548393692
 31
0.0
  0
LINE
  5
2A2
330
1F
100
AcDbEntity
  8
0
100
AcDbLine
 10
26.01206867824728
 20
8.538970548393081
 30
0.0
 11
26.73081867824728
 21
8.538970548393301
 31
0.0
  0
LINE
  5
2A3
330
1F
100
AcDbEntity
  8
0
100
AcDbLine
 10
38.01206867823563
 20
46.53897054839675
 30
0.0
 11
26.01206867823563
 21
46.53897054839307
 31
0.0
  0
LINE
  5
2A4
330
1F
100
AcDbEntity
  8
0
100
AcDbLine
 10
38.01206867823563
 20
46.53897054839675
 30
0.0
 11
38.0120686782479
 21
6.538970548396762
 31
0.0
  0
LINE
  5
2A5
330
1F
100
AcDbEntity
  8
0
100
AcDbLine
 10
23.92456858438872
 20
1.373345123680171
 30
0.0
 11
13.01206858438874
 21
1.373345516253216
 31
0.0
  0
LINE
  5
2A6
330
1F
100
AcDbEntity
  8
0
100
AcDbLine
 10
23.92456864779399
 20
3.135845112969239
 30
0.0
 11
23.92456858438872
 21
1.373345123680171
 31
0.0
  0
LINE
  5
2A7
330
1F
100
AcDbEntity
  8
0
100
AcDbLine
 10
13.01206864779401
 20
3.135845505542283
 30
0.0
 11
23.92456864779399
 21
3.135845112969239
 31
0.0
  0
LINE
  5
2A8
330
1F
100
AcDbEntity
  8
0
100
AcDbLine
 10
13.01206858438874
 20
1.373345516253216
 30
0.0
 11
13.01206864779401
 21
3.135845505542283
 31
0.0
  0
LINE
  5
2A9
330
1F
100
AcDbEntity
  8
0
100
AcDbLine
 10
35.83706867825395
 20
4.135845505539034
 30
0.0
 11
24.92456867825394
 21
4.135845505542084
 31
0.0
  0
LINE
  5
2AA
330
1F
100
AcDbEntity
  8
0
100
AcDbLine
 10
35.83706867825444
 20
5.898345494828102
 30
0.0
 11
35.83706867825395
 21
4.135845505539034
 31
0.0
  0
LINE
  5
2AB
330
1F
100
AcDbEntity
  8
0
100
AcDbLine
 10
24.92456867825444
 20
5.898345494831153
 30
0.0
 11
35.83706867825444
 21
5.898345494828102
 31
0.0
  0
LINE
  5
2AC
330
1F
100
AcDbEntity
  8
0
100
AcDbLine
 10
24.92456867825394
 20
4.135845505542084
 30
0.0
 11
24.92456867825444
 21
5.898345494831153
 31
0.0
  0
LINE
  5
2AD
330
1F
100
AcDbEntity
  8
0
100
AcDbLine
 10
23.92456867825396
 20
4.135845505542056
 30
0.0
 11
13.01206867825396
 21
4.13584550554233
 31
0.0
  0
LINE
  5
2AE
330
1F
100
AcDbEntity
  8
0
100
AcDbLine
 10
23.92456867825401
 20
5.898345494831124
 30
0.0
 11
23.92456867825396
 21
4.135845505542056
 31
0.0
  0
LINE
  5
2AF
330
1F
100
AcDbEntity
  8
0
100
AcDbLine
 10
13.01206867825401
 20
5.898345494831399
 30
0.0
 11
23.92456867825401
 21
5.898345494831124
 31
0.0
  0
LINE
  5
2B0
330
1F
100
AcDbEntity
  8
0
100
AcDbLine
 10
13.01206867825396
 20
4.13584550554233
 30
0.0
 11
13.01206867825401
 21
5.898345494831399
 31
0.0
  0
LINE
  5
2B1
330
1F
100
AcDbEntity
  8
0
100
AcDbLine
 10
27.48706857004624
 20
-44.98602983077366
 30
0.0
 11
7.487068570046272
 21
-44.98602953274504
 31
0.0
  0
LINE
  5
2B2
330
1F
100
AcDbEntity
  8
0
100
AcDbLine
 10
27.48706859631001
 20
-43.22352984148459
 30
0.0
 11
27.48706857004624
 21
-44.98602983077366
 31
0.0
  0
LINE
  5
2B3
330
1F
100
AcDbEntity
  8
0
100
AcDbLine
 10
7.487068596310044
 20
-43.22352954345597
 30
0.0
 11
27.48706859631001
 21
-43.22352984148459
 31
0.0
  0
LINE
  5
2B4
330
1F
100
AcDbEntity
  8
0
100
AcDbLine
 10
7.487068570046272
 20
-44.98602953274504
 30
0.0
 11
7.487068596310044
 21
-43.22352954345597
 31
0.0
  0
LINE
  5
2B5
330
1F
100
AcDbEntity
  8
0
100
AcDbLine
 10
38.01206866291538
 20
-24.46102945160299
 30
0.0
 11
38.01206866291272
 21
-34.46102945160298
 31
0.0
  0
LINE
  5
2B6
330
1F
100
AcDbEntity
  8
0
100
AcDbLine
 10
39.77456875561786
 20
-24.46102945160346
 30
0.0
 11
38.01206866291538
 21
-24.46102945160299
 31
0.0
  0
LINE
  5
2B7
330
1F
100
AcDbEntity
  8
0
100
AcDbLine
 10
39.7745687556152
 20
-34.46102945160345
 30
0.0
 11
39.77456875561786
 21
-24.46102945160346
 31
0.0
  0
LINE
  5
2B8
330
1F
100
AcDbEntity
  8
0
100
AcDbLine
 10
38.01206866291272
 20
-34.46102945160298
 30
0.0
 11
39.7745687556152
 21
-34.46102945160345
 31
0.0
  0
LINE
  5
2B9
330
1F
100
AcDbEntity
  8
0
100
AcDbLine
 10
28.76831858552989
 20
-42.22352953971765
 30
0.0
 11
18.84644358473621
 21
-42.22352954365379
 31
0.0
  0
LINE
  5
2BA
330
1F
100
AcDbEntity
  8
0
100
AcDbLine
 10
28.7683185854603
 20
-40.46102945520195
 30
0.0
 11
28.76831858552989
 21
-42.22352953971765
 31
0.0
  0
LINE
  5
2BB
330
1F
100
AcDbEntity
  8
0
100
AcDbLine
 10
7.48706858560011
 20
-42.22352953971205
 30
0.0
 11
8.20581858560011
 21
-42.22352953971224
 31
0.0
  0
LINE
  5
2BC
330
1F
100
AcDbEntity
  8
0
100
AcDbLine
 10
18.12769358473621
 20
-42.2235295423926
 30
0.0
 11
8.20581858560011
 21
-42.22352953971224
 31
0.0
  0
LINE
  5
2BD
330
1F
100
AcDbEntity
  8
0
100
AcDbLine
 10
18.12769358473621
 20
-42.2235295423926
 30
0.0
 11
18.84644358473621
 21
-42.22352954365379
 31
0.0
  0
LINE
  5
2BE
330
1F
100
AcDbEntity
  8
0
100
AcDbLine
 10
18.12769358642107
 20
-40.46102955543248
 30
0.0
 11
18.84644358642103
 21
-40.46102955543267
 31
0.0
  0
LINE
  5
2BF
330
1F
100
AcDbEntity
  8
0
100
AcDbLine
 10
18.12769358473621
 20
-42.2235295423926
 30
0.0
 11
18.12769358642107
 21
-40.46102955543248
 31
0.0
  0
LINE
  5
2C0
330
1F
100
AcDbEntity
  8
0
100
AcDbLine
 10
18.84644358473621
 20
-42.22352954365379
 30
0.0
 11
18.84644358642103
 21
-40.46102955543267
 31
0.0
  0
LINE
  5
2C1
330
1F
100
AcDbEntity
  8
0
100
AcDbLine
 10
7.487068585530505
 20
-40.46102952126469
 30
0.0
 11
8.205818585530505
 21
-40.46102952126488
 31
0.0
  0
LINE
  5
2C2
330
1F
100
AcDbEntity
  8
0
100
AcDbLine
 10
8.20581858560011
 20
-42.22352953971224
 30
0.0
 11
8.205818585530505
 21
-40.46102952126488
 31
0.0
  0
LINE
  5
2C3
330
1F
100
AcDbEntity
  8
0
100
AcDbLine
 10
7.48706858560011
 20
-42.22352953971205
 30
0.0
 11
7.487068585530505
 21
-40.46102952126469
 31
0.0
  0
LINE
  5
2C4
330
1F
100
AcDbEntity
  8
0
100
AcDbLine
 10
8.205818585530505
 20
-40.46102952126488
 30
0.0
 11
18.12769358642107
 21
-40.46102955543248
 31
0.0
  0
LINE
  5
2C5
330
1F
100
AcDbEntity
  8
0
100
AcDbLine
 10
18.84644358642103
 20
-40.46102955543267
 30
0.0
 11
28.7683185854603
 21
-40.46102945520195
 31
0.0
  0
LINE
  5
2C6
330
1F
100
AcDbEntity
  8
0
100
AcDbLine
 10
29.48706858553044
 20
-39.46102945162008
 30
0.0
 11
29.4870685855333
 21
-29.46102945162007
 31
0.0
  0
LINE
  5
2C7
330
1F
100
AcDbEntity
  8
0
100
AcDbLine
 10
27.48706858553374
 20
-28.17977945161951
 30
0.0
 11
18.84644358553376
 21
-28.17977945161703
 31
0.0
  0
LINE
  5
2C8
330
1F
100
AcDbEntity
  8
0
100
AcDbLine
 10
28.76831858553071
 20
-38.74227945161988
 30
0.0
 11
28.76831858553337
 21
-29.46102945161987
 31
0.0
  0
LINE
  5
2C9
330
1F
100
AcDbEntity
  8
0
100
AcDbLine
 10
27.48706858553391
 20
-27.46102945161951
 30
0.0
 11
7.487068585533919
 21
-27.46102945161378
 31
0.0
  0
LINE
  5
2CA
330
1F
100
AcDbEntity
  8
0
100
AcDbLine
 10
29.4870685855333
 20
-29.46102945162007
 30
0.0
 11
29.46995830828099
 21
-29.19997706717997
 31
0.0
  0
LINE
  5
2CB
330
1F
100
AcDbEntity
  8
0
100
AcDbLine
 10
29.46995830828099
 20
-29.19997706717997
 30
0.0
 11
29.41892023811158
 21
-28.94339136141501
 31
0.0
  0
LINE
  5
2CC
330
1F
100
AcDbEntity
  8
0
100
AcDbLine
 10
29.41892023811158
 20
-28.94339136141501
 30
0.0
 11
29.33482765055609
 21
-28.69566258688985
 31
0.0
  0
LINE
  5
2CD
330
1F
100
AcDbEntity
  8
0
100
AcDbLine
 10
29.33482765055609
 20
-28.69566258688985
 30
0.0
 11
29.21911939310247
 21
-28.46102945162
 31
0.0
  0
LINE
  5
2CE
330
1F
100
AcDbEntity
  8
0
100
AcDbLine
 10
29.21911939310247
 20
-28.46102945162
 30
0.0
 11
29.07377526611612
 21
-28.24350659360251
 31
0.0
  0
LINE
  5
2CF
330
1F
100
AcDbEntity
  8
0
100
AcDbLine
 10
29.07377526611612
 20
-28.24350659360251
 30
0.0
 11
28.9012821479068
 21
-28.04681588924681
 31
0.0
  0
LINE
  5
2D0
330
1F
100
AcDbEntity
  8
0
100
AcDbLine
 10
28.9012821479068
 20
-28.04681588924681
 30
0.0
 11
28.7045914435512
 21
-27.87432277103738
 31
0.0
  0
LINE
  5
2D1
330
1F
100
AcDbEntity
  8
0
100
AcDbLine
 10
28.7045914435512
 20
-27.87432277103738
 30
0.0
 11
28.4870685855338
 21
-27.72897864405091
 31
0.0
  0
LINE
  5
2D2
330
1F
100
AcDbEntity
  8
0
100
AcDbLine
 10
28.4870685855338
 20
-27.72897864405091
 30
0.0
 11
28.25243545026402
 21
-27.61327038659715
 31
0.0
  0
LINE
  5
2D3
330
1F
100
AcDbEntity
  8
0
100
AcDbLine
 10
28.25243545026402
 20
-27.61327038659715
 30
0.0
 11
28.00470667573889
 21
-27.52917779904152
 31
0.0
  0
LINE
  5
2D4
330
1F
100
AcDbEntity
  8
0
100
AcDbLine
 10
28.00470667573889
 20
-27.52917779904152
 30
0.0
 11
27.74812096997398
 21
-27.47813972887196
 31
0.0
  0
LINE
  5
2D5
330
1F
100
AcDbEntity
  8
0
100
AcDbLine
 10
27.74812096997398
 20
-27.47813972887196
 30
0.0
 11
27.48706858553391
 21
-27.46102945161951
 31
0.0
  0
LINE
  5
2D6
330
1F
100
AcDbEntity
  8
0
100
AcDbLine
 10
8.205818585530729
 20
-38.742279451614
 30
0.0
 11
18.12769358553071
 21
-38.74227945161683
 31
0.0
  0
LINE
  5
2D7
330
1F
100
AcDbEntity
  8
0
100
AcDbLine
 10
8.205818585533752
 20
-28.17977945161398
 30
0.0
 11
8.205818585530729
 21
-38.742279451614
 31
0.0
  0
LINE
  5
2D8
330
1F
100
AcDbEntity
  8
0
100
AcDbLine
 10
18.12769358553374
 20
-28.17977945161682
 30
0.0
 11
8.205818585533752
 21
-28.17977945161398
 31
0.0
  0
LINE
  5
2D9
330
1F
100
AcDbEntity
  8
0
100
AcDbLine
 10
18.12769358553071
 20
-38.74227945161683
 30
0.0
 11
18.12769358553374
 21
-28.17977945161682
 31
0.0
  0
LINE
  5
2DA
330
1F
100
AcDbEntity
  8
0
100
AcDbLine
 10
18.84644358553073
 20
-38.74227945161704
 30
0.0
 11
28.76831858553071
 21
-38.74227945161988
 31
0.0
  0
LINE
  5
2DB
330
1F
100
AcDbEntity
  8
0
100
AcDbLine
 10
18.84644358553376
 20
-28.17977945161703
 30
0.0
 11
18.84644358553073
 21
-38.74227945161704
 31
0.0
  0
LINE
  5
2DC
330
1F
100
AcDbEntity
  8
0
100
AcDbLine
 10
27.48706858553374
 20
-28.17977945161951
 30
0.0
 11
27.65430526931568
 21
-28.19074072298436
 31
0.0
  0
LINE
  5
2DD
330
1F
100
AcDbEntity
  8
0
100
AcDbLine
 10
27.65430526931568
 20
-28.19074072298436
 30
0.0
 11
27.81868048707134
 21
-28.22343698668673
 31
0.0
  0
LINE
  5
2DE
330
1F
100
AcDbEntity
  8
0
100
AcDbLine
 10
27.81868048707134
 20
-28.22343698668673
 30
0.0
 11
27.97738173325148
 21
-28.27730880058956
 31
0.0
  0
LINE
  5
2DF
330
1F
100
AcDbEntity
  8
0
100
AcDbLine
 10
27.97738173325148
 20
-28.27730880058956
 30
0.0
 11
28.12769358553369
 21
-28.35143440302087
 31
0.0
  0
LINE
  5
2E0
330
1F
100
AcDbEntity
  8
0
100
AcDbLine
 10
28.12769358553369
 20
-28.35143440302087
 30
0.0
 11
28.26704416645109
 21
-28.44454548437158
 31
0.0
  0
LINE
  5
2E1
330
1F
100
AcDbEntity
  8
0
100
AcDbLine
 10
28.26704416645109
 20
-28.44454548437158
 30
0.0
 11
28.3930491489289
 21
-28.5550488882245
 31
0.0
  0
LINE
  5
2E2
330
1F
100
AcDbEntity
  8
0
100
AcDbLine
 10
28.3930491489289
 20
-28.5550488882245
 30
0.0
 11
28.50355255278173
 21
-28.68105387070237
 31
0.0
  0
LINE
  5
2E3
330
1F
100
AcDbEntity
  8
0
100
AcDbLine
 10
28.50355255278173
 20
-28.68105387070237
 30
0.0
 11
28.59666363413238
 21
-28.82040445161982
 31
0.0
  0
LINE
  5
2E4
330
1F
100
AcDbEntity
  8
0
100
AcDbLine
 10
28.59666363413238
 20
-28.82040445161982
 30
0.0
 11
28.6707892365636
 21
-28.97071630390207
 31
0.0
  0
LINE
  5
2E5
330
1F
100
AcDbEntity
  8
0
100
AcDbLine
 10
28.6707892365636
 20
-28.97071630390207
 30
0.0
 11
28.72466105046635
 21
-29.12941755008225
 31
0.0
  0
LINE
  5
2E6
330
1F
100
AcDbEntity
  8
0
100
AcDbLine
 10
28.72466105046635
 20
-29.12941755008225
 30
0.0
 11
28.75735731416862
 21
-29.29379276783792
 31
0.0
  0
LINE
  5
2E7
330
1F
100
AcDbEntity
  8
0
100
AcDbLine
 10
28.75735731416862
 20
-29.29379276783792
 30
0.0
 11
28.76831858553337
 21
-29.46102945161987
 31
0.0
  0
LINE
  5
2E8
330
1F
100
AcDbEntity
  8
0
100
AcDbLine
 10
28.76831858553337
 20
-29.46102945161987
 30
0.0
 11
29.4870685855333
 21
-29.46102945162007
 31
0.0
  0
LINE
  5
2E9
330
1F
100
AcDbEntity
  8
0
100
AcDbLine
 10
27.48706858553391
 20
-27.46102945161951
 30
0.0
 11
27.48706858553374
 21
-28.17977945161951
 31
0.0
  0
LINE
  5
2EA
330
1F
100
AcDbEntity
  8
0
100
AcDbLine
 10
7.48706858553048
 20
-39.46102945161378
 30
0.0
 11
7.487068585533919
 21
-27.46102945161378
 31
0.0
  0
LINE
  5
2EB
330
1F
100
AcDbEntity
  8
0
100
AcDbLine
 10
7.48706858553048
 20
-39.46102945161378
 30
0.0
 11
29.48706858553044
 21
-39.46102945162008
 31
0.0
  0
LINE
  5
2EC
330
1F
100
AcDbEntity
  8
0
100
AcDbLine
 10
40.77456875561785
 20
-24.46102945160348
 30
0.0
 11
40.77456875561496
 21
-35.37352945160347
 31
0.0
  0
LINE
  5
2ED
330
1F
100
AcDbEntity
  8
0
100
AcDbLine
 10
42.53706874490692
 20
-24.46102945160394
 30
0.0
 11
40.77456875561785
 21
-24.46102945160348
 31
0.0
  0
LINE
  5
2EE
330
1F
100
AcDbEntity
  8
0
100
AcDbLine
 10
42.53706874490403
 20
-35.37352945160394
 30
0.0
 11
42.53706874490692
 21
-24.46102945160394
 31
0.0
  0
LINE
  5
2EF
330
1F
100
AcDbEntity
  8
0
100
AcDbLine
 10
40.77456875561496
 20
-35.37352945160347
 30
0.0
 11
42.53706874490403
 21
-35.37352945160394
 31
0.0
  0
LINE
  5
2F0
330
1F
100
AcDbEntity
  8
0
100
AcDbLine
 10
38.01206866291272
 20
-35.46102945160299
 30
0.0
 11
38.01206866290983
 21
-46.37352945160299
 31
0.0
  0
LINE
  5
2F1
330
1F
100
AcDbEntity
  8
0
100
AcDbLine
 10
39.77456865220179
 20
-35.46102945160346
 30
0.0
 11
38.01206866291272
 21
-35.46102945160299
 31
0.0
  0
LINE
  5
2F2
330
1F
100
AcDbEntity
  8
0
100
AcDbLine
 10
39.77456865219889
 20
-46.37352945160346
 30
0.0
 11
39.77456865220179
 21
-35.46102945160346
 31
0.0
  0
LINE
  5
2F3
330
1F
100
AcDbEntity
  8
0
100
AcDbLine
 10
38.01206866290983
 20
-46.37352945160299
 30
0.0
 11
39.77456865219889
 21
-46.37352945160346
 31
0.0
  0
LINE
  5
2F4
330
1F
100
AcDbEntity
  8
0
100
AcDbLine
 10
43.76831858553339
 20
-3.461029451605974
 30
0.0
 11
43.76831858553109
 21
-12.10165445160596
 31
0.0
  0
LINE
  5
2F5
330
1F
100
AcDbEntity
  8
0
100
AcDbLine
 10
33.20581858553372
 20
-2.179779451603167
 30
0.0
 11
42.48706858553373
 21
-2.179779451605633
 31
0.0
  0
LINE
  5
2F6
330
1F
100
AcDbEntity
  8
0
100
AcDbLine
 10
32.48706858553389
 20
-1.461029451602975
 30
0.0
 11
42.48706858553389
 21
-1.461029451605633
 31
0.0
  0
LINE
  5
2F7
330
1F
100
AcDbEntity
  8
0
100
AcDbLine
 10
44.48706858553336
 20
-3.461029451606166
 30
0.0
 11
44.48706858552804
 21
-23.46102945160616
 31
0.0
  0
LINE
  5
2F8
330
1F
100
AcDbEntity
  8
0
100
AcDbLine
 10
33.20581858552826
 20
-22.74227945160316
 30
0.0
 11
33.20581858553089
 21
-12.82040445160317
 31
0.0
  0
LINE
  5
2F9
330
1F
100
AcDbEntity
  8
0
100
AcDbLine
 10
43.76831858552826
 20
-22.74227945160596
 30
0.0
 11
33.20581858552826
 21
-22.74227945160316
 31
0.0
  0
LINE
  5
2FA
330
1F
100
AcDbEntity
  8
0
100
AcDbLine
 10
43.76831858553091
 20
-12.82040445160597
 30
0.0
 11
43.76831858552826
 21
-22.74227945160596
 31
0.0
  0
LINE
  5
2FB
330
1F
100
AcDbEntity
  8
0
100
AcDbLine
 10
33.20581858553089
 20
-12.82040445160317
 30
0.0
 11
43.76831858553091
 21
-12.82040445160597
 31
0.0
  0
LINE
  5
2FC
330
1F
100
AcDbEntity
  8
0
100
AcDbLine
 10
33.20581858553108
 20
-12.10165445160315
 30
0.0
 11
33.20581858553372
 21
-2.179779451603167
 31
0.0
  0
LINE
  5
2FD
330
1F
100
AcDbEntity
  8
0
100
AcDbLine
 10
43.76831858553109
 20
-12.10165445160596
 30
0.0
 11
33.20581858553108
 21
-12.10165445160315
 31
0.0
  0
LINE
  5
2FE
330
1F
100
AcDbEntity
  8
0
100
AcDbLine
 10
43.76831858553339
 20
-3.461029451605974
 30
0.0
 11
43.75735731416863
 21
-3.293792767824037
 31
0.0
  0
LINE
  5
2FF
330
1F
100
AcDbEntity
  8
0
100
AcDbLine
 10
43.75735731416863
 20
-3.293792767824037
 30
0.0
 11
43.72466105046635
 21
-3.129417550068347
 31
0.0
  0
LINE
  5
300
330
1F
100
AcDbEntity
  8
0
100
AcDbLine
 10
43.72466105046635
 20
-3.129417550068347
 30
0.0
 11
43.67078923656361
 21
-2.970716303888175
 31
0.0
  0
LINE
  5
301
330
1F
100
AcDbEntity
  8
0
100
AcDbLine
 10
43.67078923656361
 20
-2.970716303888175
 30
0.0
 11
43.59666363413238
 21
-2.820404451605931
 31
0.0
  0
LINE
  5
302
330
1F
100
AcDbEntity
  8
0
100
AcDbLine
 10
43.59666363413238
 20
-2.820404451605931
 30
0.0
 11
43.50355255278174
 21
-2.68105387068848
 31
0.0
  0
LINE
  5
303
330
1F
100
AcDbEntity
  8
0
100
AcDbLine
 10
43.50355255278174
 20
-2.68105387068848
 30
0.0
 11
43.3930491489289
 21
-2.555048888210614
 31
0.0
  0
LINE
  5
304
330
1F
100
AcDbEntity
  8
0
100
AcDbLine
 10
43.3930491489289
 20
-2.555048888210614
 30
0.0
 11
43.26704416645109
 21
-2.444545484357704
 31
0.0
  0
LINE
  5
305
330
1F
100
AcDbEntity
  8
0
100
AcDbLine
 10
43.26704416645109
 20
-2.444545484357704
 30
0.0
 11
43.12769358553369
 21
-2.351434403006984
 31
0.0
  0
LINE
  5
306
330
1F
100
AcDbEntity
  8
0
100
AcDbLine
 10
43.12769358553369
 20
-2.351434403006984
 30
0.0
 11
42.97738173325148
 21
-2.277308800575682
 31
0.0
  0
LINE
  5
307
330
1F
100
AcDbEntity
  8
0
100
AcDbLine
 10
42.97738173325148
 20
-2.277308800575682
 30
0.0
 11
42.81868048707133
 21
-2.223436986672851
 31
0.0
  0
LINE
  5
308
330
1F
100
AcDbEntity
  8
0
100
AcDbLine
 10
42.81868048707133
 20
-2.223436986672851
 30
0.0
 11
42.65430526931568
 21
-2.190740722970482
 31
0.0
  0
LINE
  5
309
330
1F
100
AcDbEntity
  8
0
100
AcDbLine
 10
42.65430526931568
 20
-2.190740722970482
 30
0.0
 11
42.48706858553373
 21
-2.179779451605633
 31
0.0
  0
LINE
  5
30A
330
1F
100
AcDbEntity
  8
0
100
AcDbLine
 10
44.46995830828104
 20
-3.199977067166053
 30
0.0
 11
44.48706858553336
 21
-3.461029451606166
 31
0.0
  0
LINE
  5
30B
330
1F
100
AcDbEntity
  8
0
100
AcDbLine
 10
44.41892023811163
 20
-2.943391361401105
 30
0.0
 11
44.46995830828104
 21
-3.199977067166053
 31
0.0
  0
LINE
  5
30C
330
1F
100
AcDbEntity
  8
0
100
AcDbLine
 10
44.33482765055614
 20
-2.69566258687594
 30
0.0
 11
44.41892023811163
 21
-2.943391361401105
 31
0.0
  0
LINE
  5
30D
330
1F
100
AcDbEntity
  8
0
100
AcDbLine
 10
44.2191193931025
 20
-2.461029451606095
 30
0.0
 11
44.33482765055614
 21
-2.69566258687594
 31
0.0
  0
LINE
  5
30E
330
1F
100
AcDbEntity
  8
0
100
AcDbLine
 10
44.07377526611616
 20
-2.243506593588613
 30
0.0
 11
44.2191193931025
 21
-2.461029451606095
 31
0.0
  0
LINE
  5
30F
330
1F
100
AcDbEntity
  8
0
100
AcDbLine
 10
43.90128214790683
 20
-2.046815889232917
 30
0.0
 11
44.07377526611616
 21
-2.243506593588613
 31
0.0
  0
LINE
  5
310
330
1F
100
AcDbEntity
  8
0
100
AcDbLine
 10
43.70459144355122
 20
-1.874322771023493
 30
0.0
 11
43.90128214790683
 21
-2.046815889232917
 31
0.0
  0
LINE
  5
311
330
1F
100
AcDbEntity
  8
0
100
AcDbLine
 10
43.48706858553382
 20
-1.728978644037021
 30
0.0
 11
43.70459144355122
 21
-1.874322771023493
 31
0.0
  0
LINE
  5
312
330
1F
100
AcDbEntity
  8
0
100
AcDbLine
 10
43.25243545026403
 20
-1.613270386583267
 30
0.0
 11
43.48706858553382
 21
-1.728978644037021
 31
0.0
  0
LINE
  5
313
330
1F
100
AcDbEntity
  8
0
100
AcDbLine
 10
43.00470667573892
 20
-1.529177799027643
 30
0.0
 11
43.25243545026403
 21
-1.613270386583267
 31
0.0
  0
LINE
  5
314
330
1F
100
AcDbEntity
  8
0
100
AcDbLine
 10
42.74812096997399
 20
-1.478139728858089
 30
0.0
 11
43.00470667573892
 21
-1.529177799027643
 31
0.0
  0
LINE
  5
315
330
1F
100
AcDbEntity
  8
0
100
AcDbLine
 10
42.48706858553389
 20
-1.461029451605633
 30
0.0
 11
42.74812096997399
 21
-1.478139728858089
 31
0.0
  0
LINE
  5
316
330
1F
100
AcDbEntity
  8
0
100
AcDbLine
 10
42.48706858553373
 20
-2.179779451605633
 30
0.0
 11
42.48706858553389
 21
-1.461029451605633
 31
0.0
  0
LINE
  5
317
330
1F
100
AcDbEntity
  8
0
100
AcDbLine
 10
44.48706858553336
 20
-3.461029451606166
 30
0.0
 11
43.76831858553339
 21
-3.461029451605974
 31
0.0
  0
LINE
  5
318
330
1F
100
AcDbEntity
  8
0
100
AcDbLine
 10
32.48706858552804
 20
-23.46102945160297
 30
0.0
 11
44.48706858552804
 21
-23.46102945160616
 31
0.0
  0
LINE
  5
319
330
1F
100
AcDbEntity
  8
0
100
AcDbLine
 10
32.48706858552804
 20
-23.46102945160297
 30
0.0
 11
32.48706858553389
 21
-1.461029451602975
 31
0.0
  0
LINE
  5
31A
330
1F
100
AcDbEntity
  8
0
100
AcDbLine
 10
43.53706874490694
 20
-46.37352945160392
 30
0.0
 11
43.53706874490694
 21
-36.37352945160393
 31
0.0
  0
LINE
  5
31B
330
1F
100
AcDbEntity
  8
0
100
AcDbLine
 10
45.29956883760942
 20
-46.37352945160392
 30
0.0
 11
43.53706874490694
 21
-46.37352945160392
 31
0.0
  0
LINE
  5
31C
330
1F
100
AcDbEntity
  8
0
100
AcDbLine
 10
45.29956883760942
 20
-36.37352945160393
 30
0.0
 11
45.29956883760942
 21
-46.37352945160392
 31
0.0
  0
LINE
  5
31D
330
1F
100
AcDbEntity
  8
0
100
AcDbLine
 10
43.53706874490694
 20
-36.37352945160393
 30
0.0
 11
45.29956883760942
 21
-36.37352945160393
 31
0.0
  0
LINE
  5
31E
330
1F
100
AcDbEntity
  8
0
100
AcDbLine
 10
34.24956857481713
 20
-24.46102945160301
 30
0.0
 11
34.24956857481278
 21
-46.46102945160295
 31
0.0
  0
LINE
  5
31F
330
1F
100
AcDbEntity
  8
0
100
AcDbLine
 10
32.48706858552806
 20
-24.46102945160266
 30
0.0
 11
34.24956857481713
 21
-24.46102945160301
 31
0.0
  0
LINE
  5
320
330
1F
100
AcDbEntity
  8
0
100
AcDbLine
 10
32.48706858552371
 20
-46.46102945160261
 30
0.0
 11
32.48706858552806
 21
-24.46102945160266
 31
0.0
  0
LINE
  5
321
330
1F
100
AcDbEntity
  8
0
100
AcDbLine
 10
34.24956857481278
 20
-46.46102945160295
 30
0.0
 11
32.48706858552371
 21
-46.46102945160261
 31
0.0
  0
LINE
  5
322
330
1F
100
AcDbEntity
  8
0
100
AcDbLine
 10
37.01206866291535
 20
-24.46102945160284
 30
0.0
 11
37.01206866686649
 21
-35.38290445239632
 31
0.0
  0
LINE
  5
323
330
1F
100
AcDbEntity
  8
0
100
AcDbLine
 10
35.24956857839965
 20
-24.46102945167313
 30
0.0
 11
37.01206866291535
 21
-24.46102945160284
 31
0.0
  0
LINE
  5
324
330
1F
100
AcDbEntity
  8
0
100
AcDbLine
 10
37.01206866291841
 20
-47.74227945153248
 30
0.0
 11
37.01206866291831
 21
-47.02352945153248
 31
0.0
  0
LINE
  5
325
330
1F
100
AcDbEntity
  8
0
100
AcDbLine
 10
37.01206866560558
 20
-36.10165445239632
 30
0.0
 11
37.01206866291831
 21
-47.02352945153248
 31
0.0
  0
LINE
  5
326
330
1F
100
AcDbEntity
  8
0
100
AcDbLine
 10
37.01206866560558
 20
-36.10165445239632
 30
0.0
 11
37.01206866686649
 21
-35.38290445239632
 31
0.0
  0
LINE
  5
327
330
1F
100
AcDbEntity
  8
0
100
AcDbLine
 10
35.24956867864546
 20
-36.10165445071216
 30
0.0
 11
35.24956867864537
 21
-35.38290445071226
 31
0.0
  0
LINE
  5
328
330
1F
100
AcDbEntity
  8
0
100
AcDbLine
 10
37.01206866560558
 20
-36.10165445239632
 30
0.0
 11
35.24956867864546
 21
-36.10165445071216
 31
0.0
  0
LINE
  5
329
330
1F
100
AcDbEntity
  8
0
100
AcDbLine
 10
37.01206866686649
 20
-35.38290445239632
 30
0.0
 11
35.24956867864537
 21
-35.38290445071226
 31
0.0
  0
LINE
  5
32A
330
1F
100
AcDbEntity
  8
0
100
AcDbLine
 10
35.24956864447105
 20
-47.7422794516028
 30
0.0
 11
35.24956864447095
 21
-47.0235294516028
 31
0.0
  0
LINE
  5
32B
330
1F
100
AcDbEntity
  8
0
100
AcDbLine
 10
37.01206866291831
 20
-47.02352945153248
 30
0.0
 11
35.24956864447095
 21
-47.0235294516028
 31
0.0
  0
LINE
  5
32C
330
1F
100
AcDbEntity
  8
0
100
AcDbLine
 10
37.01206866291841
 20
-47.74227945153248
 30
0.0
 11
35.24956864447105
 21
-47.7422794516028
 31
0.0
  0
LINE
  5
32D
330
1F
100
AcDbEntity
  8
0
100
AcDbLine
 10
35.24956864447095
 20
-47.0235294516028
 30
0.0
 11
35.24956867864546
 21
-36.10165445071216
 31
0.0
  0
LINE
  5
32E
330
1F
100
AcDbEntity
  8
0
100
AcDbLine
 10
35.24956867864537
 20
-35.38290445071226
 30
0.0
 11
35.24956857839965
 21
-24.46102945167313
 31
0.0
  0
LINE
  5
32F
330
1F
100
AcDbEntity
  8
0
100
AcDbLine
 10
31.48706858553386
 20
-13.46102945160653
 30
0.0
 11
31.48706858553386
 21
-3.461029451606523
 31
0.0
  0
LINE
  5
330
330
1F
100
AcDbEntity
  8
0
100
AcDbLine
 10
29.48706858553386
 20
-2.179779451606617
 30
0.0
 11
19.84644358553388
 21
-2.179779451613856
 31
0.0
  0
LINE
  5
331
330
1F
100
AcDbEntity
  8
0
100
AcDbLine
 10
30.76831858553386
 20
-12.74227945160663
 30
0.0
 11
30.76831858553386
 21
-3.461029451606613
 31
0.0
  0
LINE
  5
332
330
1F
100
AcDbEntity
  8
0
100
AcDbLine
 10
29.48706858553386
 20
-1.461029451606572
 30
0.0
 11
7.487068585533869
 21
-1.461029451613808
 31
0.0
  0
LINE
  5
333
330
1F
100
AcDbEntity
  8
0
100
AcDbLine
 10
31.48706858553386
 20
-3.461029451606523
 30
0.0
 11
31.46995830828148
 21
-3.199977067166418
 31
0.0
  0
LINE
  5
334
330
1F
100
AcDbEntity
  8
0
100
AcDbLine
 10
31.46995830828148
 20
-3.199977067166418
 30
0.0
 11
31.41892023811199
 21
-2.943391361401479
 31
0.0
  0
LINE
  5
335
330
1F
100
AcDbEntity
  8
0
100
AcDbLine
 10
31.41892023811199
 20
-2.943391361401479
 30
0.0
 11
31.33482765055643
 21
-2.695662586876341
 31
0.0
  0
LINE
  5
336
330
1F
100
AcDbEntity
  8
0
100
AcDbLine
 10
31.33482765055643
 20
-2.695662586876341
 30
0.0
 11
31.21911939310274
 21
-2.46102945160652
 31
0.0
  0
LINE
  5
337
330
1F
100
AcDbEntity
  8
0
100
AcDbLine
 10
31.21911939310274
 20
-2.46102945160652
 30
0.0
 11
31.07377526611633
 21
-2.243506593589079
 31
0.0
  0
LINE
  5
338
330
1F
100
AcDbEntity
  8
0
100
AcDbLine
 10
31.07377526611633
 20
-2.243506593589079
 30
0.0
 11
30.90128214790695
 21
-2.046815889233426
 31
0.0
  0
LINE
  5
339
330
1F
100
AcDbEntity
  8
0
100
AcDbLine
 10
30.90128214790695
 20
-2.046815889233426
 30
0.0
 11
30.70459144355131
 21
-1.87432277102405
 31
0.0
  0
LINE
  5
33A
330
1F
100
AcDbEntity
  8
0
100
AcDbLine
 10
30.70459144355131
 20
-1.87432277102405
 30
0.0
 11
30.48706858553386
 21
-1.728978644037645
 31
0.0
  0
LINE
  5
33B
330
1F
100
AcDbEntity
  8
0
100
AcDbLine
 10
30.48706858553386
 20
-1.728978644037645
 30
0.0
 11
30.25243545026404
 21
-1.613270386583948
 31
0.0
  0
LINE
  5
33C
330
1F
100
AcDbEntity
  8
0
100
AcDbLine
 10
30.25243545026404
 20
-1.613270386583948
 30
0.0
 11
30.0047066757389
 21
-1.529177799028388
 31
0.0
  0
LINE
  5
33D
330
1F
100
AcDbEntity
  8
0
100
AcDbLine
 10
30.0047066757389
 20
-1.529177799028388
 30
0.0
 11
29.74812096997397
 21
-1.478139728858906
 31
0.0
  0
LINE
  5
33E
330
1F
100
AcDbEntity
  8
0
100
AcDbLine
 10
29.74812096997397
 20
-1.478139728858906
 30
0.0
 11
29.48706858553386
 21
-1.461029451606572
 31
0.0
  0
LINE
  5
33F
330
1F
100
AcDbEntity
  8
0
100
AcDbLine
 10
8.205818585533873
 20
-12.74227945161386
 30
0.0
 11
19.12769358553386
 21
-12.74227945161386
 31
0.0
  0
LINE
  5
340
330
1F
100
AcDbEntity
  8
0
100
AcDbLine
 10
8.205818585533873
 20
-2.179779451613856
 30
0.0
 11
8.205818585533873
 21
-12.74227945161386
 31
0.0
  0
LINE
  5
341
330
1F
100
AcDbEntity
  8
0
100
AcDbLine
 10
19.12769358553386
 20
-2.179779451613856
 30
0.0
 11
8.205818585533873
 21
-2.179779451613856
 31
0.0
  0
LINE
  5
342
330
1F
100
AcDbEntity
  8
0
100
AcDbLine
 10
19.12769358553386
 20
-12.74227945161386
 30
0.0
 11
19.12769358553386
 21
-2.179779451613856
 31
0.0
  0
LINE
  5
343
330
1F
100
AcDbEntity
  8
0
100
AcDbLine
 10
19.84644358553388
 20
-12.74227945161386
 30
0.0
 11
30.76831858553386
 21
-12.74227945160663
 31
0.0
  0
LINE
  5
344
330
1F
100
AcDbEntity
  8
0
100
AcDbLine
 10
19.84644358553388
 20
-2.179779451613856
 30
0.0
 11
19.84644358553388
 21
-12.74227945161386
 31
0.0
  0
LINE
  5
345
330
1F
100
AcDbEntity
  8
0
100
AcDbLine
 10
29.48706858553386
 20
-2.179779451606617
 30
0.0
 11
29.6543052693158
 21
-2.190740722971425
 31
0.0
  0
LINE
  5
346
330
1F
100
AcDbEntity
  8
0
100
AcDbLine
 10
29.6543052693158
 20
-2.190740722971425
 30
0.0
 11
29.81868048707148
 21
-2.22343698667375
 31
0.0
  0
LINE
  5
347
330
1F
100
AcDbEntity
  8
0
100
AcDbLine
 10
29.81868048707148
 20
-2.22343698667375
 30
0.0
 11
29.97738173325163
 21
-2.277308800576531
 31
0.0
  0
LINE
  5
348
330
1F
100
AcDbEntity
  8
0
100
AcDbLine
 10
29.97738173325163
 20
-2.277308800576531
 30
0.0
 11
30.12769358553386
 21
-2.351434403007804
 31
0.0
  0
LINE
  5
349
330
1F
100
AcDbEntity
  8
0
100
AcDbLine
 10
30.12769358553386
 20
-2.351434403007804
 30
0.0
 11
30.26704416645129
 21
-2.444545484358471
 31
0.0
  0
LINE
  5
34A
330
1F
100
AcDbEntity
  8
0
100
AcDbLine
 10
30.26704416645129
 20
-2.444545484358471
 30
0.0
 11
30.39304914892912
 21
-2.555048888211353
 31
0.0
  0
LINE
  5
34B
330
1F
100
AcDbEntity
  8
0
100
AcDbLine
 10
30.39304914892912
 20
-2.555048888211353
 30
0.0
 11
30.503552552782
 21
-2.681053870689192
 31
0.0
  0
LINE
  5
34C
330
1F
100
AcDbEntity
  8
0
100
AcDbLine
 10
30.503552552782
 20
-2.681053870689192
 30
0.0
 11
30.59666363413268
 21
-2.820404451606615
 31
0.0
  0
LINE
  5
34D
330
1F
100
AcDbEntity
  8
0
100
AcDbLine
 10
30.59666363413268
 20
-2.820404451606615
 30
0.0
 11
30.67078923656395
 21
-2.970716303888842
 31
0.0
  0
LINE
  5
34E
330
1F
100
AcDbEntity
  8
0
100
AcDbLine
 10
30.67078923656395
 20
-2.970716303888842
 30
0.0
 11
30.72466105046674
 21
-3.129417550069007
 31
0.0
  0
LINE
  5
34F
330
1F
100
AcDbEntity
  8
0
100
AcDbLine
 10
30.72466105046674
 20
-3.129417550069007
 30
0.0
 11
30.75735731416906
 21
-3.293792767824671
 31
0.0
  0
LINE
  5
350
330
1F
100
AcDbEntity
  8
0
100
AcDbLine
 10
30.75735731416906
 20
-3.293792767824671
 30
0.0
 11
30.76831858553386
 21
-3.461029451606613
 31
0.0
  0
LINE
  5
351
330
1F
100
AcDbEntity
  8
0
100
AcDbLine
 10
30.76831858553386
 20
-3.461029451606613
 30
0.0
 11
31.48706858553386
 21
-3.461029451606523
 31
0.0
  0
LINE
  5
352
330
1F
100
AcDbEntity
  8
0
100
AcDbLine
 10
29.48706858553386
 20
-1.461029451606572
 30
0.0
 11
29.48706858553386
 21
-2.179779451606617
 31
0.0
  0
LINE
  5
353
330
1F
100
AcDbEntity
  8
0
100
AcDbLine
 10
7.487068585533866
 20
-13.46102945161381
 30
0.0
 11
7.487068585533869
 21
-1.461029451613808
 31
0.0
  0
LINE
  5
354
330
1F
100
AcDbEntity
  8
0
100
AcDbLine
 10
7.487068585533866
 20
-13.46102945161381
 30
0.0
 11
31.48706858553386
 21
-13.46102945160653
 31
0.0
  0
LINE
  5
355
330
1F
100
AcDbEntity
  8
0
100
AcDbLine
 10
43.53706874490694
 20
-35.37352945160394
 30
0.0
 11
43.53706874490694
 21
-24.46102945160393
 31
0.0
  0
LINE
  5
356
330
1F
100
AcDbEntity
  8
0
100
AcDbLine
 10
45.29956873419601
 20
-35.37352945160394
 30
0.0
 11
43.53706874490694
 21
-35.37352945160394
 31
0.0
  0
LINE
  5
357
330
1F
100
AcDbEntity
  8
0
100
AcDbLine
 10
45.29956873419601
 20
-24.46102945160393
 30
0.0
 11
45.29956873419601
 21
-35.37352945160394
 31
0.0
  0
LINE
  5
358
330
1F
100
AcDbEntity
  8
0
100
AcDbLine
 10
43.53706874490694
 20
-24.46102945160393
 30
0.0
 11
45.29956873419601
 21
-24.46102945160393
 31
0.0
  0
LINE
  5
359
330
1F
100
AcDbEntity
  8
0
100
AcDbLine
 10
40.77456876632515
 20
-47.28602945160348
 30
0.0
 11
40.77456876632515
 21
-36.37352945160347
 31
0.0
  0
LINE
  5
35A
330
1F
100
AcDbEntity
  8
0
100
AcDbLine
 10
42.53706875561422
 20
-47.28602945160348
 30
0.0
 11
40.77456876632515
 21
-47.28602945160348
 31
0.0
  0
LINE
  5
35B
330
1F
100
AcDbEntity
  8
0
100
AcDbLine
 10
42.53706875561422
 20
-36.37352945160347
 30
0.0
 11
42.53706875561422
 21
-47.28602945160348
 31
0.0
  0
LINE
  5
35C
330
1F
100
AcDbEntity
  8
0
100
AcDbLine
 10
40.77456876632515
 20
-36.37352945160347
 30
0.0
 11
42.53706875561422
 21
-36.37352945160347
 31
0.0
  0
LINE
  5
35D
330
1F
100
AcDbEntity
  8
0
100
AcDbLine
 10
29.48706858553387
 20
-25.74227945162101
 30
0.0
 11
19.84644358553388
 21
-25.74227945161377
 31
0.0
  0
LINE
  5
35E
330
1F
100
AcDbEntity
  8
0
100
AcDbLine
 10
30.76831858553387
 20
-15.17977945162099
 30
0.0
 11
30.76831858553387
 21
-24.46102945162101
 31
0.0
  0
LINE
  5
35F
330
1F
100
AcDbEntity
  8
0
100
AcDbLine
 10
31.48706858553387
 20
-14.461029451621
 30
0.0
 11
31.48706858553387
 21
-24.46102945162101
 31
0.0
  0
LINE
  5
360
330
1F
100
AcDbEntity
  8
0
100
AcDbLine
 10
29.48706858553387
 20
-26.46102945162101
 30
0.0
 11
7.487068585533876
 21
-26.46102945161377
 31
0.0
  0
LINE
  5
361
330
1F
100
AcDbEntity
  8
0
100
AcDbLine
 10
8.20581858553388
 20
-15.17977945161376
 30
0.0
 11
19.12769358553387
 21
-15.17977945161376
 31
0.0
  0
LINE
  5
362
330
1F
100
AcDbEntity
  8
0
100
AcDbLine
 10
8.20581858553388
 20
-25.74227945161377
 30
0.0
 11
8.20581858553388
 21
-15.17977945161376
 31
0.0
  0
LINE
  5
363
330
1F
100
AcDbEntity
  8
0
100
AcDbLine
 10
19.12769358553387
 20
-25.74227945161377
 30
0.0
 11
8.20581858553388
 21
-25.74227945161377
 31
0.0
  0
LINE
  5
364
330
1F
100
AcDbEntity
  8
0
100
AcDbLine
 10
19.12769358553387
 20
-15.17977945161376
 30
0.0
 11
19.12769358553387
 21
-25.74227945161377
 31
0.0
  0
LINE
  5
365
330
1F
100
AcDbEntity
  8
0
100
AcDbLine
 10
19.84644358553388
 20
-15.17977945161376
 30
0.0
 11
30.76831858553387
 21
-15.17977945162099
 31
0.0
  0
LINE
  5
366
330
1F
100
AcDbEntity
  8
0
100
AcDbLine
 10
19.84644358553388
 20
-25.74227945161377
 30
0.0
 11
19.84644358553388
 21
-15.17977945161376
 31
0.0
  0
LINE
  5
367
330
1F
100
AcDbEntity
  8
0
100
AcDbLine
 10
29.48706858553387
 20
-25.74227945162101
 30
0.0
 11
29.65430526931581
 21
-25.7313181802562
 31
0.0
  0
LINE
  5
368
330
1F
100
AcDbEntity
  8
0
100
AcDbLine
 10
29.65430526931581
 20
-25.7313181802562
 30
0.0
 11
29.81868048707148
 21
-25.69862191655387
 31
0.0
  0
LINE
  5
369
330
1F
100
AcDbEntity
  8
0
100
AcDbLine
 10
29.81868048707148
 20
-25.69862191655387
 30
0.0
 11
29.97738173325164
 21
-25.64475010265109
 31
0.0
  0
LINE
  5
36A
330
1F
100
AcDbEntity
  8
0
100
AcDbLine
 10
29.97738173325164
 20
-25.64475010265109
 30
0.0
 11
30.12769358553387
 21
-25.57062450021982
 31
0.0
  0
LINE
  5
36B
330
1F
100
AcDbEntity
  8
0
100
AcDbLine
 10
30.12769358553387
 20
-25.57062450021982
 30
0.0
 11
30.26704416645129
 21
-25.47751341886915
 31
0.0
  0
LINE
  5
36C
330
1F
100
AcDbEntity
  8
0
100
AcDbLine
 10
30.26704416645129
 20
-25.47751341886915
 30
0.0
 11
30.39304914892913
 21
-25.36701001501627
 31
0.0
  0
LINE
  5
36D
330
1F
100
AcDbEntity
  8
0
100
AcDbLine
 10
30.39304914892913
 20
-25.36701001501627
 30
0.0
 11
30.503552552782
 21
-25.24100503253843
 31
0.0
  0
LINE
  5
36E
330
1F
100
AcDbEntity
  8
0
100
AcDbLine
 10
30.503552552782
 20
-25.24100503253843
 30
0.0
 11
30.59666363413269
 21
-25.10165445162101
 31
0.0
  0
LINE
  5
36F
330
1F
100
AcDbEntity
  8
0
100
AcDbLine
 10
30.59666363413269
 20
-25.10165445162101
 30
0.0
 11
30.67078923656396
 21
-24.95134259933878
 31
0.0
  0
LINE
  5
370
330
1F
100
AcDbEntity
  8
0
100
AcDbLine
 10
30.67078923656396
 20
-24.95134259933878
 30
0.0
 11
30.72466105046674
 21
-24.79264135315861
 31
0.0
  0
LINE
  5
371
330
1F
100
AcDbEntity
  8
0
100
AcDbLine
 10
30.72466105046674
 20
-24.79264135315861
 30
0.0
 11
30.75735731416906
 21
-24.62826613540295
 31
0.0
  0
LINE
  5
372
330
1F
100
AcDbEntity
  8
0
100
AcDbLine
 10
30.75735731416906
 20
-24.62826613540295
 30
0.0
 11
30.76831858553387
 21
-24.46102945162101
 31
0.0
  0
LINE
  5
373
330
1F
100
AcDbEntity
  8
0
100
AcDbLine
 10
29.74812096997398
 20
-26.44391917436862
 30
0.0
 11
29.48706858553387
 21
-26.46102945162101
 31
0.0
  0
LINE
  5
374
330
1F
100
AcDbEntity
  8
0
100
AcDbLine
 10
30.00470667573891
 20
-26.39288110419914
 30
0.0
 11
29.74812096997398
 21
-26.44391917436862
 31
0.0
  0
LINE
  5
375
330
1F
100
AcDbEntity
  8
0
100
AcDbLine
 10
30.25243545026405
 20
-26.30878851664358
 30
0.0
 11
30.00470667573891
 21
-26.39288110419914
 31
0.0
  0
LINE
  5
376
330
1F
100
AcDbEntity
  8
0
100
AcDbLine
 10
30.48706858553387
 20
-26.19308025918988
 30
0.0
 11
30.25243545026405
 21
-26.30878851664358
 31
0.0
  0
LINE
  5
377
330
1F
100
AcDbEntity
  8
0
100
AcDbLine
 10
30.70459144355132
 20
-26.04773613220348
 30
0.0
 11
30.48706858553387
 21
-26.19308025918988
 31
0.0
  0
LINE
  5
378
330
1F
100
AcDbEntity
  8
0
100
AcDbLine
 10
30.90128214790696
 20
-25.8752430139941
 30
0.0
 11
30.70459144355132
 21
-26.04773613220348
 31
0.0
  0
LINE
  5
379
330
1F
100
AcDbEntity
  8
0
100
AcDbLine
 10
31.07377526611634
 20
-25.67855230963845
 30
0.0
 11
30.90128214790696
 21
-25.8752430139941
 31
0.0
  0
LINE
  5
37A
330
1F
100
AcDbEntity
  8
0
100
AcDbLine
 10
31.21911939310275
 20
-25.46102945162101
 30
0.0
 11
31.07377526611634
 21
-25.67855230963845
 31
0.0
  0
LINE
  5
37B
330
1F
100
AcDbEntity
  8
0
100
AcDbLine
 10
31.33482765055644
 20
-25.22639631635119
 30
0.0
 11
31.21911939310275
 21
-25.46102945162101
 31
0.0
  0
LINE
  5
37C
330
1F
100
AcDbEntity
  8
0
100
AcDbLine
 10
31.418920238112
 20
-24.97866754182605
 30
0.0
 11
31.33482765055644
 21
-25.22639631635119
 31
0.0
  0
LINE
  5
37D
330
1F
100
AcDbEntity
  8
0
100
AcDbLine
 10
31.46995830828148
 20
-24.72208183606111
 30
0.0
 11
31.418920238112
 21
-24.97866754182605
 31
0.0
  0
LINE
  5
37E
330
1F
100
AcDbEntity
  8
0
100
AcDbLine
 10
31.48706858553387
 20
-24.46102945162101
 30
0.0
 11
31.46995830828148
 21
-24.72208183606111
 31
0.0
  0
LINE
  5
37F
330
1F
100
AcDbEntity
  8
0
100
AcDbLine
 10
30.76831858553387
 20
-24.46102945162101
 30
0.0
 11
31.48706858553387
 21
-24.46102945162101
 31
0.0
  0
LINE
  5
380
330
1F
100
AcDbEntity
  8
0
100
AcDbLine
 10
29.48706858553387
 20
-26.46102945162101
 30
0.0
 11
29.48706858553387
 21
-25.74227945162101
 31
0.0
  0
LINE
  5
381
330
1F
100
AcDbEntity
  8
0
100
AcDbLine
 10
7.487068585533873
 20
-14.46102945161376
 30
0.0
 11
7.487068585533876
 21
-26.46102945161377
 31
0.0
  0
LINE
  5
382
330
1F
100
AcDbEntity
  8
0
100
AcDbLine
 10
7.487068585533873
 20
-14.46102945161376
 30
0.0
 11
31.48706858553387
 21
-14.461029451621
 31
0.0
  0
LINE
  5
383
330
1F
100
AcDbEntity
  8
0
100
AcDbLine
 10
-46.51293146802229
 20
-0.4610294516124327
 30
0.0
 11
-46.51293146802229
 21
-48.46102945161246
 31
0.0
  0
LINE
  5
384
330
1F
100
AcDbEntity
  8
0
100
AcDbLine
 10
49.48706853197771
 20
-48.46102945161246
 30
0.0
 11
49.48706853197771
 21
-0.4610294516124327
 31
0.0
  0
LINE
  5
385
330
1F
100
AcDbEntity
  8
0
100
AcDbLine
 10
49.48706853197771
 20
-0.4610294516124327
 30
0.0
 11
-46.51293146802229
 21
-0.4610294516124327
 31
0.0
  0
LINE
  5
386
330
1F
100
AcDbEntity
  8
0
100
AcDbLine
 10
-46.51293146802229
 20
-48.46102945161246
 30
0.0
 11
49.48706853197771
 21
-48.46102945161246
 31
0.0
  0
LINE
  5
387
330
1F
100
AcDbEntity
  8
0
100
AcDbLine
 10
-46.51293146802229
 20
47.5389705483876
 30
0.0
 11
-46.51293146802229
 21
-0.4610294516124327
 31
0.0
  0
LINE
  5
388
330
1F
100
AcDbEntity
  8
0
100
AcDbLine
 10
49.48706853197771
 20
-0.4610294516124327
 30
0.0
 11
49.48706853197771
 21
47.5389705483876
 31
0.0
  0
LINE
  5
389
330
1F
100
AcDbEntity
  8
0
100
AcDbLine
 10
49.48706853197771
 20
47.5389705483876
 30
0.0
 11
-46.51293146802229
 21
47.5389705483876
 31
0.0
  0
LINE
  5
38A
330
1F
100
AcDbEntity
  8
0
100
AcDbLine
 10
-46.51293146802229
 20
-0.4610294516124327
 30
0.0
 11
49.48706853197771
 21
-0.4610294516124327
 31
0.0
  0
ENDSEC
  0
SECTION
  2
OBJECTS
  0
DICTIONARY
  5
C
330
0
100
AcDbDictionary
  3
ACAD_GROUP
350
D
  3
ACAD_LAYOUT
350
1A
  3
ACAD_MATERIAL
350
43
  3
ACAD_MLEADERSTYLE
350
5B
  3
ACAD_MLINESTYLE
350
17
  3
ACAD_PLOTSETTINGS
350
19
  3
ACAD_SCALELIST
350
47
  3
ACAD_VISUALSTYLE
350
2A
  3
ACDBHEADERROUNDTRIPXREC
350
38B
  3
ACDBVARIABLEDICTIONARY
350
3AC
  3
DWGPROPS
350
3B3
  0
DICTIONARY
  5
3B4
330
8
100
AcDbDictionary
280
     1
  3
ACAD_XREC_ROUNDTRIP
360
3B5
  0
DICTIONARY
  5
D
102
{ACAD_REACTORS
330
C
102
}
330
C
100
AcDbDictionary
  0
DICTIONARY
  5
1A
102
{ACAD_REACTORS
330
C
102
}
330
C
100
AcDbDictionary
  0
DICTIONARY
  5
43
102
{ACAD_REACTORS
330
C
102
}
330
C
100
AcDbDictionary
  3
BYBLOCK
350
45
  3
BYLAYER
350
44
  3
GLOBAL
350
46
  0
DICTIONARY
  5
5B
102
{ACAD_REACTORS
330
C
102
}
330
C
100
AcDbDictionary
  3
STANDARD
350
5C
  0
DICTIONARY
  5
17
102
{ACAD_REACTORS
330
C
102
}
330
C
100
AcDbDictionary
  3
STANDARD
350
18
  0
DICTIONARY
  5
19
102
{ACAD_REACTORS
330
C
102
}
330
C
100
AcDbDictionary
  0
DICTIONARY
  5
47
102
{ACAD_REACTORS
330
C
102
}
330
C
100
AcDbDictionary
  3
A0
350
48
  3
A1
350
49
  3
A2
350
4A
  3
A3
350
4B
  3
A4
350
4C
  3
A5
350
4D
  3
A6
350
4E
  3
A7
350
4F
  3
A8
350
50
  3
A9
350
51
  3
B1
350
52
  3
B2
350
53
  3
B3
350
54
  3
B4
350
55
  3
B5
350
56
  3
B6
350
57
  3
B7
350
58
  0
DICTIONARY
  5
2A
102
{ACAD_REACTORS
330
C
102
}
330
C
100
AcDbDictionary
  3
2DWIREFRAME
350
2F
  3
BASIC
350
32
  3
BRIGHTEN
350
36
  3
COLORCHANGE
350
3A
  3
CONCEPTUAL
350
34
  3
DIM
350
35
  3
EDGECOLOROFF
350
3D
  3
FACEPATTERN
350
39
  3
FLAT
350
2B
  3
FLATWITHEDGES
350
2C
  3
GOURAUD
350
2D
  3
GOURAUDWITHEDGES
350
2E
  3
HIDDEN
350
31
  3
JITTEROFF
350
3B
  3
LINEPATTERN
350
38
  3
OVERHANGOFF
350
3C
  3
REALISTIC
350
33
  3
SHADED
350
42
  3
SHADED_WITH_EDGES
350
41
  3
SHADES_OF_GRAY
350
3E
  3
SKETCHY
350
3F
  3
THICKEN
350
37
  3
WIREFRAME
350
30
  3
X-RAY
350
40
  0
DICTIONARY
  5
38B
102
{ACAD_REACTORS
330
C
102
}
330
C
100
AcDbDictionary
  3
CEPSNID
350
395
  3
CEPSNTYPE
350
394
  3
DIMSTYLEDATA
350
3AB
  3
FINGERPRINTGUID
350
396
  3
HYPERLINKBASE
350
38E
  3
INSUNITS
350
393
  3
LAYOUTDICT
350
390
  3
LWETCUNION
350
392
  3
PLOTSETDICT
350
391
  3
PSVPSCALE
350
398
  3
PUCSBASE
350
39B
  3
PUCSORGBACK
350
3A1
  3
PUCSORGBOTTOM
350
39D
  3
PUCSORGFRONT
350
3A0
  3
PUCSORGLEFT
350
39E
  3
PUCSORGRIGHT
350
39F
  3
PUCSORGTOP
350
39C
  3
PUCSORTHOREF
350
399
  3
PUCSORTHOVIEW
350
39A
  3
STYLESHEET
350
38F
  3
TSTACKALIGN
350
38C
  3
TSTACKSIZE
350
38D
  3
UCSBASE
350
3A4
  3
UCSORGBACK
350
3AA
  3
UCSORGBOTTOM
350
3A6
  3
UCSORGFRONT
350
3A9
  3
UCSORGLEFT
350
3A7
  3
UCSORGRIGHT
350
3A8
  3
UCSORGTOP
350
3A5
  3
UCSORTHOREF
350
3A2
  3
UCSORTHOVIEW
350
3A3
  3
VERSIONGUID
350
397
  0
DICTIONARY
  5
3AC
102
{ACAD_REACTORS
330
C
102
}
330
C
100
AcDbDictionary
  3
CANNOSCALE
350
3B6
  3
CMLEADERSTYLE
350
3AE
  3
CTABLESTYLE
350
3AD
  3
DIMASSOC
350
3B1
  3
HIDETEXT
350
3B2
  3
MSLTSCALE
350
3B7
  0
XRECORD
  5
3B3
102
{ACAD_REACTORS
330
C
102
}
330
C
100
AcDbXrecord
  1
DWGPROPS COOKIE
  2

  3

  4

  6

  7

  8
loido
  9

300
=
301
=
302
=
303
=
304
=
305
=
306
=
307
=
308
=
309
=
 40
0.0
 41
2460029.76742934
 42
2460029.76742956
  1

 90
        0
  0
XRECORD
  5
3B5
102
{ACAD_REACTORS
330
3B4
102
}
330
3B4
100
AcDbXrecord
102
VTR_0.000_0.000_1.000_1.000_VISUALSTYLE
340
2F
102
VTR_0.000_0.000_1.000_1.000_GRIDDISPLAY
 70
     3
102
VTR_0.000_0.000_1.000_1.000_GRIDMAJOR
 70
     5
102
VTR_0.000_0.000_1.000_1.000_DEFAULTLIGHTING
280
     1
102
VTR_0.000_0.000_1.000_1.000_DEFAULTLIGHTINGTYPE
 70
     1
102
VTR_0.000_0.000_1.000_1.000_BRIGHTNESS
141
0.0
102
VTR_0.000_0.000_1.000_1.000_CONTRAST
142
0.0
  0
MATERIAL
  5
45
102
{ACAD_REACTORS
330
43
102
}
102
{ACAD_XDICTIONARY
360
3BA
102
}
330
43
100
AcDbMaterial
  1
BYBLOCK
  0
MATERIAL
  5
44
102
{ACAD_REACTORS
330
43
102
}
102
{ACAD_XDICTIONARY
360
3B8
102
}
330
43
100
AcDbMaterial
  1
BYLAYER
  0
MATERIAL
  5
46
102
{ACAD_REACTORS
330
43
102
}
102
{ACAD_XDICTIONARY
360
3BC
102
}
330
43
100
AcDbMaterial
  1
GLOBAL
  0
ACAD_PROXY_OBJECT
  5
5C
102
{ACAD_REACTORS
330
5B
102
}
330
5B
100
AcDbProxyObject
 90
      499
 91
      505
 93
      610
310
40901902A4063FBFFFFFE056BD1B81E855B9FC0AD7A3703D0AD73F4214DD185B99185C9900AD7A3703D0AC73F90141901A02B5E8DC0F42B1CFC02B5E8DC0F42B1CFE5764000000000000300FC0
340
14
340
0
340
11
340
0
 94
        0
1001
ACAD_MLEADERVER
1070
     2
  0
MLINESTYLE
  5
18
102
{ACAD_REACTORS
330
17
102
}
330
17
100
AcDbMlineStyle
  2
Standard
 70
     0
  3

 62
   256
 51
90.0
 52
90.0
 71
     2
 49
0.5
 62
   256
  6
BYLAYER
 49
-0.5
 62
   256
  6
BYLAYER
  0
ACAD_PROXY_OBJECT
  5
48
102
{ACAD_REACTORS
330
47
102
}
330
47
100
AcDbProxyObject
 90
      499
 91
      503
 93
       41
310
903313A31580
  0
ACAD_PROXY_OBJECT
  5
49
102
{ACAD_REACTORS
330
47
102
}
330
47
100
AcDbProxyObject
 90
      499
 91
      503
 93
      257
310
90E312F31323822203D2031272D3022000000000000200FC000000000000284000
  0
ACAD_PROXY_OBJECT
  5
4A
102
{ACAD_REACTORS
330
47
102
}
330
47
100
AcDbProxyObject
 90
      499
 91
      503
 93
      249
310
90D312F363422203D2031272D3022000000000000240FC000000000000284000
  0
ACAD_PROXY_OBJECT
  5
4B
102
{ACAD_REACTORS
330
47
102
}
330
47
100
AcDbProxyObject
 90
      499
 91
      503
 93
      249
310
90D312F333222203D2031272D3022000000000000280FC000000000000284000
  0
ACAD_PROXY_OBJECT
  5
4C
102
{ACAD_REACTORS
330
47
102
}
330
47
100
AcDbProxyObject
 90
      499
 91
      503
 93
      249
310
90D312F313622203D2031272D30220000000000002C0FC000000000000284000
  0
ACAD_PROXY_OBJECT
  5
4D
102
{ACAD_REACTORS
330
47
102
}
330
47
100
AcDbProxyObject
 90
      499
 91
      503
 93
      249
310
90D332F333222203D2031272D30220000000000002E0FC000000000000284000
  0
ACAD_PROXY_OBJECT
  5
4E
102
{ACAD_REACTORS
330
47
102
}
330
47
100
AcDbProxyObject
 90
      499
 91
      503
 93
      241
310
90C312F3822203D2031272D3022000000000000300FC000000000000284000
  0
ACAD_PROXY_OBJECT
  5
4F
102
{ACAD_REACTORS
330
47
102
}
330
47
100
AcDbProxyObject
 90
      499
 91
      503
 93
      249
310
90D332F313622203D2031272D3022000000000000320FC000000000000284000
  0
ACAD_PROXY_OBJECT
  5
50
102
{ACAD_REACTORS
330
47
102
}
330
47
100
AcDbProxyObject
 90
      499
 91
      503
 93
      241
310
90C312F3422203D2031272D3022000000000000340FC000000000000284000
  0
ACAD_PROXY_OBJECT
  5
51
102
{ACAD_REACTORS
330
47
102
}
330
47
100
AcDbProxyObject
 90
      499
 91
      503
 93
      241
310
90C332F3822203D2031272D3022000000000000360FC000000000000284000
  0
ACAD_PROXY_OBJECT
  5
52
102
{ACAD_REACTORS
330
47
102
}
330
47
100
AcDbProxyObject
 90
      499
 91
      503
 93
      241
310
90C312F3222203D2031272D3022000000000000380FC000000000000284000
  0
ACAD_PROXY_OBJECT
  5
53
102
{ACAD_REACTORS
330
47
102
}
330
47
100
AcDbProxyObject
 90
      499
 91
      503
 93
      241
310
90C332F3422203D2031272D30220000000000003A0FC000000000000284000
  0
ACAD_PROXY_OBJECT
  5
54
102
{ACAD_REACTORS
330
47
102
}
330
47
100
AcDbProxyObject
 90
      499
 91
      503
 93
      161
310
90A3122203D2031272D30224000000000000284000
  0
ACAD_PROXY_OBJECT
  5
55
102
{ACAD_REACTORS
330
47
102
}
330
47
100
AcDbProxyObject
 90
      499
 91
      503
 93
      257
310
90E312D312F3222203D2031272D30220000000000003E0FC000000000000284000
  0
ACAD_PROXY_OBJECT
  5
56
102
{ACAD_REACTORS
330
47
102
}
330
47
100
AcDbProxyObject
 90
      499
 91
      503
 93
      225
310
90A3322203D2031272D302200000000000002100000000000000284000
  0
ACAD_PROXY_OBJECT
  5
57
102
{ACAD_REACTORS
330
47
102
}
330
47
100
AcDbProxyObject
 90
      499
 91
      503
 93
      225
310
90A3622203D2031272D302200000000000006100000000000000284000
  0
ACAD_PROXY_OBJECT
  5
58
102
{ACAD_REACTORS
330
47
102
}
330
47
100
AcDbProxyObject
 90
      499
 91
      503
 93
      249
310
90D31272D3022203D2031272D30220000000000000A100000000000000284000
  0
ACAD_PROXY_OBJECT
  5
2F
102
{ACAD_REACTORS
330
2A
102
}
330
2A
100
AcDbProxyObject
 90
      499
 91
      501
 93
      436
310
42CC9915DA5C99599C985B595049028333333333333E33F0000000000000F90107901411070040501600405405064090741402480A0340
1001
ACAD
1000
AcDbSavedByObjectVersion
1070
     0
  0
ACAD_PROXY_OBJECT
  5
32
102
{ACAD_REACTORS
330
2A
102
}
330
2A
100
AcDbProxyObject
 90
      499
 91
      501
 93
      388
310
4150985CDA58D07406404333333333333E33F0000000000000F90107A41107004050150841D405064090741402480A0350
1001
ACAD
1000
AcDbSavedByObjectVersion
1070
     0
  0
ACAD_PROXY_OBJECT
  5
36
102
{ACAD_REACTORS
330
2A
102
}
330
2A
100
AcDbProxyObject
 90
      499
 91
      501
 93
      428
310
42109C9A59DA1D195B90C409028333333333333E33F0000000000000F9010790141107004050150841D405064090741402480A029950
1001
ACAD
1000
AcDbSavedByObjectVersion
1070
     0
  0
ACAD_PROXY_OBJECT
  5
3A
102
{ACAD_REACTORS
330
2A
102
}
330
2A
100
AcDbProxyObject
 90
      499
 91
      501
 93
      452
310
42D0DBDB1BDC90DA185B99D95104090240C333333333333E33F0000000000000F90108901411070040501508421405064090741402480A0350
1001
ACAD
1000
AcDbSavedByObjectVersion
1070
     0
  0
ACAD_PROXY_OBJECT
  5
34
102
{ACAD_REACTORS
330
2A
102
}
330
2A
100
AcDbProxyObject
 90
      499
 91
      501
 93
      500
310
4290DBDB98D95C1D1D585B10940D028333333333333E33F0000000000000F90107902409070040501000000000018199010841D405064090740C02480A0340
1001
ACAD
1000
AcDbSavedByObjectVersion
1070
     0
  0
ACAD_PROXY_OBJECT
  5
35
102
{ACAD_REACTORS
330
2A
102
}
330
2A
100
AcDbProxyObject
 90
      499
 91
      501
 93
      412
310
40D11A5B50B409028333333333333E33F0000000000000F9010790141107004050150841D405064090741402480A02677FFFFFD0
1001
ACAD
1000
AcDbSavedByObjectVersion
1070
     0
  0
ACAD_PROXY_OBJECT
  5
3D
102
{ACAD_REACTORS
330
2A
102
}
330
2A
100
AcDbProxyObject
 90
      499
 91
      501
 93
      452
310
43115919D950DBDB1BDC93D999916409028333333333333E33F0000000000000F9010790141107004050150841D405064090741402480A0350
1001
ACAD
1000
AcDbSavedByObjectVersion
1070
     0
  0
ACAD_PROXY_OBJECT
  5
39
102
{ACAD_REACTORS
330
2A
102
}
330
2A
100
AcDbProxyObject
 90
      499
 91
      501
 93
      444
310
42D19858D95C185D1D195C9B90F409028333333333333E33F0000000000000F9010790141107004050150841D405064090741402480A0350
1001
ACAD
1000
AcDbSavedByObjectVersion
1070
     0
  0
ACAD_PROXY_OBJECT
  5
2B
102
{ACAD_REACTORS
330
2A
102
}
330
2A
100
AcDbProxyObject
 90
      499
 91
      501
 93
      380
310
41119B185D240901404333333333333E33F0000000000000F9010740A907004050150841D405064090741402480A1B50
1001
ACAD
1000
AcDbSavedByObjectVersion
1070
     0
  0
ACAD_PROXY_OBJECT
  5
2C
102
{ACAD_REACTORS
330
2A
102
}
330
2A
100
AcDbProxyObject
 90
      499
 91
      501
 93
      468
310
43519B185D15DA5D1A115919D95CD0140901404333333333333E33F0000000000000F90107409019070040501600405405064090741402480A1B50
1001
ACAD
1000
AcDbSavedByObjectVersion
1070
     0
  0
ACAD_PROXY_OBJECT
  5
2D
102
{ACAD_REACTORS
330
2A
102
}
330
2A
100
AcDbProxyObject
 90
      499
 91
      501
 93
      404
310
41D1DBDD5C985D5910240902404333333333333E33F0000000000000F9010740A9070040501641D405064090741402480A1B50
1001
ACAD
1000
AcDbSavedByObjectVersion
1070
     0
  0
ACAD_PROXY_OBJECT
  5
2E
102
{ACAD_REACTORS
330
2A
102
}
330
2A
100
AcDbProxyObject
 90
      499
 91
      501
 93
      492
310
4411DBDD5C985D5915DA5D1A115919D95CD0340902404333333333333E33F0000000000000F90107409019070040501600405405064090741402480A1B50
1001
ACAD
1000
AcDbSavedByObjectVersion
1070
     0
  0
ACAD_PROXY_OBJECT
  5
31
102
{ACAD_REACTORS
330
2A
102
}
330
2A
100
AcDbProxyObject
 90
      499
 91
      501
 93
      476
310
41921A5919195B90640502408333333333333E33F0000000000000F901079024090700405020000000000001110200405405064090740C02480A0340
1001
ACAD
1000
AcDbSavedByObjectVersion
1070
     0
  0
ACAD_PROXY_OBJECT
  5
3B
102
{ACAD_REACTORS
330
2A
102
}
330
2A
100
AcDbProxyObject
 90
      499
 91
      501
 93
      428
310
42529A5D1D195C93D999914409028333333333333E33F0000000000000F9010790141107004050150A41D405064090741402480A0350
1001
ACAD
1000
AcDbSavedByObjectVersion
1070
     0
  0
ACAD_PROXY_OBJECT
  5
38
102
{ACAD_REACTORS
330
2A
102
}
330
2A
100
AcDbProxyObject
 90
      499
 91
      501
 93
      444
310
42D31A5B995C185D1D195C9B90E409028333333333333E33F0000000000000F9010790141107004050750841D405064090741402483A0350
1001
ACAD
1000
AcDbSavedByObjectVersion
1070
     0
  0
ACAD_PROXY_OBJECT
  5
3C
102
{ACAD_REACTORS
330
2A
102
}
330
2A
100
AcDbProxyObject
 90
      499
 91
      501
 93
      444
310
42D3DD995C9A185B99D3D999915409028333333333333E33F0000000000000F9010790141107004050150941D405064090741402480A0350
1001
ACAD
1000
AcDbSavedByObjectVersion
1070
     0
  0
ACAD_PROXY_OBJECT
  5
33
102
{ACAD_REACTORS
330
2A
102
}
330
2A
100
AcDbProxyObject
 90
      499
 91
      501
 93
      428
310
425499585B1A5CDD1A58D08409038333333333333E33F0000000000000F9010740A907004050150800405405064090740C02480A1B40
1001
ACAD
1000
AcDbSavedByObjectVersion
1070
     0
  0
ACAD_PROXY_OBJECT
  5
42
102
{ACAD_REACTORS
330
2A
102
}
330
2A
100
AcDbProxyObject
 90
      499
 91
      501
 93
      420
310
4194DA1859195911B40902404333333333333E33F0000000000000F9010740A41107004050150800405405064090840C02480A0B40
1001
ACAD
1000
AcDbSavedByObjectVersion
1070
     0
  0
ACAD_PROXY_OBJECT
  5
41
102
{ACAD_REACTORS
330
2A
102
}
330
2A
100
AcDbProxyObject
 90
      499
 91
      501
 93
      516
310
4454DA18591959081DDA5D1A08195919D95CD1A40902404333333333333E33F0000000000000F901074090142907004050250800405405064090740C02480A0B40
1001
ACAD
1000
AcDbSavedByObjectVersion
1070
     0
  0
ACAD_PROXY_OBJECT
  5
3E
102
{ACAD_REACTORS
330
2A
102
}
330
2A
100
AcDbProxyObject
 90
      499
 91
      501
 93
      532
310
4394DA1859195CC81BD98811DC985E5174090240C333333333333E33F0000000000000F901079024090741D01000000000000111010841D405064090740C02480A0340
1001
ACAD
1000
AcDbSavedByObjectVersion
1070
     0
  0
ACAD_PROXY_OBJECT
  5
3F
102
{ACAD_REACTORS
330
2A
102
}
330
2A
100
AcDbProxyObject
 90
      499
 91
      501
 93
      476
310
41D4DAD95D18DA1E51840502408333333333333E33F0000000000000F901079024090741D01000000000000111010B41D405064090741802480A0340
1001
ACAD
1000
AcDbSavedByObjectVersion
1070
     0
  0
ACAD_PROXY_OBJECT
  5
37
102
{ACAD_REACTORS
330
2A
102
}
330
2A
100
AcDbProxyObject
 90
      499
 91
      501
 93
      412
310
41D51A1A58DAD95B90D409028333333333333E33F0000000000000F9010790141107004050150C41D405064090741402480A0350
1001
ACAD
1000
AcDbSavedByObjectVersion
1070
     0
  0
ACAD_PROXY_OBJECT
  5
30
102
{ACAD_REACTORS
330
2A
102
}
330
2A
100
AcDbProxyObject
 90
      499
 91
      501
 93
      420
310
4255DA5C99599C985B595059028333333333333E33F0000000000000F90107901411070040501600405405064090740C02480A0340
1001
ACAD
1000
AcDbSavedByObjectVersion
1070
     0
  0
ACAD_PROXY_OBJECT
  5
40
102
{ACAD_REACTORS
330
2A
102
}
330
2A
100
AcDbProxyObject
 90
      499
 91
      501
 93
      404
310
41560B54985E51940902404000000000000E03F0000000000000F9010740501907004050150841D405064090740C02480A1B40
1001
ACAD
1000
AcDbSavedByObjectVersion
1070
     0
  0
XRECORD
  5
395
102
{ACAD_REACTORS
330
38B
102
}
330
38B
100
AcDbXrecord
340
0
  0
XRECORD
  5
394
102
{ACAD_REACTORS
330
38B
102
}
330
38B
100
AcDbXrecord
 90
        0
  0
XRECORD
  5
3AB
102
{ACAD_REACTORS
330
38B
102
}
330
38B
100
AcDbXrecord
1000
DSTYLE
1002
{
1070
   340
340
11
1002
}
  0
XRECORD
  5
396
102
{ACAD_REACTORS
330
38B
102
}
330
38B
100
AcDbXrecord
  1
{5817a563-e28c-481e-ac84-9d45ac7f4883}
  0
XRECORD
  5
38E
102
{ACAD_REACTORS
330
38B
102
}
330
38B
100
AcDbXrecord
  1

  0
XRECORD
  5
393
102
{ACAD_REACTORS
330
38B
102
}
330
38B
100
AcDbXrecord
 90
        1
  0
XRECORD
  5
390
102
{ACAD_REACTORS
330
38B
102
}
330
38B
100
AcDbXrecord
340
1A
  0
XRECORD
  5
392
102
{ACAD_REACTORS
330
38B
102
}
330
38B
100
AcDbXrecord
 90
    10781
  0
XRECORD
  5
391
102
{ACAD_REACTORS
330
38B
102
}
330
38B
100
AcDbXrecord
340
19
  0
XRECORD
  5
398
102
{ACAD_REACTORS
330
38B
102
}
330
38B
100
AcDbXrecord
 40
0.0
  0
XRECORD
  5
39B
102
{ACAD_REACTORS
330
38B
102
}
330
38B
100
AcDbXrecord
340
0
  0
XRECORD
  5
3A1
102
{ACAD_REACTORS
330
38B
102
}
330
38B
100
AcDbXrecord
 10
0.0
 20
0.0
 30
0.0
  0
XRECORD
  5
39D
102
{ACAD_REACTORS
330
38B
102
}
330
38B
100
AcDbXrecord
 10
0.0
 20
0.0
 30
0.0
  0
XRECORD
  5
3A0
102
{ACAD_REACTORS
330
38B
102
}
330
38B
100
AcDbXrecord
 10
0.0
 20
0.0
 30
0.0
  0
XRECORD
  5
39E
102
{ACAD_REACTORS
330
38B
102
}
330
38B
100
AcDbXrecord
 10
0.0
 20
0.0
 30
0.0
  0
XRECORD
  5
39F
102
{ACAD_REACTORS
330
38B
102
}
330
38B
100
AcDbXrecord
 10
0.0
 20
0.0
 30
0.0
  0
XRECORD
  5
39C
102
{ACAD_REACTORS
330
38B
102
}
330
38B
100
AcDbXrecord
 10
0.0
 20
0.0
 30
0.0
  0
XRECORD
  5
399
102
{ACAD_REACTORS
330
38B
102
}
330
38B
100
AcDbXrecord
340
0
  0
XRECORD
  5
39A
102
{ACAD_REACTORS
330
38B
102
}
330
38B
100
AcDbXrecord
 70
     0
  0
XRECORD
  5
38F
102
{ACAD_REACTORS
330
38B
102
}
330
38B
100
AcDbXrecord
  1

  0
XRECORD
  5
38C
102
{ACAD_REACTORS
330
38B
102
}
330
38B
100
AcDbXrecord
 90
        1
  0
XRECORD
  5
38D
102
{ACAD_REACTORS
330
38B
102
}
330
38B
100
AcDbXrecord
 90
       70
  0
XRECORD
  5
3A4
102
{ACAD_REACTORS
330
38B
102
}
330
38B
100
AcDbXrecord
340
0
  0
XRECORD
  5
3AA
102
{ACAD_REACTORS
330
38B
102
}
330
38B
100
AcDbXrecord
 10
0.0
 20
0.0
 30
0.0
  0
XRECORD
  5
3A6
102
{ACAD_REACTORS
330
38B
102
}
330
38B
100
AcDbXrecord
 10
0.0
 20
0.0
 30
0.0
  0
XRECORD
  5
3A9
102
{ACAD_REACTORS
330
38B
102
}
330
38B
100
AcDbXrecord
 10
0.0
 20
0.0
 30
0.0
  0
XRECORD
  5
3A7
102
{ACAD_REACTORS
330
38B
102
}
330
38B
100
AcDbXrecord
 10
0.0
 20
0.0
 30
0.0
  0
XRECORD
  5
3A8
102
{ACAD_REACTORS
330
38B
102
}
330
38B
100
AcDbXrecord
 10
0.0
 20
0.0
 30
0.0
  0
XRECORD
  5
3A5
102
{ACAD_REACTORS
330
38B
102
}
330
38B
100
AcDbXrecord
 10
0.0
 20
0.0
 30
0.0
  0
XRECORD
  5
3A2
102
{ACAD_REACTORS
330
38B
102
}
330
38B
100
AcDbXrecord
340
0
  0
XRECORD
  5
3A3
102
{ACAD_REACTORS
330
38B
102
}
330
38B
100
AcDbXrecord
 70
     0
  0
XRECORD
  5
397
102
{ACAD_REACTORS
330
38B
102
}
330
38B
100
AcDbXrecord
  1
{FAEB1C32-E019-11D5-929B-00C0DF256EC4}
  0
DICTIONARYVAR
  5
3B6
102
{ACAD_REACTORS
330
3AC
102
}
330
3AC
100
DictionaryVariables
280
     0
  1
1:1
  0
DICTIONARYVAR
  5
3AE
102
{ACAD_REACTORS
330
3AC
102
}
330
3AC
100
DictionaryVariables
280
     0
  1
Standard
  0
DICTIONARYVAR
  5
3AD
102
{ACAD_REACTORS
330
3AC
102
}
330
3AC
100
DictionaryVariables
280
     0
  1
Standard
  0
DICTIONARYVAR
  5
3B1
102
{ACAD_REACTORS
330
3AC
102
}
330
3AC
100
DictionaryVariables
280
     0
  1
2
  0
DICTIONARYVAR
  5
3B2
102
{ACAD_REACTORS
330
3AC
102
}
330
3AC
100
DictionaryVariables
280
     0
  1
1
  0
DICTIONARYVAR
  5
3B7
102
{ACAD_REACTORS
330
3AC
102
}
330
3AC
100
DictionaryVariables
280
     0
  1
1
  0
DICTIONARY
  5
3BA
330
45
100
AcDbDictionary
280
     1
  3
ACAD_XREC_ROUNDTRIP
360
3BB
  0
DICTIONARY
  5
3B8
330
44
100
AcDbDictionary
280
     1
  3
ACAD_XREC_ROUNDTRIP
360
3B9
  0
DICTIONARY
  5
3BC
330
46
100
AcDbDictionary
280
     1
  3
ACAD_XREC_ROUNDTRIP
360
3BD
  0
XRECORD
  5
3BB
102
{ACAD_REACTORS
330
3BA
102
}
330
3BA
100
AcDbXrecord
102
MATERIAL
148
0.0
149
0.0
149
0.0
 93
        0
 94
      127
282
     0
 72
     1
 77
     1
171
     1
175
     1
179
     1
273
     0
  0
XRECORD
  5
3B9
102
{ACAD_REACTORS
330
3B8
102
}
330
3B8
100
AcDbXrecord
102
MATERIAL
148
0.0
149
0.0
149
0.0
 93
        0
 94
      127
282
     0
 72
     1
 77
     1
171
     1
175
     1
179
     1
273
     0
  0
XRECORD
  5
3BD
102
{ACAD_REACTORS
330
3BC
102
}
330
3BC
100
AcDbXrecord
102
MATERIAL
148
0.0
149
0.0
149
0.0
 93
        0
 94
      127
282
     0
 72
     1
 77
     1
171
     1
175
     1
179
     1
273
     0
  0
ENDSEC
  0
EOF
