solid GuestRoomShelves
facet normal 0.0 0.0 1.0
  outer loop
    vertex 54.062314913518904 11.382722620187876 2.000000000000001
    vertex 54.062314913518904 11.617277379812036 2.000000000000001
    vertex 54.046875053556136 11.499999999999956 2.000000000000001
  endloop
endfacet
facet normal 0.0 0.0 1.0
  outer loop
    vertex 54.062314913518904 11.617277379812036 2.000000000000001
    vertex 54.062314913518904 11.382722620187876 2.000000000000001
    vertex 54.10758229246631 11.273437499999956 2.000000000000001
  endloop
endfacet
facet normal 0.0 0.0 1.0
  outer loop
    vertex 54.062314913518904 11.617277379812036 2.000000000000001
    vertex 54.10758229246631 11.273437499999956 2.000000000000001
    vertex 54.10758229246631 11.726562499999956 2.000000000000001
  endloop
endfacet
facet normal 0.0 0.0 1.0
  outer loop
    vertex 54.10758229246631 11.726562499999956 2.000000000000001
    vertex 54.10758229246631 11.273437499999956 2.000000000000001
    vertex 54.179592293330984 11.1795922397748 2.000000000000001
  endloop
endfacet
facet normal 0.0 0.0 1.0
  outer loop
    vertex 54.10758229246631 11.726562499999956 2.000000000000001
    vertex 54.179592293330984 11.1795922397748 2.000000000000001
    vertex 54.179592293330984 11.82040776022511 2.000000000000001
  endloop
endfacet
facet normal 0.0 0.0 1.0
  outer loop
    vertex 54.179592293330984 11.82040776022511 2.000000000000001
    vertex 54.179592293330984 11.1795922397748 2.000000000000001
    vertex 54.273437553556136 11.107582238910132 2.000000000000001
  endloop
endfacet
facet normal 0.0 0.0 1.0
  outer loop
    vertex 54.179592293330984 11.82040776022511 2.000000000000001
    vertex 54.273437553556136 11.107582238910132 2.000000000000001
    vertex 54.273437553556136 11.89241776108978 2.000000000000001
  endloop
endfacet
facet normal 0.0 0.0 1.0
  outer loop
    vertex 54.273437553556136 11.89241776108978 2.000000000000001
    vertex 54.273437553556136 11.107582238910132 2.000000000000001
    vertex 54.382722673744055 11.062314859962722 2.000000000000001
  endloop
endfacet
facet normal 0.0 0.0 1.0
  outer loop
    vertex 54.273437553556136 11.89241776108978 2.000000000000001
    vertex 54.382722673744055 11.062314859962722 2.000000000000001
    vertex 54.382722673744055 11.937685140037189 2.000000000000001
  endloop
endfacet
facet normal 0.0 0.0 1.0
  outer loop
    vertex 54.382722673744055 11.937685140037189 2.000000000000001
    vertex 54.382722673744055 11.062314859962722 2.000000000000001
    vertex 54.500000053556136 11.046874999999956 2.000000000000001
  endloop
endfacet
facet normal 0.0 0.0 1.0
  outer loop
    vertex 54.382722673744055 11.937685140037189 2.000000000000001
    vertex 54.500000053556136 11.046874999999956 2.000000000000001
    vertex 54.500000053556136 11.953124999999956 2.000000000000001
  endloop
endfacet
facet normal 0.0 0.0 1.0
  outer loop
    vertex 54.500000053556136 11.953124999999956 2.000000000000001
    vertex 54.500000053556136 11.046874999999956 2.000000000000001
    vertex 54.617277433368216 11.062314859962722 2.000000000000001
  endloop
endfacet
facet normal 0.0 0.0 1.0
  outer loop
    vertex 54.500000053556136 11.953124999999956 2.000000000000001
    vertex 54.617277433368216 11.062314859962722 2.000000000000001
    vertex 54.617277433368216 11.937685140037189 2.000000000000001
  endloop
endfacet
facet normal 0.0 0.0 1.0
  outer loop
    vertex 54.617277433368216 11.937685140037189 2.000000000000001
    vertex 54.617277433368216 11.062314859962722 2.000000000000001
    vertex 54.726562553556136 11.107582238910132 2.000000000000001
  endloop
endfacet
facet normal 0.0 0.0 1.0
  outer loop
    vertex 54.617277433368216 11.937685140037189 2.000000000000001
    vertex 54.726562553556136 11.107582238910132 2.000000000000001
    vertex 54.726562553556136 11.89241776108978 2.000000000000001
  endloop
endfacet
facet normal 0.0 0.0 1.0
  outer loop
    vertex 54.726562553556136 11.89241776108978 2.000000000000001
    vertex 54.726562553556136 11.107582238910132 2.000000000000001
    vertex 54.82040781378129 11.1795922397748 2.000000000000001
  endloop
endfacet
facet normal 0.0 0.0 1.0
  outer loop
    vertex 54.726562553556136 11.89241776108978 2.000000000000001
    vertex 54.82040781378129 11.1795922397748 2.000000000000001
    vertex 54.82040781378129 11.82040776022511 2.000000000000001
  endloop
endfacet
facet normal 0.0 0.0 1.0
  outer loop
    vertex 54.82040781378129 11.82040776022511 2.000000000000001
    vertex 54.82040781378129 11.1795922397748 2.000000000000001
    vertex 54.89241781464596 11.273437499999956 2.000000000000001
  endloop
endfacet
facet normal 0.0 0.0 1.0
  outer loop
    vertex 54.82040781378129 11.82040776022511 2.000000000000001
    vertex 54.89241781464596 11.273437499999956 2.000000000000001
    vertex 54.89241781464596 11.726562499999956 2.000000000000001
  endloop
endfacet
facet normal 0.0 0.0 1.0
  outer loop
    vertex 54.89241781464596 11.726562499999956 2.000000000000001
    vertex 54.89241781464596 11.273437499999956 2.000000000000001
    vertex 54.93768519359337 11.382722620187876 2.000000000000001
  endloop
endfacet
facet normal 0.0 0.0 1.0
  outer loop
    vertex 54.89241781464596 11.726562499999956 2.000000000000001
    vertex 54.93768519359337 11.382722620187876 2.000000000000001
    vertex 54.93768519359337 11.617277379812036 2.000000000000001
  endloop
endfacet
facet normal 0.0 0.0 1.0
  outer loop
    vertex 54.93768519359337 11.617277379812036 2.000000000000001
    vertex 54.93768519359337 11.382722620187876 2.000000000000001
    vertex 54.953125053556136 11.499999999999954 2.000000000000001
  endloop
endfacet
facet normal 0.5811009608514666 0.44589445000182787 0.6808082055579749
  outer loop
    vertex 54.89241781464596 11.726562499999956 2.000000000000001
    vertex 54.85355344414941 11.853553390593229 1.9500000000000008
    vertex 54.82040781378129 11.82040776022511 2.000000000000001
  endloop
endfacet
facet normal 0.5811009608514666 0.44589445000182787 0.6808082055579749
  outer loop
    vertex 54.85355344414941 11.853553390593229 1.9500000000000008
    vertex 54.89241781464596 11.726562499999956 2.000000000000001
    vertex 54.93301275544835 11.749999999999956 1.9500000000000008
  endloop
endfacet
facet normal 0.4458944500018313 0.5811009608514635 0.6808082055579753
  outer loop
    vertex 54.82040781378129 11.82040776022511 2.000000000000001
    vertex 54.750000053556136 11.933012701892174 1.9500000000000008
    vertex 54.726562553556136 11.89241776108978 2.000000000000001
  endloop
endfacet
facet normal 0.4458944500018313 0.5811009608514635 0.6808082055579753
  outer loop
    vertex 54.750000053556136 11.933012701892174 1.9500000000000008
    vertex 54.82040781378129 11.82040776022511 2.000000000000001
    vertex 54.85355344414941 11.853553390593229 1.9500000000000008
  endloop
endfacet
facet normal 0.28030096926000175 0.6767064015338069 0.6808082055579748
  outer loop
    vertex 54.726562553556136 11.89241776108978 2.000000000000001
    vertex 54.6294095761074 11.98296291314449 1.9500000000000008
    vertex 54.617277433368216 11.937685140037189 2.000000000000001
  endloop
endfacet
facet normal 0.28030096926000175 0.6767064015338069 0.6808082055579748
  outer loop
    vertex 54.6294095761074 11.98296291314449 1.9500000000000008
    vertex 54.726562553556136 11.89241776108978 2.000000000000001
    vertex 54.750000053556136 11.933012701892174 1.9500000000000008
  endloop
endfacet
facet normal 0.09560544068234426 0.7261954192618293 0.6808082055579757
  outer loop
    vertex 54.500000053556136 11.953124999999956 2.000000000000001
    vertex 54.6294095761074 11.98296291314449 1.9500000000000008
    vertex 54.500000053556136 11.999999999999956 1.9500000000000008
  endloop
endfacet
facet normal 0.09560544068234426 0.7261954192618293 0.6808082055579757
  outer loop
    vertex 54.6294095761074 11.98296291314449 1.9500000000000008
    vertex 54.500000053556136 11.953124999999956 2.000000000000001
    vertex 54.617277433368216 11.937685140037189 2.000000000000001
  endloop
endfacet
facet normal -0.09560544068234426 0.7261954192618293 0.6808082055579757
  outer loop
    vertex 54.382722673744055 11.937685140037189 2.000000000000001
    vertex 54.500000053556136 11.999999999999956 1.9500000000000008
    vertex 54.37059053100487 11.98296291314449 1.9500000000000008
  endloop
endfacet
facet normal -0.09560544068234426 0.7261954192618293 0.6808082055579757
  outer loop
    vertex 54.500000053556136 11.999999999999956 1.9500000000000008
    vertex 54.382722673744055 11.937685140037189 2.000000000000001
    vertex 54.500000053556136 11.953124999999956 2.000000000000001
  endloop
endfacet
facet normal -0.28030096926000175 0.6767064015338068 0.6808082055579749
  outer loop
    vertex 54.273437553556136 11.89241776108978 2.000000000000001
    vertex 54.37059053100487 11.98296291314449 1.9500000000000008
    vertex 54.250000053556136 11.933012701892174 1.9500000000000008
  endloop
endfacet
facet normal -0.28030096926000175 0.6767064015338068 0.6808082055579749
  outer loop
    vertex 54.37059053100487 11.98296291314449 1.9500000000000008
    vertex 54.273437553556136 11.89241776108978 2.000000000000001
    vertex 54.382722673744055 11.937685140037189 2.000000000000001
  endloop
endfacet
facet normal -0.4458944500018314 0.5811009608514635 0.6808082055579752
  outer loop
    vertex 54.179592293330984 11.82040776022511 2.000000000000001
    vertex 54.250000053556136 11.933012701892174 1.9500000000000008
    vertex 54.14644666296286 11.853553390593229 1.9500000000000008
  endloop
endfacet
facet normal -0.4458944500018314 0.5811009608514635 0.6808082055579752
  outer loop
    vertex 54.250000053556136 11.933012701892174 1.9500000000000008
    vertex 54.179592293330984 11.82040776022511 2.000000000000001
    vertex 54.273437553556136 11.89241776108978 2.000000000000001
  endloop
endfacet
facet normal -0.5811009608514665 0.4458944500018278 0.680808205557975
  outer loop
    vertex 54.10758229246631 11.726562499999956 2.000000000000001
    vertex 54.14644666296286 11.853553390593229 1.9500000000000008
    vertex 54.06698735166392 11.749999999999956 1.9500000000000008
  endloop
endfacet
facet normal -0.5811009608514665 0.4458944500018278 0.680808205557975
  outer loop
    vertex 54.14644666296286 11.853553390593229 1.9500000000000008
    vertex 54.10758229246631 11.726562499999956 2.000000000000001
    vertex 54.179592293330984 11.82040776022511 2.000000000000001
  endloop
endfacet
facet normal -0.6767064015338204 0.28030096925999787 0.680808205557963
  outer loop
    vertex 54.062314913518904 11.617277379812036 2.000000000000001
    vertex 54.06698735166392 11.749999999999956 1.9500000000000008
    vertex 54.0170371404116 11.629409522551216 1.9500000000000008
  endloop
endfacet
facet normal -0.6767064015338204 0.28030096925999787 0.680808205557963
  outer loop
    vertex 54.06698735166392 11.749999999999956 1.9500000000000008
    vertex 54.062314913518904 11.617277379812036 2.000000000000001
    vertex 54.10758229246631 11.726562499999956 2.000000000000001
  endloop
endfacet
facet normal -0.7261954192618295 0.0956054406823562 0.6808082055579738
  outer loop
    vertex 54.062314913518904 11.617277379812036 2.000000000000001
    vertex 54.000000053556136 11.499999999999956 1.9500000000000008
    vertex 54.046875053556136 11.499999999999956 2.000000000000001
  endloop
endfacet
facet normal -0.7261954192618295 0.0956054406823562 0.6808082055579738
  outer loop
    vertex 54.000000053556136 11.499999999999956 1.9500000000000008
    vertex 54.062314913518904 11.617277379812036 2.000000000000001
    vertex 54.0170371404116 11.629409522551216 1.9500000000000008
  endloop
endfacet
facet normal -0.7261954192618295 -0.0956054406823562 0.6808082055579738
  outer loop
    vertex 54.062314913518904 11.382722620187876 2.000000000000001
    vertex 54.000000053556136 11.499999999999956 1.9500000000000008
    vertex 54.0170371404116 11.370590477448696 1.9500000000000008
  endloop
endfacet
facet normal -0.7261954192618295 -0.0956054406823562 0.6808082055579738
  outer loop
    vertex 54.000000053556136 11.499999999999956 1.9500000000000008
    vertex 54.062314913518904 11.382722620187876 2.000000000000001
    vertex 54.046875053556136 11.499999999999956 2.000000000000001
  endloop
endfacet
facet normal -0.6767064015338204 -0.28030096925999787 0.6808082055579631
  outer loop
    vertex 54.06698735166392 11.249999999999956 1.9500000000000008
    vertex 54.062314913518904 11.382722620187876 2.000000000000001
    vertex 54.0170371404116 11.370590477448696 1.9500000000000008
  endloop
endfacet
facet normal -0.6767064015338204 -0.28030096925999787 0.6808082055579631
  outer loop
    vertex 54.062314913518904 11.382722620187876 2.000000000000001
    vertex 54.06698735166392 11.249999999999956 1.9500000000000008
    vertex 54.10758229246631 11.273437499999956 2.000000000000001
  endloop
endfacet
facet normal -0.5811009608514655 -0.445894450001823 0.6808082055579792
  outer loop
    vertex 54.14644666296286 11.14644660940668 1.9500000000000008
    vertex 54.10758229246631 11.273437499999956 2.000000000000001
    vertex 54.06698735166392 11.249999999999956 1.9500000000000008
  endloop
endfacet
facet normal -0.5811009608514655 -0.445894450001823 0.6808082055579792
  outer loop
    vertex 54.10758229246631 11.273437499999956 2.000000000000001
    vertex 54.14644666296286 11.14644660940668 1.9500000000000008
    vertex 54.179592293330984 11.1795922397748 2.000000000000001
  endloop
endfacet
facet normal -0.4458944500018247 -0.581100960851462 0.680808205557981
  outer loop
    vertex 54.250000053556136 11.066987298107737 1.9500000000000008
    vertex 54.179592293330984 11.1795922397748 2.000000000000001
    vertex 54.14644666296286 11.14644660940668 1.9500000000000008
  endloop
endfacet
facet normal -0.4458944500018247 -0.581100960851462 0.680808205557981
  outer loop
    vertex 54.179592293330984 11.1795922397748 2.000000000000001
    vertex 54.250000053556136 11.066987298107737 1.9500000000000008
    vertex 54.273437553556136 11.107582238910132 2.000000000000001
  endloop
endfacet
facet normal -0.28030096926000175 -0.6767064015338069 0.6808082055579748
  outer loop
    vertex 54.37059053100487 11.01703708685542 1.9500000000000008
    vertex 54.273437553556136 11.107582238910132 2.000000000000001
    vertex 54.250000053556136 11.066987298107737 1.9500000000000008
  endloop
endfacet
facet normal -0.28030096926000175 -0.6767064015338069 0.6808082055579748
  outer loop
    vertex 54.273437553556136 11.107582238910132 2.000000000000001
    vertex 54.37059053100487 11.01703708685542 1.9500000000000008
    vertex 54.382722673744055 11.062314859962722 2.000000000000001
  endloop
endfacet
facet normal -0.09560544068234426 -0.7261954192618293 0.6808082055579756
  outer loop
    vertex 54.500000053556136 11.046874999999956 2.000000000000001
    vertex 54.37059053100487 11.01703708685542 1.9500000000000008
    vertex 54.500000053556136 10.999999999999956 1.9500000000000008
  endloop
endfacet
facet normal -0.09560544068234426 -0.7261954192618293 0.6808082055579756
  outer loop
    vertex 54.37059053100487 11.01703708685542 1.9500000000000008
    vertex 54.500000053556136 11.046874999999956 2.000000000000001
    vertex 54.382722673744055 11.062314859962722 2.000000000000001
  endloop
endfacet
facet normal 0.09560544068234426 -0.7261954192618293 0.6808082055579757
  outer loop
    vertex 54.617277433368216 11.062314859962722 2.000000000000001
    vertex 54.500000053556136 10.999999999999956 1.9500000000000008
    vertex 54.6294095761074 11.01703708685542 1.9500000000000008
  endloop
endfacet
facet normal 0.09560544068234426 -0.7261954192618293 0.6808082055579757
  outer loop
    vertex 54.500000053556136 10.999999999999956 1.9500000000000008
    vertex 54.617277433368216 11.062314859962722 2.000000000000001
    vertex 54.500000053556136 11.046874999999956 2.000000000000001
  endloop
endfacet
facet normal 0.28030096926000186 -0.676706401533807 0.6808082055579748
  outer loop
    vertex 54.6294095761074 11.01703708685542 1.9500000000000008
    vertex 54.726562553556136 11.107582238910132 2.000000000000001
    vertex 54.617277433368216 11.062314859962722 2.000000000000001
  endloop
endfacet
facet normal 0.28030096926000186 -0.676706401533807 0.6808082055579748
  outer loop
    vertex 54.726562553556136 11.107582238910132 2.000000000000001
    vertex 54.6294095761074 11.01703708685542 1.9500000000000008
    vertex 54.750000053556136 11.066987298107737 1.9500000000000008
  endloop
endfacet
facet normal 0.4458944500018247 -0.581100960851462 0.680808205557981
  outer loop
    vertex 54.750000053556136 11.066987298107737 1.9500000000000008
    vertex 54.82040781378129 11.1795922397748 2.000000000000001
    vertex 54.726562553556136 11.107582238910132 2.000000000000001
  endloop
endfacet
facet normal 0.4458944500018247 -0.581100960851462 0.680808205557981
  outer loop
    vertex 54.82040781378129 11.1795922397748 2.000000000000001
    vertex 54.750000053556136 11.066987298107737 1.9500000000000008
    vertex 54.85355344414941 11.14644660940668 1.9500000000000008
  endloop
endfacet
facet normal 0.5811009608514655 -0.445894450001823 0.6808082055579792
  outer loop
    vertex 54.85355344414941 11.14644660940668 1.9500000000000008
    vertex 54.89241781464596 11.273437499999956 2.000000000000001
    vertex 54.82040781378129 11.1795922397748 2.000000000000001
  endloop
endfacet
facet normal 0.5811009608514655 -0.445894450001823 0.6808082055579792
  outer loop
    vertex 54.89241781464596 11.273437499999956 2.000000000000001
    vertex 54.85355344414941 11.14644660940668 1.9500000000000008
    vertex 54.93301275544835 11.249999999999956 1.9500000000000008
  endloop
endfacet
facet normal 0.6767064015338173 -0.2803009692599988 0.6808082055579656
  outer loop
    vertex 54.93301275544835 11.249999999999956 1.9500000000000008
    vertex 54.93768519359337 11.382722620187876 2.000000000000001
    vertex 54.89241781464596 11.273437499999956 2.000000000000001
  endloop
endfacet
facet normal 0.6767064015338173 -0.2803009692599988 0.6808082055579656
  outer loop
    vertex 54.93768519359337 11.382722620187876 2.000000000000001
    vertex 54.93301275544835 11.249999999999956 1.9500000000000008
    vertex 54.98296296670067 11.370590477448694 1.9500000000000008
  endloop
endfacet
facet normal 0.7261954192618295 -0.09560544068235612 0.6808082055579738
  outer loop
    vertex 55.000000053556136 11.499999999999956 1.9500000000000008
    vertex 54.93768519359337 11.382722620187876 2.000000000000001
    vertex 54.98296296670067 11.370590477448694 1.9500000000000008
  endloop
endfacet
facet normal 0.7261954192618295 -0.09560544068235612 0.6808082055579738
  outer loop
    vertex 54.93768519359337 11.382722620187876 2.000000000000001
    vertex 55.000000053556136 11.499999999999956 1.9500000000000008
    vertex 54.953125053556136 11.499999999999954 2.000000000000001
  endloop
endfacet
facet normal 0.7261954192618287 0.09560544068235542 0.6808082055579747
  outer loop
    vertex 55.000000053556136 11.499999999999956 1.9500000000000008
    vertex 54.93768519359337 11.617277379812036 2.000000000000001
    vertex 54.953125053556136 11.499999999999954 2.000000000000001
  endloop
endfacet
facet normal 0.7261954192618287 0.09560544068235542 0.6808082055579747
  outer loop
    vertex 54.93768519359337 11.617277379812036 2.000000000000001
    vertex 55.000000053556136 11.499999999999956 1.9500000000000008
    vertex 54.98296296670067 11.629409522551216 1.9500000000000008
  endloop
endfacet
facet normal 0.6767064015338204 0.28030096925999787 0.6808082055579631
  outer loop
    vertex 54.93768519359337 11.617277379812036 2.000000000000001
    vertex 54.93301275544835 11.749999999999956 1.9500000000000008
    vertex 54.89241781464596 11.726562499999956 2.000000000000001
  endloop
endfacet
facet normal 0.6767064015338204 0.28030096925999787 0.6808082055579631
  outer loop
    vertex 54.93301275544835 11.749999999999956 1.9500000000000008
    vertex 54.93768519359337 11.617277379812036 2.000000000000001
    vertex 54.98296296670067 11.629409522551216 1.9500000000000008
  endloop
endfacet
facet normal 0.0 0.0 1.0
  outer loop
    vertex 53.82083345694664 11.318017858912246 1.0000000000000009
    vertex 53.82083345694664 11.681982141087666 1.0000000000000009
    vertex 53.796875053556136 11.499999999999956 1.0000000000000009
  endloop
endfacet
facet normal 0.0 0.0 1.0
  outer loop
    vertex 53.82083345694664 11.681982141087666 1.0000000000000009
    vertex 53.82083345694664 11.318017858912246 1.0000000000000009
    vertex 53.8910759415202 11.148437499999956 1.0000000000000009
  endloop
endfacet
facet normal 0.0 0.0 1.0
  outer loop
    vertex 53.82083345694664 11.681982141087666 1.0000000000000009
    vertex 53.8910759415202 11.148437499999956 1.0000000000000009
    vertex 53.8910759415202 11.851562499999956 1.0000000000000009
  endloop
endfacet
facet normal 0.0 0.0 1.0
  outer loop
    vertex 53.8910759415202 11.851562499999956 1.0000000000000009
    vertex 53.8910759415202 11.148437499999956 1.0000000000000009
    vertex 54.002815598034346 11.002815544478164 1.0000000000000009
  endloop
endfacet
facet normal 0.0 0.0 1.0
  outer loop
    vertex 53.8910759415202 11.851562499999956 1.0000000000000009
    vertex 54.002815598034346 11.002815544478164 1.0000000000000009
    vertex 54.000000053556136 11.499999999999956 1.0000000000000009
  endloop
endfacet
facet normal 0.0 0.0 1.0
  outer loop
    vertex 54.000000053556136 11.499999999999956 1.0000000000000009
    vertex 54.002815598034346 11.002815544478164 1.0000000000000009
    vertex 54.0170371404116 11.370590477448696 1.0000000000000009
  endloop
endfacet
facet normal 0.0 0.0 1.0
  outer loop
    vertex 54.0170371404116 11.370590477448696 1.0000000000000009
    vertex 54.002815598034346 11.002815544478164 1.0000000000000009
    vertex 54.148437553556136 10.891075887964021 1.0000000000000009
  endloop
endfacet
facet normal 0.0 0.0 1.0
  outer loop
    vertex 54.0170371404116 11.370590477448696 1.0000000000000009
    vertex 54.148437553556136 10.891075887964021 1.0000000000000009
    vertex 54.06698735166392 11.249999999999956 1.0000000000000009
  endloop
endfacet
facet normal 0.0 0.0 1.0
  outer loop
    vertex 54.06698735166392 11.249999999999956 1.0000000000000009
    vertex 54.148437553556136 10.891075887964021 1.0000000000000009
    vertex 54.14644666296286 11.14644660940668 1.0000000000000009
  endloop
endfacet
facet normal 0.0 0.0 1.0
  outer loop
    vertex 54.14644666296286 11.14644660940668 1.0000000000000009
    vertex 54.148437553556136 10.891075887964021 1.0000000000000009
    vertex 54.250000053556136 11.066987298107737 1.0000000000000009
  endloop
endfacet
facet normal 0.0 0.0 1.0
  outer loop
    vertex 54.250000053556136 11.066987298107737 1.0000000000000009
    vertex 54.148437553556136 10.891075887964021 1.0000000000000009
    vertex 54.31801791246843 10.820833403390454 1.0000000000000009
  endloop
endfacet
facet normal 0.0 0.0 1.0
  outer loop
    vertex 54.250000053556136 11.066987298107737 1.0000000000000009
    vertex 54.31801791246843 10.820833403390454 1.0000000000000009
    vertex 54.37059053100487 11.01703708685542 1.0000000000000009
  endloop
endfacet
facet normal 0.0 0.0 1.0
  outer loop
    vertex 54.37059053100487 11.01703708685542 1.0000000000000009
    vertex 54.31801791246843 10.820833403390454 1.0000000000000009
    vertex 54.500000053556136 10.796874999999956 1.0000000000000009
  endloop
endfacet
facet normal 0.0 0.0 1.0
  outer loop
    vertex 54.37059053100487 11.01703708685542 1.0000000000000009
    vertex 54.500000053556136 10.796874999999956 1.0000000000000009
    vertex 54.500000053556136 10.999999999999956 1.0000000000000009
  endloop
endfacet
facet normal 0.0 0.0 1.0
  outer loop
    vertex 54.500000053556136 10.999999999999956 1.0000000000000009
    vertex 54.500000053556136 10.796874999999956 1.0000000000000009
    vertex 54.681982194643844 10.820833403390454 1.0000000000000009
  endloop
endfacet
facet normal 0.0 0.0 1.0
  outer loop
    vertex 54.500000053556136 10.999999999999956 1.0000000000000009
    vertex 54.681982194643844 10.820833403390454 1.0000000000000009
    vertex 54.6294095761074 11.01703708685542 1.0000000000000009
  endloop
endfacet
facet normal 0.0 0.0 1.0
  outer loop
    vertex 54.6294095761074 11.01703708685542 1.0000000000000009
    vertex 54.681982194643844 10.820833403390454 1.0000000000000009
    vertex 54.750000053556136 11.066987298107737 1.0000000000000009
  endloop
endfacet
facet normal 0.0 0.0 1.0
  outer loop
    vertex 54.750000053556136 11.066987298107737 1.0000000000000009
    vertex 54.681982194643844 10.820833403390454 1.0000000000000009
    vertex 54.851562553556136 10.891075887964021 1.0000000000000009
  endloop
endfacet
facet normal 0.0 0.0 1.0
  outer loop
    vertex 54.750000053556136 11.066987298107737 1.0000000000000009
    vertex 54.851562553556136 10.891075887964021 1.0000000000000009
    vertex 54.85355344414941 11.14644660940668 1.0000000000000009
  endloop
endfacet
facet normal 0.0 0.0 1.0
  outer loop
    vertex 54.85355344414941 11.14644660940668 1.0000000000000009
    vertex 54.851562553556136 10.891075887964021 1.0000000000000009
    vertex 54.997184509077925 11.002815544478164 1.0000000000000009
  endloop
endfacet
facet normal 0.0 0.0 1.0
  outer loop
    vertex 54.85355344414941 11.14644660940668 1.0000000000000009
    vertex 54.997184509077925 11.002815544478164 1.0000000000000009
    vertex 54.93301275544835 11.249999999999956 1.0000000000000009
  endloop
endfacet
facet normal 0.0 0.0 1.0
  outer loop
    vertex 54.93301275544835 11.249999999999956 1.0000000000000009
    vertex 54.997184509077925 11.002815544478164 1.0000000000000009
    vertex 54.98296296670067 11.370590477448694 1.0000000000000009
  endloop
endfacet
facet normal 0.0 0.0 1.0
  outer loop
    vertex 54.98296296670067 11.370590477448694 1.0000000000000009
    vertex 54.997184509077925 11.002815544478164 1.0000000000000009
    vertex 55.000000053556136 11.499999999999956 1.0000000000000009
  endloop
endfacet
facet normal 0.0 0.0 1.0
  outer loop
    vertex 55.000000053556136 11.499999999999956 1.0000000000000009
    vertex 54.997184509077925 11.002815544478164 1.0000000000000009
    vertex 55.10892416559207 11.148437499999956 1.0000000000000009
  endloop
endfacet
facet normal 0.0 0.0 1.0
  outer loop
    vertex 54.000000053556136 11.499999999999956 1.0000000000000009
    vertex 54.002815598034346 11.997184455521747 1.0000000000000009
    vertex 53.8910759415202 11.851562499999956 1.0000000000000009
  endloop
endfacet
facet normal 0.0 0.0 1.0
  outer loop
    vertex 54.002815598034346 11.997184455521747 1.0000000000000009
    vertex 54.000000053556136 11.499999999999956 1.0000000000000009
    vertex 54.0170371404116 11.629409522551216 1.0000000000000009
  endloop
endfacet
facet normal 0.0 0.0 1.0
  outer loop
    vertex 54.002815598034346 11.997184455521747 1.0000000000000009
    vertex 54.0170371404116 11.629409522551216 1.0000000000000009
    vertex 54.148437553556136 12.10892411203589 1.0000000000000009
  endloop
endfacet
facet normal 0.0 0.0 1.0
  outer loop
    vertex 54.148437553556136 12.10892411203589 1.0000000000000009
    vertex 54.0170371404116 11.629409522551216 1.0000000000000009
    vertex 54.06698735166392 11.749999999999956 1.0000000000000009
  endloop
endfacet
facet normal 0.0 0.0 1.0
  outer loop
    vertex 54.148437553556136 12.10892411203589 1.0000000000000009
    vertex 54.06698735166392 11.749999999999956 1.0000000000000009
    vertex 54.14644666296286 11.853553390593229 1.0000000000000009
  endloop
endfacet
facet normal 0.0 0.0 1.0
  outer loop
    vertex 54.148437553556136 12.10892411203589 1.0000000000000009
    vertex 54.14644666296286 11.853553390593229 1.0000000000000009
    vertex 54.250000053556136 11.933012701892174 1.0000000000000009
  endloop
endfacet
facet normal 0.0 0.0 1.0
  outer loop
    vertex 54.148437553556136 12.10892411203589 1.0000000000000009
    vertex 54.250000053556136 11.933012701892174 1.0000000000000009
    vertex 54.31801791246843 12.179166596609457 1.0000000000000009
  endloop
endfacet
facet normal 0.0 0.0 1.0
  outer loop
    vertex 54.31801791246843 12.179166596609457 1.0000000000000009
    vertex 54.250000053556136 11.933012701892174 1.0000000000000009
    vertex 54.37059053100487 11.98296291314449 1.0000000000000009
  endloop
endfacet
facet normal 0.0 0.0 1.0
  outer loop
    vertex 54.31801791246843 12.179166596609457 1.0000000000000009
    vertex 54.37059053100487 11.98296291314449 1.0000000000000009
    vertex 54.500000053556136 12.203124999999956 1.0000000000000009
  endloop
endfacet
facet normal 0.0 0.0 1.0
  outer loop
    vertex 54.500000053556136 12.203124999999956 1.0000000000000009
    vertex 54.37059053100487 11.98296291314449 1.0000000000000009
    vertex 54.500000053556136 11.999999999999956 1.0000000000000009
  endloop
endfacet
facet normal 0.0 0.0 1.0
  outer loop
    vertex 54.500000053556136 12.203124999999956 1.0000000000000009
    vertex 54.500000053556136 11.999999999999956 1.0000000000000009
    vertex 54.6294095761074 11.98296291314449 1.0000000000000009
  endloop
endfacet
facet normal 0.0 0.0 1.0
  outer loop
    vertex 54.500000053556136 12.203124999999956 1.0000000000000009
    vertex 54.6294095761074 11.98296291314449 1.0000000000000009
    vertex 54.681982194643844 12.179166596609457 1.0000000000000009
  endloop
endfacet
facet normal 0.0 0.0 1.0
  outer loop
    vertex 54.681982194643844 12.179166596609457 1.0000000000000009
    vertex 54.6294095761074 11.98296291314449 1.0000000000000009
    vertex 54.750000053556136 11.933012701892174 1.0000000000000009
  endloop
endfacet
facet normal 0.0 0.0 1.0
  outer loop
    vertex 54.681982194643844 12.179166596609457 1.0000000000000009
    vertex 54.750000053556136 11.933012701892174 1.0000000000000009
    vertex 54.851562553556136 12.10892411203589 1.0000000000000009
  endloop
endfacet
facet normal 0.0 0.0 1.0
  outer loop
    vertex 54.851562553556136 12.10892411203589 1.0000000000000009
    vertex 54.750000053556136 11.933012701892174 1.0000000000000009
    vertex 54.85355344414941 11.853553390593229 1.0000000000000009
  endloop
endfacet
facet normal 0.0 0.0 1.0
  outer loop
    vertex 54.851562553556136 12.10892411203589 1.0000000000000009
    vertex 54.85355344414941 11.853553390593229 1.0000000000000009
    vertex 54.997184509077925 11.997184455521747 1.0000000000000009
  endloop
endfacet
facet normal 0.0 0.0 1.0
  outer loop
    vertex 54.997184509077925 11.997184455521747 1.0000000000000009
    vertex 54.85355344414941 11.853553390593229 1.0000000000000009
    vertex 54.93301275544835 11.749999999999956 1.0000000000000009
  endloop
endfacet
facet normal 0.0 0.0 1.0
  outer loop
    vertex 54.997184509077925 11.997184455521747 1.0000000000000009
    vertex 54.93301275544835 11.749999999999956 1.0000000000000009
    vertex 54.98296296670067 11.629409522551216 1.0000000000000009
  endloop
endfacet
facet normal 0.0 0.0 1.0
  outer loop
    vertex 54.997184509077925 11.997184455521747 1.0000000000000009
    vertex 54.98296296670067 11.629409522551216 1.0000000000000009
    vertex 55.000000053556136 11.499999999999956 1.0000000000000009
  endloop
endfacet
facet normal 0.0 0.0 1.0
  outer loop
    vertex 54.997184509077925 11.997184455521747 1.0000000000000009
    vertex 55.000000053556136 11.499999999999956 1.0000000000000009
    vertex 55.10892416559207 11.851562499999956 1.0000000000000009
  endloop
endfacet
facet normal 0.0 0.0 1.0
  outer loop
    vertex 55.10892416559207 11.851562499999956 1.0000000000000009
    vertex 55.000000053556136 11.499999999999956 1.0000000000000009
    vertex 55.10892416559207 11.148437499999956 1.0000000000000009
  endloop
endfacet
facet normal 0.0 0.0 1.0
  outer loop
    vertex 55.10892416559207 11.851562499999956 1.0000000000000009
    vertex 55.10892416559207 11.148437499999956 1.0000000000000009
    vertex 55.179166650165634 11.318017858912244 1.0000000000000009
  endloop
endfacet
facet normal 0.0 0.0 1.0
  outer loop
    vertex 55.10892416559207 11.851562499999956 1.0000000000000009
    vertex 55.179166650165634 11.318017858912244 1.0000000000000009
    vertex 55.179166650165634 11.681982141087666 1.0000000000000009
  endloop
endfacet
facet normal 0.0 0.0 1.0
  outer loop
    vertex 55.179166650165634 11.681982141087666 1.0000000000000009
    vertex 55.179166650165634 11.318017858912244 1.0000000000000009
    vertex 55.203125053556136 11.499999999999954 1.0000000000000009
  endloop
endfacet
facet normal 0.7933533402912295 -0.608761429008728 0.0
  outer loop
    vertex 55.149519106394465 11.124999999999956 0.8000000000000009
    vertex 55.03033013944604 10.969669914110044 0.9500000000000008
    vertex 55.03033013944604 10.969669914110044 0.8000000000000009
  endloop
endfacet
facet normal 0.7933533402912295 -0.608761429008728 0.0
  outer loop
    vertex 55.03033013944604 10.969669914110044 0.9500000000000008
    vertex 55.149519106394465 11.124999999999956 0.8000000000000009
    vertex 55.149519106394465 11.124999999999956 0.9500000000000008
  endloop
endfacet
facet normal 0.9238795325112892 -0.3826834323650842 0.0
  outer loop
    vertex 55.224444423272935 11.305885716173064 0.8000000000000009
    vertex 55.149519106394465 11.124999999999956 0.9500000000000008
    vertex 55.149519106394465 11.124999999999956 0.8000000000000009
  endloop
endfacet
facet normal 0.9238795325112892 -0.3826834323650842 0.0
  outer loop
    vertex 55.149519106394465 11.124999999999956 0.9500000000000008
    vertex 55.224444423272935 11.305885716173064 0.8000000000000009
    vertex 55.224444423272935 11.305885716173064 0.9500000000000008
  endloop
endfacet
facet normal 0.9914448613738094 -0.13052619222005957 0.0
  outer loop
    vertex 55.250000053556136 11.499999999999956 0.8000000000000009
    vertex 55.224444423272935 11.305885716173064 0.9500000000000008
    vertex 55.224444423272935 11.305885716173064 0.8000000000000009
  endloop
endfacet
facet normal 0.9914448613738094 -0.13052619222005957 0.0
  outer loop
    vertex 55.224444423272935 11.305885716173064 0.9500000000000008
    vertex 55.250000053556136 11.499999999999956 0.8000000000000009
    vertex 55.250000053556136 11.499999999999956 0.9500000000000008
  endloop
endfacet
facet normal 0.9914448613738092 0.13052619222006073 0.0
  outer loop
    vertex 55.224444423272935 11.694114283826845 0.8000000000000009
    vertex 55.250000053556136 11.499999999999956 0.9500000000000008
    vertex 55.250000053556136 11.499999999999956 0.8000000000000009
  endloop
endfacet
facet normal 0.9914448613738092 0.13052619222006073 0.0
  outer loop
    vertex 55.250000053556136 11.499999999999956 0.9500000000000008
    vertex 55.224444423272935 11.694114283826845 0.8000000000000009
    vertex 55.224444423272935 11.694114283826845 0.9500000000000008
  endloop
endfacet
facet normal 0.6087614290087253 -0.7933533402912316 0.0
  outer loop
    vertex 55.03033013944604 10.969669914110044 0.9500000000000008
    vertex 54.875000053556136 10.850480947161627 0.8000000000000009
    vertex 55.03033013944604 10.969669914110044 0.8000000000000009
  endloop
endfacet
facet normal 0.6087614290087253 -0.7933533402912316 0.0
  outer loop
    vertex 54.875000053556136 10.850480947161627 0.8000000000000009
    vertex 55.03033013944604 10.969669914110044 0.9500000000000008
    vertex 54.875000053556136 10.850480947161627 0.9500000000000008
  endloop
endfacet
facet normal 0.3826834323650919 -0.923879532511286 0.0
  outer loop
    vertex 54.875000053556136 10.850480947161627 0.9500000000000008
    vertex 54.69411433738303 10.775555630283154 0.8000000000000009
    vertex 54.875000053556136 10.850480947161627 0.8000000000000009
  endloop
endfacet
facet normal 0.3826834323650919 -0.923879532511286 0.0
  outer loop
    vertex 54.69411433738303 10.775555630283154 0.8000000000000009
    vertex 54.875000053556136 10.850480947161627 0.9500000000000008
    vertex 54.69411433738303 10.775555630283154 0.9500000000000008
  endloop
endfacet
facet normal 0.9238795325112905 0.382683432365081 0.0
  outer loop
    vertex 55.149519106394465 11.874999999999956 0.8000000000000009
    vertex 55.224444423272935 11.694114283826845 0.9500000000000008
    vertex 55.224444423272935 11.694114283826845 0.8000000000000009
  endloop
endfacet
facet normal 0.9238795325112905 0.382683432365081 0.0
  outer loop
    vertex 55.224444423272935 11.694114283826845 0.9500000000000008
    vertex 55.149519106394465 11.874999999999956 0.8000000000000009
    vertex 55.149519106394465 11.874999999999956 0.9500000000000008
  endloop
endfacet
facet normal 0.7933533402912295 0.608761429008728 0.0
  outer loop
    vertex 55.03033013944604 12.030330085889867 0.8000000000000009
    vertex 55.149519106394465 11.874999999999956 0.9500000000000008
    vertex 55.149519106394465 11.874999999999956 0.8000000000000009
  endloop
endfacet
facet normal 0.7933533402912295 0.608761429008728 0.0
  outer loop
    vertex 55.149519106394465 11.874999999999956 0.9500000000000008
    vertex 55.03033013944604 12.030330085889867 0.8000000000000009
    vertex 55.03033013944604 12.030330085889867 0.9500000000000008
  endloop
endfacet
facet normal 0.3826834323650919 0.923879532511286 0.0
  outer loop
    vertex 54.69411433738303 12.224444369716757 0.9500000000000008
    vertex 54.875000053556136 12.149519052838285 0.8000000000000009
    vertex 54.69411433738303 12.224444369716757 0.8000000000000009
  endloop
endfacet
facet normal 0.3826834323650919 0.923879532511286 0.0
  outer loop
    vertex 54.875000053556136 12.149519052838285 0.8000000000000009
    vertex 54.69411433738303 12.224444369716757 0.9500000000000008
    vertex 54.875000053556136 12.149519052838285 0.9500000000000008
  endloop
endfacet
facet normal 0.6087614290087253 0.7933533402912316 0.0
  outer loop
    vertex 54.875000053556136 12.149519052838285 0.9500000000000008
    vertex 55.03033013944604 12.030330085889867 0.8000000000000009
    vertex 54.875000053556136 12.149519052838285 0.8000000000000009
  endloop
endfacet
facet normal 0.6087614290087253 0.7933533402912316 0.0
  outer loop
    vertex 55.03033013944604 12.030330085889867 0.8000000000000009
    vertex 54.875000053556136 12.149519052838285 0.9500000000000008
    vertex 55.03033013944604 12.030330085889867 0.9500000000000008
  endloop
endfacet
facet normal -0.13052619222005063 0.9914448613738105 0.0
  outer loop
    vertex 54.305885769729244 12.224444369716757 0.9500000000000008
    vertex 54.500000053556136 12.249999999999956 0.8000000000000009
    vertex 54.305885769729244 12.224444369716757 0.8000000000000009
  endloop
endfacet
facet normal -0.13052619222005063 0.9914448613738105 0.0
  outer loop
    vertex 54.500000053556136 12.249999999999956 0.8000000000000009
    vertex 54.305885769729244 12.224444369716757 0.9500000000000008
    vertex 54.500000053556136 12.249999999999956 0.9500000000000008
  endloop
endfacet
facet normal 0.13052619222005063 0.9914448613738105 0.0
  outer loop
    vertex 54.500000053556136 12.249999999999956 0.9500000000000008
    vertex 54.69411433738303 12.224444369716757 0.8000000000000009
    vertex 54.500000053556136 12.249999999999956 0.8000000000000009
  endloop
endfacet
facet normal 0.13052619222005063 0.9914448613738105 0.0
  outer loop
    vertex 54.69411433738303 12.224444369716757 0.8000000000000009
    vertex 54.500000053556136 12.249999999999956 0.9500000000000008
    vertex 54.69411433738303 12.224444369716757 0.9500000000000008
  endloop
endfacet
facet normal -0.3826834323650919 0.923879532511286 0.0
  outer loop
    vertex 54.125000053556136 12.149519052838285 0.9500000000000008
    vertex 54.305885769729244 12.224444369716757 0.8000000000000009
    vertex 54.125000053556136 12.149519052838285 0.8000000000000009
  endloop
endfacet
facet normal -0.3826834323650919 0.923879532511286 0.0
  outer loop
    vertex 54.305885769729244 12.224444369716757 0.8000000000000009
    vertex 54.125000053556136 12.149519052838285 0.9500000000000008
    vertex 54.305885769729244 12.224444369716757 0.9500000000000008
  endloop
endfacet
facet normal -0.6087614290087253 0.7933533402912316 0.0
  outer loop
    vertex 53.96966996766623 12.030330085889867 0.9500000000000008
    vertex 54.125000053556136 12.149519052838285 0.8000000000000009
    vertex 53.96966996766623 12.030330085889867 0.8000000000000009
  endloop
endfacet
facet normal -0.6087614290087253 0.7933533402912316 0.0
  outer loop
    vertex 54.125000053556136 12.149519052838285 0.8000000000000009
    vertex 53.96966996766623 12.030330085889867 0.9500000000000008
    vertex 54.125000053556136 12.149519052838285 0.9500000000000008
  endloop
endfacet
facet normal -0.7933533402912295 0.608761429008728 0.0
  outer loop
    vertex 53.96966996766623 12.030330085889867 0.9500000000000008
    vertex 53.85048100071781 11.874999999999956 0.8000000000000009
    vertex 53.85048100071781 11.874999999999956 0.9500000000000008
  endloop
endfacet
facet normal -0.7933533402912295 0.608761429008728 0.0
  outer loop
    vertex 53.85048100071781 11.874999999999956 0.8000000000000009
    vertex 53.96966996766623 12.030330085889867 0.9500000000000008
    vertex 53.96966996766623 12.030330085889867 0.8000000000000009
  endloop
endfacet
facet normal -0.9238795325112905 0.382683432365081 0.0
  outer loop
    vertex 53.85048100071781 11.874999999999956 0.9500000000000008
    vertex 53.775555683839336 11.694114283826845 0.8000000000000009
    vertex 53.775555683839336 11.694114283826845 0.9500000000000008
  endloop
endfacet
facet normal -0.9238795325112905 0.382683432365081 0.0
  outer loop
    vertex 53.775555683839336 11.694114283826845 0.8000000000000009
    vertex 53.85048100071781 11.874999999999956 0.9500000000000008
    vertex 53.85048100071781 11.874999999999956 0.8000000000000009
  endloop
endfacet
facet normal -0.9914448613738092 0.13052619222006073 0.0
  outer loop
    vertex 53.775555683839336 11.694114283826845 0.9500000000000008
    vertex 53.750000053556136 11.499999999999956 0.8000000000000009
    vertex 53.750000053556136 11.499999999999956 0.9500000000000008
  endloop
endfacet
facet normal -0.9914448613738092 0.13052619222006073 0.0
  outer loop
    vertex 53.750000053556136 11.499999999999956 0.8000000000000009
    vertex 53.775555683839336 11.694114283826845 0.9500000000000008
    vertex 53.775555683839336 11.694114283826845 0.8000000000000009
  endloop
endfacet
facet normal -0.9914448613738092 -0.1305261922200607 0.0
  outer loop
    vertex 53.750000053556136 11.499999999999956 0.9500000000000008
    vertex 53.775555683839336 11.305885716173066 0.8000000000000009
    vertex 53.775555683839336 11.305885716173066 0.9500000000000008
  endloop
endfacet
facet normal -0.9914448613738092 -0.1305261922200607 0.0
  outer loop
    vertex 53.775555683839336 11.305885716173066 0.8000000000000009
    vertex 53.750000053556136 11.499999999999956 0.9500000000000008
    vertex 53.750000053556136 11.499999999999956 0.8000000000000009
  endloop
endfacet
facet normal -0.9238795325112905 -0.382683432365081 0.0
  outer loop
    vertex 53.775555683839336 11.305885716173066 0.9500000000000008
    vertex 53.85048100071781 11.124999999999956 0.8000000000000009
    vertex 53.85048100071781 11.124999999999956 0.9500000000000008
  endloop
endfacet
facet normal -0.9238795325112905 -0.382683432365081 0.0
  outer loop
    vertex 53.85048100071781 11.124999999999956 0.8000000000000009
    vertex 53.775555683839336 11.305885716173066 0.9500000000000008
    vertex 53.775555683839336 11.305885716173066 0.8000000000000009
  endloop
endfacet
facet normal -0.7933533402912262 -0.6087614290087322 0.0
  outer loop
    vertex 53.85048100071781 11.124999999999956 0.9500000000000008
    vertex 53.96966996766623 10.969669914110046 0.8000000000000009
    vertex 53.96966996766623 10.969669914110046 0.9500000000000008
  endloop
endfacet
facet normal -0.7933533402912262 -0.6087614290087322 0.0
  outer loop
    vertex 53.96966996766623 10.969669914110046 0.8000000000000009
    vertex 53.85048100071781 11.124999999999956 0.9500000000000008
    vertex 53.85048100071781 11.124999999999956 0.8000000000000009
  endloop
endfacet
facet normal -0.608761429008731 -0.7933533402912272 0.0
  outer loop
    vertex 54.125000053556136 10.850480947161627 0.9500000000000008
    vertex 53.96966996766623 10.969669914110046 0.8000000000000009
    vertex 54.125000053556136 10.850480947161627 0.8000000000000009
  endloop
endfacet
facet normal -0.608761429008731 -0.7933533402912272 0.0
  outer loop
    vertex 53.96966996766623 10.969669914110046 0.8000000000000009
    vertex 54.125000053556136 10.850480947161627 0.9500000000000008
    vertex 53.96966996766623 10.969669914110046 0.9500000000000008
  endloop
endfacet
facet normal -0.3826834323650919 -0.923879532511286 0.0
  outer loop
    vertex 54.305885769729244 10.775555630283154 0.9500000000000008
    vertex 54.125000053556136 10.850480947161627 0.8000000000000009
    vertex 54.305885769729244 10.775555630283154 0.8000000000000009
  endloop
endfacet
facet normal -0.3826834323650919 -0.923879532511286 0.0
  outer loop
    vertex 54.125000053556136 10.850480947161627 0.8000000000000009
    vertex 54.305885769729244 10.775555630283154 0.9500000000000008
    vertex 54.125000053556136 10.850480947161627 0.9500000000000008
  endloop
endfacet
facet normal -0.13052619222005063 -0.9914448613738105 0.0
  outer loop
    vertex 54.500000053556136 10.749999999999956 0.9500000000000008
    vertex 54.305885769729244 10.775555630283154 0.8000000000000009
    vertex 54.500000053556136 10.749999999999956 0.8000000000000009
  endloop
endfacet
facet normal -0.13052619222005063 -0.9914448613738105 0.0
  outer loop
    vertex 54.305885769729244 10.775555630283154 0.8000000000000009
    vertex 54.500000053556136 10.749999999999956 0.9500000000000008
    vertex 54.305885769729244 10.775555630283154 0.9500000000000008
  endloop
endfacet
facet normal 0.13052619222005063 -0.9914448613738105 0.0
  outer loop
    vertex 54.69411433738303 10.775555630283154 0.9500000000000008
    vertex 54.500000053556136 10.749999999999956 0.8000000000000009
    vertex 54.69411433738303 10.775555630283154 0.8000000000000009
  endloop
endfacet
facet normal 0.13052619222005063 -0.9914448613738105 0.0
  outer loop
    vertex 54.500000053556136 10.749999999999956 0.8000000000000009
    vertex 54.69411433738303 10.775555630283154 0.9500000000000008
    vertex 54.500000053556136 10.749999999999956 0.9500000000000008
  endloop
endfacet
facet normal 0.676706401533823 -0.28030096925999126 0.6808082055579631
  outer loop
    vertex 55.149519106394465 11.124999999999956 0.9500000000000008
    vertex 55.179166650165634 11.318017858912244 1.0000000000000009
    vertex 55.10892416559207 11.148437499999956 1.0000000000000009
  endloop
endfacet
facet normal 0.676706401533823 -0.28030096925999126 0.6808082055579631
  outer loop
    vertex 55.179166650165634 11.318017858912244 1.0000000000000009
    vertex 55.149519106394465 11.124999999999956 0.9500000000000008
    vertex 55.224444423272935 11.305885716173064 0.9500000000000008
  endloop
endfacet
facet normal 0.7261954192618304 -0.0956054406823547 0.680808205557973
  outer loop
    vertex 55.250000053556136 11.499999999999956 0.9500000000000008
    vertex 55.179166650165634 11.318017858912244 1.0000000000000009
    vertex 55.224444423272935 11.305885716173064 0.9500000000000008
  endloop
endfacet
facet normal 0.7261954192618304 -0.0956054406823547 0.680808205557973
  outer loop
    vertex 55.179166650165634 11.318017858912244 1.0000000000000009
    vertex 55.250000053556136 11.499999999999956 0.9500000000000008
    vertex 55.203125053556136 11.499999999999954 1.0000000000000009
  endloop
endfacet
facet normal 0.4458944500018424 -0.5811009608514681 0.6808082055579641
  outer loop
    vertex 54.875000053556136 10.850480947161627 0.9500000000000008
    vertex 54.997184509077925 11.002815544478164 1.0000000000000009
    vertex 54.851562553556136 10.891075887964021 1.0000000000000009
  endloop
endfacet
facet normal 0.4458944500018424 -0.5811009608514681 0.6808082055579641
  outer loop
    vertex 54.997184509077925 11.002815544478164 1.0000000000000009
    vertex 54.875000053556136 10.850480947161627 0.9500000000000008
    vertex 55.03033013944604 10.969669914110044 0.9500000000000008
  endloop
endfacet
facet normal 0.5811009608514708 -0.44589445000185013 0.6808082055579567
  outer loop
    vertex 55.03033013944604 10.969669914110044 0.9500000000000008
    vertex 55.10892416559207 11.148437499999956 1.0000000000000009
    vertex 54.997184509077925 11.002815544478164 1.0000000000000009
  endloop
endfacet
facet normal 0.5811009608514708 -0.44589445000185013 0.6808082055579567
  outer loop
    vertex 55.10892416559207 11.148437499999956 1.0000000000000009
    vertex 55.03033013944604 10.969669914110044 0.9500000000000008
    vertex 55.149519106394465 11.124999999999956 0.9500000000000008
  endloop
endfacet
facet normal 0.7261954192618287 0.09560544068235448 0.6808082055579747
  outer loop
    vertex 55.250000053556136 11.499999999999956 0.9500000000000008
    vertex 55.179166650165634 11.681982141087666 1.0000000000000009
    vertex 55.203125053556136 11.499999999999954 1.0000000000000009
  endloop
endfacet
facet normal 0.7261954192618287 0.09560544068235448 0.6808082055579747
  outer loop
    vertex 55.179166650165634 11.681982141087666 1.0000000000000009
    vertex 55.250000053556136 11.499999999999956 0.9500000000000008
    vertex 55.224444423272935 11.694114283826845 0.9500000000000008
  endloop
endfacet
facet normal 0.6767064015338241 0.28030096925998893 0.680808205557963
  outer loop
    vertex 55.179166650165634 11.681982141087666 1.0000000000000009
    vertex 55.149519106394465 11.874999999999956 0.9500000000000008
    vertex 55.10892416559207 11.851562499999956 1.0000000000000009
  endloop
endfacet
facet normal 0.6767064015338241 0.28030096925998893 0.680808205557963
  outer loop
    vertex 55.149519106394465 11.874999999999956 0.9500000000000008
    vertex 55.179166650165634 11.681982141087666 1.0000000000000009
    vertex 55.224444423272935 11.694114283826845 0.9500000000000008
  endloop
endfacet
facet normal -0.09560544068234564 0.7261954192618356 0.6808082055579686
  outer loop
    vertex 54.31801791246843 12.179166596609457 1.0000000000000009
    vertex 54.500000053556136 12.249999999999956 0.9500000000000008
    vertex 54.305885769729244 12.224444369716757 0.9500000000000008
  endloop
endfacet
facet normal -0.09560544068234564 0.7261954192618356 0.6808082055579686
  outer loop
    vertex 54.500000053556136 12.249999999999956 0.9500000000000008
    vertex 54.31801791246843 12.179166596609457 1.0000000000000009
    vertex 54.500000053556136 12.203124999999956 1.0000000000000009
  endloop
endfacet
facet normal -0.5811009608514709 0.4458944500018502 0.6808082055579567
  outer loop
    vertex 53.8910759415202 11.851562499999956 1.0000000000000009
    vertex 53.96966996766623 12.030330085889867 0.9500000000000008
    vertex 53.85048100071781 11.874999999999956 0.9500000000000008
  endloop
endfacet
facet normal -0.5811009608514709 0.4458944500018502 0.6808082055579567
  outer loop
    vertex 53.96966996766623 12.030330085889867 0.9500000000000008
    vertex 53.8910759415202 11.851562499999956 1.0000000000000009
    vertex 54.002815598034346 11.997184455521747 1.0000000000000009
  endloop
endfacet
facet normal 0.5811009608514708 0.44589445000185013 0.6808082055579567
  outer loop
    vertex 55.10892416559207 11.851562499999956 1.0000000000000009
    vertex 55.03033013944604 12.030330085889867 0.9500000000000008
    vertex 54.997184509077925 11.997184455521747 1.0000000000000009
  endloop
endfacet
facet normal 0.5811009608514708 0.44589445000185013 0.6808082055579567
  outer loop
    vertex 55.03033013944604 12.030330085889867 0.9500000000000008
    vertex 55.10892416559207 11.851562499999956 1.0000000000000009
    vertex 55.149519106394465 11.874999999999956 0.9500000000000008
  endloop
endfacet
facet normal 0.4458944500018425 0.5811009608514682 0.6808082055579638
  outer loop
    vertex 54.997184509077925 11.997184455521747 1.0000000000000009
    vertex 54.875000053556136 12.149519052838285 0.9500000000000008
    vertex 54.851562553556136 12.10892411203589 1.0000000000000009
  endloop
endfacet
facet normal 0.4458944500018425 0.5811009608514682 0.6808082055579638
  outer loop
    vertex 54.875000053556136 12.149519052838285 0.9500000000000008
    vertex 54.997184509077925 11.997184455521747 1.0000000000000009
    vertex 55.03033013944604 12.030330085889867 0.9500000000000008
  endloop
endfacet
facet normal -0.6767064015338241 0.28030096925998893 0.680808205557963
  outer loop
    vertex 53.82083345694664 11.681982141087666 1.0000000000000009
    vertex 53.85048100071781 11.874999999999956 0.9500000000000008
    vertex 53.775555683839336 11.694114283826845 0.9500000000000008
  endloop
endfacet
facet normal -0.6767064015338241 0.28030096925998893 0.680808205557963
  outer loop
    vertex 53.85048100071781 11.874999999999956 0.9500000000000008
    vertex 53.82083345694664 11.681982141087666 1.0000000000000009
    vertex 53.8910759415202 11.851562499999956 1.0000000000000009
  endloop
endfacet
facet normal -0.7261954192618295 0.09560544068235502 0.6808082055579738
  outer loop
    vertex 53.82083345694664 11.681982141087666 1.0000000000000009
    vertex 53.750000053556136 11.499999999999956 0.9500000000000008
    vertex 53.796875053556136 11.499999999999956 1.0000000000000009
  endloop
endfacet
facet normal -0.7261954192618295 0.09560544068235502 0.6808082055579738
  outer loop
    vertex 53.750000053556136 11.499999999999956 0.9500000000000008
    vertex 53.82083345694664 11.681982141087666 1.0000000000000009
    vertex 53.775555683839336 11.694114283826845 0.9500000000000008
  endloop
endfacet
facet normal -0.7261954192618295 -0.09560544068235506 0.6808082055579738
  outer loop
    vertex 53.82083345694664 11.318017858912246 1.0000000000000009
    vertex 53.750000053556136 11.499999999999956 0.9500000000000008
    vertex 53.775555683839336 11.305885716173066 0.9500000000000008
  endloop
endfacet
facet normal -0.7261954192618295 -0.09560544068235506 0.6808082055579738
  outer loop
    vertex 53.750000053556136 11.499999999999956 0.9500000000000008
    vertex 53.82083345694664 11.318017858912246 1.0000000000000009
    vertex 53.796875053556136 11.499999999999956 1.0000000000000009
  endloop
endfacet
facet normal -0.2803009692599986 0.6767064015338147 0.6808082055579685
  outer loop
    vertex 54.148437553556136 12.10892411203589 1.0000000000000009
    vertex 54.305885769729244 12.224444369716757 0.9500000000000008
    vertex 54.125000053556136 12.149519052838285 0.9500000000000008
  endloop
endfacet
facet normal -0.2803009692599986 0.6767064015338147 0.6808082055579685
  outer loop
    vertex 54.305885769729244 12.224444369716757 0.9500000000000008
    vertex 54.148437553556136 12.10892411203589 1.0000000000000009
    vertex 54.31801791246843 12.179166596609457 1.0000000000000009
  endloop
endfacet
facet normal -0.4458944500018424 0.5811009608514681 0.6808082055579641
  outer loop
    vertex 54.002815598034346 11.997184455521747 1.0000000000000009
    vertex 54.125000053556136 12.149519052838285 0.9500000000000008
    vertex 53.96966996766623 12.030330085889867 0.9500000000000008
  endloop
endfacet
facet normal -0.4458944500018424 0.5811009608514681 0.6808082055579641
  outer loop
    vertex 54.125000053556136 12.149519052838285 0.9500000000000008
    vertex 54.002815598034346 11.997184455521747 1.0000000000000009
    vertex 54.148437553556136 12.10892411203589 1.0000000000000009
  endloop
endfacet
facet normal 0.2803009692599986 0.6767064015338148 0.6808082055579683
  outer loop
    vertex 54.851562553556136 12.10892411203589 1.0000000000000009
    vertex 54.69411433738303 12.224444369716757 0.9500000000000008
    vertex 54.681982194643844 12.179166596609457 1.0000000000000009
  endloop
endfacet
facet normal 0.2803009692599986 0.6767064015338148 0.6808082055579683
  outer loop
    vertex 54.69411433738303 12.224444369716757 0.9500000000000008
    vertex 54.851562553556136 12.10892411203589 1.0000000000000009
    vertex 54.875000053556136 12.149519052838285 0.9500000000000008
  endloop
endfacet
facet normal 0.09560544068234562 0.7261954192618355 0.6808082055579687
  outer loop
    vertex 54.500000053556136 12.203124999999956 1.0000000000000009
    vertex 54.69411433738303 12.224444369716757 0.9500000000000008
    vertex 54.500000053556136 12.249999999999956 0.9500000000000008
  endloop
endfacet
facet normal 0.09560544068234562 0.7261954192618355 0.6808082055579687
  outer loop
    vertex 54.69411433738303 12.224444369716757 0.9500000000000008
    vertex 54.500000053556136 12.203124999999956 1.0000000000000009
    vertex 54.681982194643844 12.179166596609457 1.0000000000000009
  endloop
endfacet
facet normal -0.6767064015338241 -0.28030096925998893 0.680808205557963
  outer loop
    vertex 53.85048100071781 11.124999999999956 0.9500000000000008
    vertex 53.82083345694664 11.318017858912246 1.0000000000000009
    vertex 53.775555683839336 11.305885716173066 0.9500000000000008
  endloop
endfacet
facet normal -0.6767064015338241 -0.28030096925998893 0.680808205557963
  outer loop
    vertex 53.82083345694664 11.318017858912246 1.0000000000000009
    vertex 53.85048100071781 11.124999999999956 0.9500000000000008
    vertex 53.8910759415202 11.148437499999956 1.0000000000000009
  endloop
endfacet
facet normal -0.5811009608514726 -0.4458944500018541 0.6808082055579526
  outer loop
    vertex 53.96966996766623 10.969669914110046 0.9500000000000008
    vertex 53.8910759415202 11.148437499999956 1.0000000000000009
    vertex 53.85048100071781 11.124999999999956 0.9500000000000008
  endloop
endfacet
facet normal -0.5811009608514726 -0.4458944500018541 0.6808082055579526
  outer loop
    vertex 53.8910759415202 11.148437499999956 1.0000000000000009
    vertex 53.96966996766623 10.969669914110046 0.9500000000000008
    vertex 54.002815598034346 11.002815544478164 1.0000000000000009
  endloop
endfacet
facet normal -0.44589445000184785 -0.5811009608514707 0.6808082055579584
  outer loop
    vertex 54.125000053556136 10.850480947161627 0.9500000000000008
    vertex 54.002815598034346 11.002815544478164 1.0000000000000009
    vertex 53.96966996766623 10.969669914110046 0.9500000000000008
  endloop
endfacet
facet normal -0.44589445000184785 -0.5811009608514707 0.6808082055579584
  outer loop
    vertex 54.002815598034346 11.002815544478164 1.0000000000000009
    vertex 54.125000053556136 10.850480947161627 0.9500000000000008
    vertex 54.148437553556136 10.891075887964021 1.0000000000000009
  endloop
endfacet
facet normal -0.2803009692599986 -0.6767064015338147 0.6808082055579685
  outer loop
    vertex 54.305885769729244 10.775555630283154 0.9500000000000008
    vertex 54.148437553556136 10.891075887964021 1.0000000000000009
    vertex 54.125000053556136 10.850480947161627 0.9500000000000008
  endloop
endfacet
facet normal -0.2803009692599986 -0.6767064015338147 0.6808082055579685
  outer loop
    vertex 54.148437553556136 10.891075887964021 1.0000000000000009
    vertex 54.305885769729244 10.775555630283154 0.9500000000000008
    vertex 54.31801791246843 10.820833403390454 1.0000000000000009
  endloop
endfacet
facet normal -0.09560544068234564 -0.7261954192618356 0.6808082055579686
  outer loop
    vertex 54.500000053556136 10.796874999999956 1.0000000000000009
    vertex 54.305885769729244 10.775555630283154 0.9500000000000008
    vertex 54.500000053556136 10.749999999999956 0.9500000000000008
  endloop
endfacet
facet normal -0.09560544068234564 -0.7261954192618356 0.6808082055579686
  outer loop
    vertex 54.305885769729244 10.775555630283154 0.9500000000000008
    vertex 54.500000053556136 10.796874999999956 1.0000000000000009
    vertex 54.31801791246843 10.820833403390454 1.0000000000000009
  endloop
endfacet
facet normal 0.09560544068234564 -0.7261954192618356 0.6808082055579686
  outer loop
    vertex 54.681982194643844 10.820833403390454 1.0000000000000009
    vertex 54.500000053556136 10.749999999999956 0.9500000000000008
    vertex 54.69411433738303 10.775555630283154 0.9500000000000008
  endloop
endfacet
facet normal 0.09560544068234564 -0.7261954192618356 0.6808082055579686
  outer loop
    vertex 54.500000053556136 10.749999999999956 0.9500000000000008
    vertex 54.681982194643844 10.820833403390454 1.0000000000000009
    vertex 54.500000053556136 10.796874999999956 1.0000000000000009
  endloop
endfacet
facet normal 0.2803009692599988 -0.6767064015338151 0.680808205557968
  outer loop
    vertex 54.69411433738303 10.775555630283154 0.9500000000000008
    vertex 54.851562553556136 10.891075887964021 1.0000000000000009
    vertex 54.681982194643844 10.820833403390454 1.0000000000000009
  endloop
endfacet
facet normal 0.2803009692599988 -0.6767064015338151 0.680808205557968
  outer loop
    vertex 54.851562553556136 10.891075887964021 1.0000000000000009
    vertex 54.69411433738303 10.775555630283154 0.9500000000000008
    vertex 54.875000053556136 10.850480947161627 0.9500000000000008
  endloop
endfacet
facet normal 0.0 0.0 -1.0
  outer loop
    vertex 53.82083345694664 11.681982141087666 0.7500000000000009
    vertex 53.82083345694664 11.318017858912246 0.7500000000000009
    vertex 53.796875053556136 11.499999999999956 0.7500000000000009
  endloop
endfacet
facet normal 0.0 0.0 -1.0
  outer loop
    vertex 53.82083345694664 11.318017858912246 0.7500000000000009
    vertex 53.82083345694664 11.681982141087666 0.7500000000000009
    vertex 53.8910759415202 11.851562499999956 0.7500000000000009
  endloop
endfacet
facet normal 0.0 0.0 -1.0
  outer loop
    vertex 53.82083345694664 11.318017858912246 0.7500000000000009
    vertex 53.8910759415202 11.851562499999956 0.7500000000000009
    vertex 53.8910759415202 11.148437499999956 0.7500000000000009
  endloop
endfacet
facet normal 0.0 0.0 -1.0
  outer loop
    vertex 53.8910759415202 11.148437499999956 0.7500000000000009
    vertex 53.8910759415202 11.851562499999956 0.7500000000000009
    vertex 54.002815598034346 11.997184455521747 0.7500000000000009
  endloop
endfacet
facet normal 0.0 0.0 -1.0
  outer loop
    vertex 53.8910759415202 11.148437499999956 0.7500000000000009
    vertex 54.002815598034346 11.997184455521747 0.7500000000000009
    vertex 54.002815598034346 11.002815544478164 0.7500000000000009
  endloop
endfacet
facet normal 0.0 0.0 -1.0
  outer loop
    vertex 54.002815598034346 11.002815544478164 0.7500000000000009
    vertex 54.002815598034346 11.997184455521747 0.7500000000000009
    vertex 54.148437553556136 12.10892411203589 0.7500000000000009
  endloop
endfacet
facet normal 0.0 0.0 -1.0
  outer loop
    vertex 54.002815598034346 11.002815544478164 0.7500000000000009
    vertex 54.148437553556136 12.10892411203589 0.7500000000000009
    vertex 54.148437553556136 10.891075887964021 0.7500000000000009
  endloop
endfacet
facet normal 0.0 0.0 -1.0
  outer loop
    vertex 54.148437553556136 10.891075887964021 0.7500000000000009
    vertex 54.148437553556136 12.10892411203589 0.7500000000000009
    vertex 54.31801791246843 12.179166596609457 0.7500000000000009
  endloop
endfacet
facet normal 0.0 0.0 -1.0
  outer loop
    vertex 54.148437553556136 10.891075887964021 0.7500000000000009
    vertex 54.31801791246843 12.179166596609457 0.7500000000000009
    vertex 54.31801791246843 10.820833403390454 0.7500000000000009
  endloop
endfacet
facet normal 0.0 0.0 -1.0
  outer loop
    vertex 54.31801791246843 10.820833403390454 0.7500000000000009
    vertex 54.31801791246843 12.179166596609457 0.7500000000000009
    vertex 54.500000053556136 12.203124999999956 0.7500000000000009
  endloop
endfacet
facet normal 0.0 0.0 -1.0
  outer loop
    vertex 54.31801791246843 10.820833403390454 0.7500000000000009
    vertex 54.500000053556136 12.203124999999956 0.7500000000000009
    vertex 54.500000053556136 10.796874999999956 0.7500000000000009
  endloop
endfacet
facet normal 0.0 0.0 -1.0
  outer loop
    vertex 54.500000053556136 10.796874999999956 0.7500000000000009
    vertex 54.500000053556136 12.203124999999956 0.7500000000000009
    vertex 54.681982194643844 12.179166596609457 0.7500000000000009
  endloop
endfacet
facet normal 0.0 0.0 -1.0
  outer loop
    vertex 54.500000053556136 10.796874999999956 0.7500000000000009
    vertex 54.681982194643844 12.179166596609457 0.7500000000000009
    vertex 54.681982194643844 10.820833403390454 0.7500000000000009
  endloop
endfacet
facet normal 0.0 0.0 -1.0
  outer loop
    vertex 54.681982194643844 10.820833403390454 0.7500000000000009
    vertex 54.681982194643844 12.179166596609457 0.7500000000000009
    vertex 54.851562553556136 12.10892411203589 0.7500000000000009
  endloop
endfacet
facet normal 0.0 0.0 -1.0
  outer loop
    vertex 54.681982194643844 10.820833403390454 0.7500000000000009
    vertex 54.851562553556136 12.10892411203589 0.7500000000000009
    vertex 54.851562553556136 10.891075887964021 0.7500000000000009
  endloop
endfacet
facet normal 0.0 0.0 -1.0
  outer loop
    vertex 54.851562553556136 10.891075887964021 0.7500000000000009
    vertex 54.851562553556136 12.10892411203589 0.7500000000000009
    vertex 54.997184509077925 11.997184455521747 0.7500000000000009
  endloop
endfacet
facet normal 0.0 0.0 -1.0
  outer loop
    vertex 54.851562553556136 10.891075887964021 0.7500000000000009
    vertex 54.997184509077925 11.997184455521747 0.7500000000000009
    vertex 54.997184509077925 11.002815544478164 0.7500000000000009
  endloop
endfacet
facet normal 0.0 0.0 -1.0
  outer loop
    vertex 54.997184509077925 11.002815544478164 0.7500000000000009
    vertex 54.997184509077925 11.997184455521747 0.7500000000000009
    vertex 55.10892416559207 11.851562499999956 0.7500000000000009
  endloop
endfacet
facet normal 0.0 0.0 -1.0
  outer loop
    vertex 54.997184509077925 11.002815544478164 0.7500000000000009
    vertex 55.10892416559207 11.851562499999956 0.7500000000000009
    vertex 55.10892416559207 11.148437499999956 0.7500000000000009
  endloop
endfacet
facet normal 0.0 0.0 -1.0
  outer loop
    vertex 55.10892416559207 11.148437499999956 0.7500000000000009
    vertex 55.10892416559207 11.851562499999956 0.7500000000000009
    vertex 55.179166650165634 11.681982141087666 0.7500000000000009
  endloop
endfacet
facet normal 0.0 0.0 -1.0
  outer loop
    vertex 55.10892416559207 11.148437499999956 0.7500000000000009
    vertex 55.179166650165634 11.681982141087666 0.7500000000000009
    vertex 55.179166650165634 11.318017858912244 0.7500000000000009
  endloop
endfacet
facet normal 0.0 0.0 -1.0
  outer loop
    vertex 55.179166650165634 11.318017858912244 0.7500000000000009
    vertex 55.179166650165634 11.681982141087666 0.7500000000000009
    vertex 55.203125053556136 11.499999999999954 0.7500000000000009
  endloop
endfacet
facet normal 0.6767064015338232 -0.2803009692599914 -0.6808082055579628
  outer loop
    vertex 55.179166650165634 11.318017858912244 0.7500000000000009
    vertex 55.149519106394465 11.124999999999956 0.8000000000000009
    vertex 55.10892416559207 11.148437499999956 0.7500000000000009
  endloop
endfacet
facet normal 0.6767064015338232 -0.2803009692599914 -0.6808082055579628
  outer loop
    vertex 55.149519106394465 11.124999999999956 0.8000000000000009
    vertex 55.179166650165634 11.318017858912244 0.7500000000000009
    vertex 55.224444423272935 11.305885716173064 0.8000000000000009
  endloop
endfacet
facet normal 0.4458944500018424 0.5811009608514681 -0.6808082055579641
  outer loop
    vertex 54.875000053556136 12.149519052838285 0.8000000000000009
    vertex 54.997184509077925 11.997184455521747 0.7500000000000009
    vertex 54.851562553556136 12.10892411203589 0.7500000000000009
  endloop
endfacet
facet normal 0.4458944500018424 0.5811009608514681 -0.6808082055579641
  outer loop
    vertex 54.997184509077925 11.997184455521747 0.7500000000000009
    vertex 54.875000053556136 12.149519052838285 0.8000000000000009
    vertex 55.03033013944604 12.030330085889867 0.8000000000000009
  endloop
endfacet
facet normal -0.2803009692599986 0.6767064015338148 -0.6808082055579683
  outer loop
    vertex 54.305885769729244 12.224444369716757 0.8000000000000009
    vertex 54.148437553556136 12.10892411203589 0.7500000000000009
    vertex 54.125000053556136 12.149519052838285 0.8000000000000009
  endloop
endfacet
facet normal -0.2803009692599986 0.6767064015338148 -0.6808082055579683
  outer loop
    vertex 54.148437553556136 12.10892411203589 0.7500000000000009
    vertex 54.305885769729244 12.224444369716757 0.8000000000000009
    vertex 54.31801791246843 12.179166596609457 0.7500000000000009
  endloop
endfacet
facet normal 0.5811009608514708 -0.44589445000185013 -0.6808082055579567
  outer loop
    vertex 55.10892416559207 11.148437499999956 0.7500000000000009
    vertex 55.03033013944604 10.969669914110044 0.8000000000000009
    vertex 54.997184509077925 11.002815544478164 0.7500000000000009
  endloop
endfacet
facet normal 0.5811009608514708 -0.44589445000185013 -0.6808082055579567
  outer loop
    vertex 55.03033013944604 10.969669914110044 0.8000000000000009
    vertex 55.10892416559207 11.148437499999956 0.7500000000000009
    vertex 55.149519106394465 11.124999999999956 0.8000000000000009
  endloop
endfacet
facet normal 0.7261954192618287 0.09560544068235448 -0.6808082055579747
  outer loop
    vertex 55.179166650165634 11.681982141087666 0.7500000000000009
    vertex 55.250000053556136 11.499999999999956 0.8000000000000009
    vertex 55.203125053556136 11.499999999999954 0.7500000000000009
  endloop
endfacet
facet normal 0.7261954192618287 0.09560544068235448 -0.6808082055579747
  outer loop
    vertex 55.250000053556136 11.499999999999956 0.8000000000000009
    vertex 55.179166650165634 11.681982141087666 0.7500000000000009
    vertex 55.224444423272935 11.694114283826845 0.8000000000000009
  endloop
endfacet
facet normal 0.4458944500018425 -0.5811009608514682 -0.6808082055579638
  outer loop
    vertex 54.997184509077925 11.002815544478164 0.7500000000000009
    vertex 54.875000053556136 10.850480947161627 0.8000000000000009
    vertex 54.851562553556136 10.891075887964021 0.7500000000000009
  endloop
endfacet
facet normal 0.4458944500018425 -0.5811009608514682 -0.6808082055579638
  outer loop
    vertex 54.875000053556136 10.850480947161627 0.8000000000000009
    vertex 54.997184509077925 11.002815544478164 0.7500000000000009
    vertex 55.03033013944604 10.969669914110044 0.8000000000000009
  endloop
endfacet
facet normal 0.5811009608514709 0.4458944500018502 -0.6808082055579567
  outer loop
    vertex 55.03033013944604 12.030330085889867 0.8000000000000009
    vertex 55.10892416559207 11.851562499999956 0.7500000000000009
    vertex 54.997184509077925 11.997184455521747 0.7500000000000009
  endloop
endfacet
facet normal 0.5811009608514709 0.4458944500018502 -0.6808082055579567
  outer loop
    vertex 55.10892416559207 11.851562499999956 0.7500000000000009
    vertex 55.03033013944604 12.030330085889867 0.8000000000000009
    vertex 55.149519106394465 11.874999999999956 0.8000000000000009
  endloop
endfacet
facet normal -0.6767064015338241 0.28030096925998893 -0.680808205557963
  outer loop
    vertex 53.85048100071781 11.874999999999956 0.8000000000000009
    vertex 53.82083345694664 11.681982141087666 0.7500000000000009
    vertex 53.775555683839336 11.694114283826845 0.8000000000000009
  endloop
endfacet
facet normal -0.6767064015338241 0.28030096925998893 -0.680808205557963
  outer loop
    vertex 53.82083345694664 11.681982141087666 0.7500000000000009
    vertex 53.85048100071781 11.874999999999956 0.8000000000000009
    vertex 53.8910759415202 11.851562499999956 0.7500000000000009
  endloop
endfacet
facet normal 0.7261954192618305 -0.0956054406823547 -0.680808205557973
  outer loop
    vertex 55.179166650165634 11.318017858912244 0.7500000000000009
    vertex 55.250000053556136 11.499999999999956 0.8000000000000009
    vertex 55.224444423272935 11.305885716173064 0.8000000000000009
  endloop
endfacet
facet normal 0.7261954192618305 -0.0956054406823547 -0.680808205557973
  outer loop
    vertex 55.250000053556136 11.499999999999956 0.8000000000000009
    vertex 55.179166650165634 11.318017858912244 0.7500000000000009
    vertex 55.203125053556136 11.499999999999954 0.7500000000000009
  endloop
endfacet
facet normal -0.5811009608514708 0.44589445000185013 -0.6808082055579567
  outer loop
    vertex 53.96966996766623 12.030330085889867 0.8000000000000009
    vertex 53.8910759415202 11.851562499999956 0.7500000000000009
    vertex 53.85048100071781 11.874999999999956 0.8000000000000009
  endloop
endfacet
facet normal -0.5811009608514708 0.44589445000185013 -0.6808082055579567
  outer loop
    vertex 53.8910759415202 11.851562499999956 0.7500000000000009
    vertex 53.96966996766623 12.030330085889867 0.8000000000000009
    vertex 54.002815598034346 11.997184455521747 0.7500000000000009
  endloop
endfacet
facet normal -0.7261954192618295 -0.09560544068235502 -0.6808082055579738
  outer loop
    vertex 53.750000053556136 11.499999999999956 0.8000000000000009
    vertex 53.82083345694664 11.318017858912246 0.7500000000000009
    vertex 53.775555683839336 11.305885716173066 0.8000000000000009
  endloop
endfacet
facet normal -0.7261954192618295 -0.09560544068235502 -0.6808082055579738
  outer loop
    vertex 53.82083345694664 11.318017858912246 0.7500000000000009
    vertex 53.750000053556136 11.499999999999956 0.8000000000000009
    vertex 53.796875053556136 11.499999999999956 0.7500000000000009
  endloop
endfacet
facet normal -0.5811009608514721 -0.4458944500018539 -0.6808082055579531
  outer loop
    vertex 53.8910759415202 11.148437499999956 0.7500000000000009
    vertex 53.96966996766623 10.969669914110046 0.8000000000000009
    vertex 53.85048100071781 11.124999999999956 0.8000000000000009
  endloop
endfacet
facet normal -0.5811009608514721 -0.4458944500018539 -0.6808082055579531
  outer loop
    vertex 53.96966996766623 10.969669914110046 0.8000000000000009
    vertex 53.8910759415202 11.148437499999956 0.7500000000000009
    vertex 54.002815598034346 11.002815544478164 0.7500000000000009
  endloop
endfacet
facet normal -0.44589445000184774 -0.5811009608514706 -0.6808082055579586
  outer loop
    vertex 54.002815598034346 11.002815544478164 0.7500000000000009
    vertex 54.125000053556136 10.850480947161627 0.8000000000000009
    vertex 53.96966996766623 10.969669914110046 0.8000000000000009
  endloop
endfacet
facet normal -0.44589445000184774 -0.5811009608514706 -0.6808082055579586
  outer loop
    vertex 54.125000053556136 10.850480947161627 0.8000000000000009
    vertex 54.002815598034346 11.002815544478164 0.7500000000000009
    vertex 54.148437553556136 10.891075887964021 0.7500000000000009
  endloop
endfacet
facet normal 0.6767064015338241 0.28030096925998893 -0.680808205557963
  outer loop
    vertex 55.149519106394465 11.874999999999956 0.8000000000000009
    vertex 55.179166650165634 11.681982141087666 0.7500000000000009
    vertex 55.10892416559207 11.851562499999956 0.7500000000000009
  endloop
endfacet
facet normal 0.6767064015338241 0.28030096925998893 -0.680808205557963
  outer loop
    vertex 55.179166650165634 11.681982141087666 0.7500000000000009
    vertex 55.149519106394465 11.874999999999956 0.8000000000000009
    vertex 55.224444423272935 11.694114283826845 0.8000000000000009
  endloop
endfacet
facet normal -0.6767064015338241 -0.28030096925998893 -0.680808205557963
  outer loop
    vertex 53.82083345694664 11.318017858912246 0.7500000000000009
    vertex 53.85048100071781 11.124999999999956 0.8000000000000009
    vertex 53.775555683839336 11.305885716173066 0.8000000000000009
  endloop
endfacet
facet normal -0.6767064015338241 -0.28030096925998893 -0.680808205557963
  outer loop
    vertex 53.85048100071781 11.124999999999956 0.8000000000000009
    vertex 53.82083345694664 11.318017858912246 0.7500000000000009
    vertex 53.8910759415202 11.148437499999956 0.7500000000000009
  endloop
endfacet
facet normal -0.2803009692599988 -0.6767064015338151 -0.680808205557968
  outer loop
    vertex 54.148437553556136 10.891075887964021 0.7500000000000009
    vertex 54.305885769729244 10.775555630283154 0.8000000000000009
    vertex 54.125000053556136 10.850480947161627 0.8000000000000009
  endloop
endfacet
facet normal -0.2803009692599988 -0.6767064015338151 -0.680808205557968
  outer loop
    vertex 54.305885769729244 10.775555630283154 0.8000000000000009
    vertex 54.148437553556136 10.891075887964021 0.7500000000000009
    vertex 54.31801791246843 10.820833403390454 0.7500000000000009
  endloop
endfacet
facet normal 0.09560544068234564 0.7261954192618356 -0.6808082055579686
  outer loop
    vertex 54.500000053556136 12.249999999999956 0.8000000000000009
    vertex 54.681982194643844 12.179166596609457 0.7500000000000009
    vertex 54.500000053556136 12.203124999999956 0.7500000000000009
  endloop
endfacet
facet normal 0.09560544068234564 0.7261954192618356 -0.6808082055579686
  outer loop
    vertex 54.681982194643844 12.179166596609457 0.7500000000000009
    vertex 54.500000053556136 12.249999999999956 0.8000000000000009
    vertex 54.69411433738303 12.224444369716757 0.8000000000000009
  endloop
endfacet
facet normal 0.2803009692599986 0.6767064015338147 -0.6808082055579685
  outer loop
    vertex 54.69411433738303 12.224444369716757 0.8000000000000009
    vertex 54.851562553556136 12.10892411203589 0.7500000000000009
    vertex 54.681982194643844 12.179166596609457 0.7500000000000009
  endloop
endfacet
facet normal 0.2803009692599986 0.6767064015338147 -0.6808082055579685
  outer loop
    vertex 54.851562553556136 12.10892411203589 0.7500000000000009
    vertex 54.69411433738303 12.224444369716757 0.8000000000000009
    vertex 54.875000053556136 12.149519052838285 0.8000000000000009
  endloop
endfacet
facet normal -0.09560544068234562 0.7261954192618355 -0.6808082055579687
  outer loop
    vertex 54.305885769729244 12.224444369716757 0.8000000000000009
    vertex 54.500000053556136 12.203124999999956 0.7500000000000009
    vertex 54.31801791246843 12.179166596609457 0.7500000000000009
  endloop
endfacet
facet normal -0.09560544068234562 0.7261954192618355 -0.6808082055579687
  outer loop
    vertex 54.500000053556136 12.203124999999956 0.7500000000000009
    vertex 54.305885769729244 12.224444369716757 0.8000000000000009
    vertex 54.500000053556136 12.249999999999956 0.8000000000000009
  endloop
endfacet
facet normal 0.2803009692599986 -0.6767064015338147 -0.6808082055579685
  outer loop
    vertex 54.851562553556136 10.891075887964021 0.7500000000000009
    vertex 54.69411433738303 10.775555630283154 0.8000000000000009
    vertex 54.681982194643844 10.820833403390454 0.7500000000000009
  endloop
endfacet
facet normal 0.2803009692599986 -0.6767064015338147 -0.6808082055579685
  outer loop
    vertex 54.69411433738303 10.775555630283154 0.8000000000000009
    vertex 54.851562553556136 10.891075887964021 0.7500000000000009
    vertex 54.875000053556136 10.850480947161627 0.8000000000000009
  endloop
endfacet
facet normal -0.4458944500018425 0.5811009608514682 -0.6808082055579638
  outer loop
    vertex 54.125000053556136 12.149519052838285 0.8000000000000009
    vertex 54.002815598034346 11.997184455521747 0.7500000000000009
    vertex 53.96966996766623 12.030330085889867 0.8000000000000009
  endloop
endfacet
facet normal -0.4458944500018425 0.5811009608514682 -0.6808082055579638
  outer loop
    vertex 54.002815598034346 11.997184455521747 0.7500000000000009
    vertex 54.125000053556136 12.149519052838285 0.8000000000000009
    vertex 54.148437553556136 12.10892411203589 0.7500000000000009
  endloop
endfacet
facet normal -0.7261954192618295 0.09560544068235506 -0.6808082055579738
  outer loop
    vertex 53.775555683839336 11.694114283826845 0.8000000000000009
    vertex 53.796875053556136 11.499999999999956 0.7500000000000009
    vertex 53.750000053556136 11.499999999999956 0.8000000000000009
  endloop
endfacet
facet normal -0.7261954192618295 0.09560544068235506 -0.6808082055579738
  outer loop
    vertex 53.796875053556136 11.499999999999956 0.7500000000000009
    vertex 53.775555683839336 11.694114283826845 0.8000000000000009
    vertex 53.82083345694664 11.681982141087666 0.7500000000000009
  endloop
endfacet
facet normal 0.09560544068234564 -0.7261954192618356 -0.6808082055579686
  outer loop
    vertex 54.69411433738303 10.775555630283154 0.8000000000000009
    vertex 54.500000053556136 10.796874999999956 0.7500000000000009
    vertex 54.681982194643844 10.820833403390454 0.7500000000000009
  endloop
endfacet
facet normal 0.09560544068234564 -0.7261954192618356 -0.6808082055579686
  outer loop
    vertex 54.500000053556136 10.796874999999956 0.7500000000000009
    vertex 54.69411433738303 10.775555630283154 0.8000000000000009
    vertex 54.500000053556136 10.749999999999956 0.8000000000000009
  endloop
endfacet
facet normal -0.09560544068234564 -0.7261954192618356 -0.6808082055579686
  outer loop
    vertex 54.500000053556136 10.749999999999956 0.8000000000000009
    vertex 54.31801791246843 10.820833403390454 0.7500000000000009
    vertex 54.500000053556136 10.796874999999956 0.7500000000000009
  endloop
endfacet
facet normal -0.09560544068234564 -0.7261954192618356 -0.6808082055579686
  outer loop
    vertex 54.31801791246843 10.820833403390454 0.7500000000000009
    vertex 54.500000053556136 10.749999999999956 0.8000000000000009
    vertex 54.305885769729244 10.775555630283154 0.8000000000000009
  endloop
endfacet
facet normal 0.7933533402912525 0.6087614290086981 -1.3869150896006002e-30
  outer loop
    vertex 54.85355344414941 11.853553390593229 1.0000000000000009
    vertex 54.93301275544835 11.749999999999956 1.9500000000000008
    vertex 54.93301275544835 11.749999999999956 1.0000000000000009
  endloop
endfacet
facet normal 0.7933533402912525 0.6087614290086981 -1.3869150896006002e-30
  outer loop
    vertex 54.93301275544835 11.749999999999956 1.9500000000000008
    vertex 54.85355344414941 11.853553390593229 1.0000000000000009
    vertex 54.85355344414941 11.853553390593229 1.9500000000000008
  endloop
endfacet
facet normal 0.6087614290087106 0.7933533402912428 -3.0498585355080157e-18
  outer loop
    vertex 54.750000053556136 11.933012701892174 1.9500000000000008
    vertex 54.85355344414941 11.853553390593229 1.0000000000000009
    vertex 54.750000053556136 11.933012701892174 1.0000000000000009
  endloop
endfacet
facet normal 0.6087614290087106 0.7933533402912428 -3.0498585355080157e-18
  outer loop
    vertex 54.85355344414941 11.853553390593229 1.0000000000000009
    vertex 54.750000053556136 11.933012701892174 1.9500000000000008
    vertex 54.85355344414941 11.853553390593229 1.9500000000000008
  endloop
endfacet
facet normal 0.9238795325112841 0.38268343236509644 1.7758177440700945e-18
  outer loop
    vertex 54.93301275544835 11.749999999999956 1.0000000000000009
    vertex 54.98296296670067 11.629409522551216 1.9500000000000008
    vertex 54.98296296670067 11.629409522551216 1.0000000000000009
  endloop
endfacet
facet normal 0.9238795325112841 0.38268343236509644 1.7758177440700945e-18
  outer loop
    vertex 54.98296296670067 11.629409522551216 1.9500000000000008
    vertex 54.93301275544835 11.749999999999956 1.0000000000000009
    vertex 54.93301275544835 11.749999999999956 1.9500000000000008
  endloop
endfacet
facet normal 0.3826834323651061 0.9238795325112801 -6.689950113432056e-31
  outer loop
    vertex 54.6294095761074 11.98296291314449 1.9500000000000008
    vertex 54.750000053556136 11.933012701892174 1.0000000000000009
    vertex 54.6294095761074 11.98296291314449 1.0000000000000009
  endloop
endfacet
facet normal 0.3826834323651061 0.9238795325112801 -6.689950113432056e-31
  outer loop
    vertex 54.750000053556136 11.933012701892174 1.0000000000000009
    vertex 54.6294095761074 11.98296291314449 1.9500000000000008
    vertex 54.750000053556136 11.933012701892174 1.9500000000000008
  endloop
endfacet
facet normal 0.13052619222004383 0.9914448613738114 6.614848373512952e-31
  outer loop
    vertex 54.500000053556136 11.999999999999956 1.9500000000000008
    vertex 54.6294095761074 11.98296291314449 1.0000000000000009
    vertex 54.500000053556136 11.999999999999956 1.0000000000000009
  endloop
endfacet
facet normal 0.13052619222004383 0.9914448613738114 6.614848373512952e-31
  outer loop
    vertex 54.6294095761074 11.98296291314449 1.0000000000000009
    vertex 54.500000053556136 11.999999999999956 1.9500000000000008
    vertex 54.6294095761074 11.98296291314449 1.9500000000000008
  endloop
endfacet
facet normal -0.13052619222004383 0.9914448613738114 2.0512135746318183e-31
  outer loop
    vertex 54.37059053100487 11.98296291314449 1.9500000000000008
    vertex 54.500000053556136 11.999999999999956 1.0000000000000009
    vertex 54.37059053100487 11.98296291314449 1.0000000000000009
  endloop
endfacet
facet normal -0.13052619222004383 0.9914448613738114 2.0512135746318183e-31
  outer loop
    vertex 54.500000053556136 11.999999999999956 1.0000000000000009
    vertex 54.37059053100487 11.98296291314449 1.9500000000000008
    vertex 54.500000053556136 11.999999999999956 1.9500000000000008
  endloop
endfacet
facet normal -0.3826834323651061 0.9238795325112801 6.689950113432056e-31
  outer loop
    vertex 54.250000053556136 11.933012701892174 1.9500000000000008
    vertex 54.37059053100487 11.98296291314449 1.0000000000000009
    vertex 54.250000053556136 11.933012701892174 1.0000000000000009
  endloop
endfacet
facet normal -0.3826834323651061 0.9238795325112801 6.689950113432056e-31
  outer loop
    vertex 54.37059053100487 11.98296291314449 1.0000000000000009
    vertex 54.250000053556136 11.933012701892174 1.9500000000000008
    vertex 54.37059053100487 11.98296291314449 1.9500000000000008
  endloop
endfacet
facet normal -0.6087614290087106 0.7933533402912428 3.0498585355080157e-18
  outer loop
    vertex 54.14644666296286 11.853553390593229 1.9500000000000008
    vertex 54.250000053556136 11.933012701892174 1.0000000000000009
    vertex 54.14644666296286 11.853553390593229 1.0000000000000009
  endloop
endfacet
facet normal -0.6087614290087106 0.7933533402912428 3.0498585355080157e-18
  outer loop
    vertex 54.250000053556136 11.933012701892174 1.0000000000000009
    vertex 54.14644666296286 11.853553390593229 1.9500000000000008
    vertex 54.250000053556136 11.933012701892174 1.9500000000000008
  endloop
endfacet
facet normal -0.7933533402912525 0.6087614290086981 1.3869150896006002e-30
  outer loop
    vertex 54.14644666296286 11.853553390593229 1.9500000000000008
    vertex 54.06698735166392 11.749999999999956 1.0000000000000009
    vertex 54.06698735166392 11.749999999999956 1.9500000000000008
  endloop
endfacet
facet normal -0.7933533402912525 0.6087614290086981 1.3869150896006002e-30
  outer loop
    vertex 54.06698735166392 11.749999999999956 1.0000000000000009
    vertex 54.14644666296286 11.853553390593229 1.9500000000000008
    vertex 54.14644666296286 11.853553390593229 1.0000000000000009
  endloop
endfacet
facet normal -0.9238795325112841 0.38268343236509644 -1.7758177440700945e-18
  outer loop
    vertex 54.06698735166392 11.749999999999956 1.9500000000000008
    vertex 54.0170371404116 11.629409522551216 1.0000000000000009
    vertex 54.0170371404116 11.629409522551216 1.9500000000000008
  endloop
endfacet
facet normal -0.9238795325112841 0.38268343236509644 -1.7758177440700945e-18
  outer loop
    vertex 54.0170371404116 11.629409522551216 1.0000000000000009
    vertex 54.06698735166392 11.749999999999956 1.9500000000000008
    vertex 54.06698735166392 11.749999999999956 1.0000000000000009
  endloop
endfacet
facet normal -0.9914448613738092 0.13052619222006076 -9.528435879046952e-19
  outer loop
    vertex 54.0170371404116 11.629409522551216 1.9500000000000008
    vertex 54.000000053556136 11.499999999999956 1.0000000000000009
    vertex 54.000000053556136 11.499999999999956 1.9500000000000008
  endloop
endfacet
facet normal -0.9914448613738092 0.13052619222006076 -9.528435879046952e-19
  outer loop
    vertex 54.000000053556136 11.499999999999956 1.0000000000000009
    vertex 54.0170371404116 11.629409522551216 1.9500000000000008
    vertex 54.0170371404116 11.629409522551216 1.0000000000000009
  endloop
endfacet
facet normal -0.9914448613738092 -0.13052619222006073 0.0
  outer loop
    vertex 54.000000053556136 11.499999999999956 1.9500000000000008
    vertex 54.0170371404116 11.370590477448696 1.0000000000000009
    vertex 54.0170371404116 11.370590477448696 1.9500000000000008
  endloop
endfacet
facet normal -0.9914448613738092 -0.13052619222006073 0.0
  outer loop
    vertex 54.0170371404116 11.370590477448696 1.0000000000000009
    vertex 54.000000053556136 11.499999999999956 1.9500000000000008
    vertex 54.000000053556136 11.499999999999956 1.0000000000000009
  endloop
endfacet
facet normal -0.9238795325112841 -0.38268343236509644 1.7758177440700945e-18
  outer loop
    vertex 54.0170371404116 11.370590477448696 1.9500000000000008
    vertex 54.06698735166392 11.249999999999956 1.0000000000000009
    vertex 54.06698735166392 11.249999999999956 1.9500000000000008
  endloop
endfacet
facet normal -0.9238795325112841 -0.38268343236509644 1.7758177440700945e-18
  outer loop
    vertex 54.06698735166392 11.249999999999956 1.0000000000000009
    vertex 54.0170371404116 11.370590477448696 1.9500000000000008
    vertex 54.0170371404116 11.370590477448696 1.0000000000000009
  endloop
endfacet
facet normal -0.7933533402912575 -0.6087614290086916 -1.6529694341720406e-30
  outer loop
    vertex 54.06698735166392 11.249999999999956 1.9500000000000008
    vertex 54.14644666296286 11.14644660940668 1.0000000000000009
    vertex 54.14644666296286 11.14644660940668 1.9500000000000008
  endloop
endfacet
facet normal -0.7933533402912575 -0.6087614290086916 -1.6529694341720406e-30
  outer loop
    vertex 54.14644666296286 11.14644660940668 1.0000000000000009
    vertex 54.06698735166392 11.249999999999956 1.9500000000000008
    vertex 54.06698735166392 11.249999999999956 1.0000000000000009
  endloop
endfacet
facet normal -0.6087614290087021 -0.7933533402912495 0.0
  outer loop
    vertex 54.250000053556136 11.066987298107737 1.9500000000000008
    vertex 54.14644666296286 11.14644660940668 1.0000000000000009
    vertex 54.250000053556136 11.066987298107737 1.0000000000000009
  endloop
endfacet
facet normal -0.6087614290087021 -0.7933533402912495 0.0
  outer loop
    vertex 54.14644666296286 11.14644660940668 1.0000000000000009
    vertex 54.250000053556136 11.066987298107737 1.9500000000000008
    vertex 54.14644666296286 11.14644660940668 1.9500000000000008
  endloop
endfacet
facet normal -0.3826834323651061 -0.9238795325112801 -6.689950113432056e-31
  outer loop
    vertex 54.37059053100487 11.01703708685542 1.9500000000000008
    vertex 54.250000053556136 11.066987298107737 1.0000000000000009
    vertex 54.37059053100487 11.01703708685542 1.0000000000000009
  endloop
endfacet
facet normal -0.3826834323651061 -0.9238795325112801 -6.689950113432056e-31
  outer loop
    vertex 54.250000053556136 11.066987298107737 1.0000000000000009
    vertex 54.37059053100487 11.01703708685542 1.9500000000000008
    vertex 54.250000053556136 11.066987298107737 1.9500000000000008
  endloop
endfacet
facet normal -0.13052619222004383 -0.9914448613738114 6.614848373512952e-31
  outer loop
    vertex 54.500000053556136 10.999999999999956 1.9500000000000008
    vertex 54.37059053100487 11.01703708685542 1.0000000000000009
    vertex 54.500000053556136 10.999999999999956 1.0000000000000009
  endloop
endfacet
facet normal -0.13052619222004383 -0.9914448613738114 6.614848373512952e-31
  outer loop
    vertex 54.37059053100487 11.01703708685542 1.0000000000000009
    vertex 54.500000053556136 10.999999999999956 1.9500000000000008
    vertex 54.37059053100487 11.01703708685542 1.9500000000000008
  endloop
endfacet
facet normal 0.13052619222004383 -0.9914448613738114 -6.614848373512952e-31
  outer loop
    vertex 54.6294095761074 11.01703708685542 1.9500000000000008
    vertex 54.500000053556136 10.999999999999956 1.0000000000000009
    vertex 54.6294095761074 11.01703708685542 1.0000000000000009
  endloop
endfacet
facet normal 0.13052619222004383 -0.9914448613738114 -6.614848373512952e-31
  outer loop
    vertex 54.500000053556136 10.999999999999956 1.0000000000000009
    vertex 54.6294095761074 11.01703708685542 1.9500000000000008
    vertex 54.500000053556136 10.999999999999956 1.9500000000000008
  endloop
endfacet
facet normal 0.3826834323651061 -0.9238795325112801 6.689950113432056e-31
  outer loop
    vertex 54.750000053556136 11.066987298107737 1.9500000000000008
    vertex 54.6294095761074 11.01703708685542 1.0000000000000009
    vertex 54.750000053556136 11.066987298107737 1.0000000000000009
  endloop
endfacet
facet normal 0.3826834323651061 -0.9238795325112801 6.689950113432056e-31
  outer loop
    vertex 54.6294095761074 11.01703708685542 1.0000000000000009
    vertex 54.750000053556136 11.066987298107737 1.9500000000000008
    vertex 54.6294095761074 11.01703708685542 1.9500000000000008
  endloop
endfacet
facet normal 0.6087614290087021 -0.7933533402912495 3.0498585355083886e-18
  outer loop
    vertex 54.85355344414941 11.14644660940668 1.9500000000000008
    vertex 54.750000053556136 11.066987298107737 1.0000000000000009
    vertex 54.85355344414941 11.14644660940668 1.0000000000000009
  endloop
endfacet
facet normal 0.6087614290087021 -0.7933533402912495 3.0498585355083886e-18
  outer loop
    vertex 54.750000053556136 11.066987298107737 1.0000000000000009
    vertex 54.85355344414941 11.14644660940668 1.9500000000000008
    vertex 54.750000053556136 11.066987298107737 1.9500000000000008
  endloop
endfacet
facet normal 0.7933533402912575 -0.6087614290086916 1.120860745029178e-30
  outer loop
    vertex 54.93301275544835 11.249999999999956 1.0000000000000009
    vertex 54.85355344414941 11.14644660940668 1.9500000000000008
    vertex 54.85355344414941 11.14644660940668 1.0000000000000009
  endloop
endfacet
facet normal 0.7933533402912575 -0.6087614290086916 1.120860745029178e-30
  outer loop
    vertex 54.85355344414941 11.14644660940668 1.9500000000000008
    vertex 54.93301275544835 11.249999999999956 1.0000000000000009
    vertex 54.93301275544835 11.249999999999956 1.9500000000000008
  endloop
endfacet
facet normal 0.923879532511282 -0.3826834323651012 -1.7758177440702574e-18
  outer loop
    vertex 54.98296296670067 11.370590477448694 1.0000000000000009
    vertex 54.93301275544835 11.249999999999956 1.9500000000000008
    vertex 54.93301275544835 11.249999999999956 1.0000000000000009
  endloop
endfacet
facet normal 0.923879532511282 -0.3826834323651012 -1.7758177440702574e-18
  outer loop
    vertex 54.93301275544835 11.249999999999956 1.9500000000000008
    vertex 54.98296296670067 11.370590477448694 1.0000000000000009
    vertex 54.98296296670067 11.370590477448694 1.9500000000000008
  endloop
endfacet
facet normal 0.9914448613738094 -0.13052619222005898 -9.528435879046384e-19
  outer loop
    vertex 55.000000053556136 11.499999999999956 1.0000000000000009
    vertex 54.98296296670067 11.370590477448694 1.9500000000000008
    vertex 54.98296296670067 11.370590477448694 1.0000000000000009
  endloop
endfacet
facet normal 0.9914448613738094 -0.13052619222005898 -9.528435879046384e-19
  outer loop
    vertex 54.98296296670067 11.370590477448694 1.9500000000000008
    vertex 55.000000053556136 11.499999999999956 1.0000000000000009
    vertex 55.000000053556136 11.499999999999956 1.9500000000000008
  endloop
endfacet
facet normal 0.9914448613738092 0.13052619222006073 0.0
  outer loop
    vertex 54.98296296670067 11.629409522551216 1.0000000000000009
    vertex 55.000000053556136 11.499999999999956 1.9500000000000008
    vertex 55.000000053556136 11.499999999999956 1.0000000000000009
  endloop
endfacet
facet normal 0.9914448613738092 0.13052619222006073 0.0
  outer loop
    vertex 55.000000053556136 11.499999999999956 1.9500000000000008
    vertex 54.98296296670067 11.629409522551216 1.0000000000000009
    vertex 54.98296296670067 11.629409522551216 1.9500000000000008
  endloop
endfacet
endsolid GuestRoomShelves
